ISO-10303-21;
HEADER;
FILE_DESCRIPTION(('FreeCAD Model'),'2;1');
FILE_NAME('Open CASCADE Shape Model','2026-03-05T12:11:19',('Author'),(
    ''),'Open CASCADE STEP processor 7.7','FreeCAD','Unknown');
FILE_SCHEMA(('AUTOMOTIVE_DESIGN { 1 0 10303 214 1 1 1 1 }'));
ENDSEC;
DATA;
#1 = APPLICATION_PROTOCOL_DEFINITION('international standard',
  'automotive_design',2000,#2);
#2 = APPLICATION_CONTEXT(
  'core data for automotive mechanical design processes');
#3 = SHAPE_DEFINITION_REPRESENTATION(#4,#10);
#4 = PRODUCT_DEFINITION_SHAPE('','',#5);
#5 = PRODUCT_DEFINITION('design','',#6,#9);
#6 = PRODUCT_DEFINITION_FORMATION('','',#7);
#7 = PRODUCT('Unnamed','Unnamed','',(#8));
#8 = PRODUCT_CONTEXT('',#2,'mechanical');
#9 = PRODUCT_DEFINITION_CONTEXT('part definition',#2,'design');
#10 = SHAPE_REPRESENTATION('',(#11,#15,#19,#23,#27,#31,#35,#39,#43,#47),
  #51);
#11 = AXIS2_PLACEMENT_3D('',#12,#13,#14);
#12 = CARTESIAN_POINT('',(0.,0.,0.));
#13 = DIRECTION('',(0.,0.,1.));
#14 = DIRECTION('',(1.,0.,-0.));
#15 = AXIS2_PLACEMENT_3D('',#16,#17,#18);
#16 = CARTESIAN_POINT('',(19.,148.,173.));
#17 = DIRECTION('',(0.,0.,1.));
#18 = DIRECTION('',(1.,0.,0.));
#19 = AXIS2_PLACEMENT_3D('',#20,#21,#22);
#20 = CARTESIAN_POINT('',(0.,0.,45.));
#21 = DIRECTION('',(0.,0.,1.));
#22 = DIRECTION('',(1.,0.,0.));
#23 = AXIS2_PLACEMENT_3D('',#24,#25,#26);
#24 = CARTESIAN_POINT('',(19.,148.,413.));
#25 = DIRECTION('',(0.,0.,1.));
#26 = DIRECTION('',(1.,0.,0.));
#27 = AXIS2_PLACEMENT_3D('',#28,#29,#30);
#28 = CARTESIAN_POINT('',(19.,148.,293.));
#29 = DIRECTION('',(0.,0.,1.));
#30 = DIRECTION('',(1.,0.,0.));
#31 = AXIS2_PLACEMENT_3D('',#32,#33,#34);
#32 = CARTESIAN_POINT('',(19.,148.,533.));
#33 = DIRECTION('',(0.,0.,1.));
#34 = DIRECTION('',(1.,0.,0.));
#35 = AXIS2_PLACEMENT_3D('',#36,#37,#38);
#36 = CARTESIAN_POINT('',(19.,148.,53.));
#37 = DIRECTION('',(0.,0.,1.));
#38 = DIRECTION('',(1.,0.,0.));
#39 = AXIS2_PLACEMENT_3D('',#40,#41,#42);
#40 = CARTESIAN_POINT('',(0.,103.,45.));
#41 = DIRECTION('',(0.,0.,1.));
#42 = DIRECTION('',(1.,0.,0.));
#43 = AXIS2_PLACEMENT_3D('',#44,#45,#46);
#44 = CARTESIAN_POINT('',(1.019E+03,0.,45.));
#45 = DIRECTION('',(0.,0.,1.));
#46 = DIRECTION('',(1.,0.,0.));
#47 = AXIS2_PLACEMENT_3D('',#48,#49,#50);
#48 = CARTESIAN_POINT('',(1.019E+03,103.,45.));
#49 = DIRECTION('',(0.,0.,1.));
#50 = DIRECTION('',(1.,0.,0.));
#51 = ( GEOMETRIC_REPRESENTATION_CONTEXT(3) 
GLOBAL_UNCERTAINTY_ASSIGNED_CONTEXT((#55)) GLOBAL_UNIT_ASSIGNED_CONTEXT(
(#52,#53,#54)) REPRESENTATION_CONTEXT('Context #1',
  '3D Context with UNIT and UNCERTAINTY') );
#52 = ( LENGTH_UNIT() NAMED_UNIT(*) SI_UNIT(.MILLI.,.METRE.) );
#53 = ( NAMED_UNIT(*) PLANE_ANGLE_UNIT() SI_UNIT($,.RADIAN.) );
#54 = ( NAMED_UNIT(*) SI_UNIT($,.STERADIAN.) SOLID_ANGLE_UNIT() );
#55 = UNCERTAINTY_MEASURE_WITH_UNIT(LENGTH_MEASURE(1.E-07),#52,
  'distance_accuracy_value','confusion accuracy');
#56 = PRODUCT_RELATED_PRODUCT_CATEGORY('part',$,(#7));
#57 = SHAPE_DEFINITION_REPRESENTATION(#58,#64);
#58 = PRODUCT_DEFINITION_SHAPE('','',#59);
#59 = PRODUCT_DEFINITION('design','',#60,#63);
#60 = PRODUCT_DEFINITION_FORMATION('','',#61);
#61 = PRODUCT('balda','balda','',(#62));
#62 = PRODUCT_CONTEXT('',#2,'mechanical');
#63 = PRODUCT_DEFINITION_CONTEXT('part definition',#2,'design');
#64 = ADVANCED_BREP_SHAPE_REPRESENTATION('',(#11,#65),#215);
#65 = MANIFOLD_SOLID_BREP('',#66);
#66 = CLOSED_SHELL('',(#67,#107,#138,#169,#191,#203));
#67 = ADVANCED_FACE('',(#68),#102,.F.);
#68 = FACE_BOUND('',#69,.F.);
#69 = EDGE_LOOP('',(#70,#80,#88,#96));
#70 = ORIENTED_EDGE('',*,*,#71,.T.);
#71 = EDGE_CURVE('',#72,#74,#76,.T.);
#72 = VERTEX_POINT('',#73);
#73 = CARTESIAN_POINT('',(0.,5.995204332976E-15,27.));
#74 = VERTEX_POINT('',#75);
#75 = CARTESIAN_POINT('',(0.,-148.,27.));
#76 = LINE('',#77,#78);
#77 = CARTESIAN_POINT('',(0.,5.995204332976E-15,27.));
#78 = VECTOR('',#79,1.);
#79 = DIRECTION('',(0.,-1.,2.22044604925E-16));
#80 = ORIENTED_EDGE('',*,*,#81,.T.);
#81 = EDGE_CURVE('',#74,#82,#84,.T.);
#82 = VERTEX_POINT('',#83);
#83 = CARTESIAN_POINT('',(0.,-148.,3.28626015289E-14));
#84 = LINE('',#85,#86);
#85 = CARTESIAN_POINT('',(0.,-148.,27.));
#86 = VECTOR('',#87,1.);
#87 = DIRECTION('',(0.,-2.22044604925E-16,-1.));
#88 = ORIENTED_EDGE('',*,*,#89,.F.);
#89 = EDGE_CURVE('',#90,#82,#92,.T.);
#90 = VERTEX_POINT('',#91);
#91 = CARTESIAN_POINT('',(0.,0.,0.));
#92 = LINE('',#93,#94);
#93 = CARTESIAN_POINT('',(0.,0.,0.));
#94 = VECTOR('',#95,1.);
#95 = DIRECTION('',(0.,-1.,2.22044604925E-16));
#96 = ORIENTED_EDGE('',*,*,#97,.F.);
#97 = EDGE_CURVE('',#72,#90,#98,.T.);
#98 = LINE('',#99,#100);
#99 = CARTESIAN_POINT('',(0.,5.995204332976E-15,27.));
#100 = VECTOR('',#101,1.);
#101 = DIRECTION('',(0.,-2.22044604925E-16,-1.));
#102 = PLANE('',#103);
#103 = AXIS2_PLACEMENT_3D('',#104,#105,#106);
#104 = CARTESIAN_POINT('',(0.,5.995204332976E-15,27.));
#105 = DIRECTION('',(1.,0.,0.));
#106 = DIRECTION('',(0.,-2.22044604925E-16,-1.));
#107 = ADVANCED_FACE('',(#108),#133,.F.);
#108 = FACE_BOUND('',#109,.F.);
#109 = EDGE_LOOP('',(#110,#111,#119,#127));
#110 = ORIENTED_EDGE('',*,*,#89,.T.);
#111 = ORIENTED_EDGE('',*,*,#112,.T.);
#112 = EDGE_CURVE('',#82,#113,#115,.T.);
#113 = VERTEX_POINT('',#114);
#114 = CARTESIAN_POINT('',(1.E+03,-148.,3.28626015289E-14));
#115 = LINE('',#116,#117);
#116 = CARTESIAN_POINT('',(0.,-148.,2.84217094304E-14));
#117 = VECTOR('',#118,1.);
#118 = DIRECTION('',(1.,0.,0.));
#119 = ORIENTED_EDGE('',*,*,#120,.F.);
#120 = EDGE_CURVE('',#121,#113,#123,.T.);
#121 = VERTEX_POINT('',#122);
#122 = CARTESIAN_POINT('',(1.E+03,0.,0.));
#123 = LINE('',#124,#125);
#124 = CARTESIAN_POINT('',(1.E+03,0.,0.));
#125 = VECTOR('',#126,1.);
#126 = DIRECTION('',(0.,-1.,2.22044604925E-16));
#127 = ORIENTED_EDGE('',*,*,#128,.F.);
#128 = EDGE_CURVE('',#90,#121,#129,.T.);
#129 = LINE('',#130,#131);
#130 = CARTESIAN_POINT('',(0.,0.,0.));
#131 = VECTOR('',#132,1.);
#132 = DIRECTION('',(1.,0.,0.));
#133 = PLANE('',#134);
#134 = AXIS2_PLACEMENT_3D('',#135,#136,#137);
#135 = CARTESIAN_POINT('',(0.,0.,0.));
#136 = DIRECTION('',(0.,2.22044604925E-16,1.));
#137 = DIRECTION('',(1.,0.,0.));
#138 = ADVANCED_FACE('',(#139),#164,.F.);
#139 = FACE_BOUND('',#140,.F.);
#140 = EDGE_LOOP('',(#141,#142,#150,#158));
#141 = ORIENTED_EDGE('',*,*,#120,.T.);
#142 = ORIENTED_EDGE('',*,*,#143,.T.);
#143 = EDGE_CURVE('',#113,#144,#146,.T.);
#144 = VERTEX_POINT('',#145);
#145 = CARTESIAN_POINT('',(1.E+03,-148.,27.));
#146 = LINE('',#147,#148);
#147 = CARTESIAN_POINT('',(1.E+03,-148.,2.84217094304E-14));
#148 = VECTOR('',#149,1.);
#149 = DIRECTION('',(0.,2.22044604925E-16,1.));
#150 = ORIENTED_EDGE('',*,*,#151,.F.);
#151 = EDGE_CURVE('',#152,#144,#154,.T.);
#152 = VERTEX_POINT('',#153);
#153 = CARTESIAN_POINT('',(1.E+03,5.995204332976E-15,27.));
#154 = LINE('',#155,#156);
#155 = CARTESIAN_POINT('',(1.E+03,5.995204332976E-15,27.));
#156 = VECTOR('',#157,1.);
#157 = DIRECTION('',(0.,-1.,2.22044604925E-16));
#158 = ORIENTED_EDGE('',*,*,#159,.F.);
#159 = EDGE_CURVE('',#121,#152,#160,.T.);
#160 = LINE('',#161,#162);
#161 = CARTESIAN_POINT('',(1.E+03,0.,0.));
#162 = VECTOR('',#163,1.);
#163 = DIRECTION('',(0.,2.22044604925E-16,1.));
#164 = PLANE('',#165);
#165 = AXIS2_PLACEMENT_3D('',#166,#167,#168);
#166 = CARTESIAN_POINT('',(1.E+03,0.,0.));
#167 = DIRECTION('',(-1.,-0.,0.));
#168 = DIRECTION('',(0.,2.22044604925E-16,1.));
#169 = ADVANCED_FACE('',(#170),#186,.F.);
#170 = FACE_BOUND('',#171,.F.);
#171 = EDGE_LOOP('',(#172,#173,#179,#180));
#172 = ORIENTED_EDGE('',*,*,#151,.T.);
#173 = ORIENTED_EDGE('',*,*,#174,.T.);
#174 = EDGE_CURVE('',#144,#74,#175,.T.);
#175 = LINE('',#176,#177);
#176 = CARTESIAN_POINT('',(1.E+03,-148.,27.));
#177 = VECTOR('',#178,1.);
#178 = DIRECTION('',(-1.,0.,0.));
#179 = ORIENTED_EDGE('',*,*,#71,.F.);
#180 = ORIENTED_EDGE('',*,*,#181,.F.);
#181 = EDGE_CURVE('',#152,#72,#182,.T.);
#182 = LINE('',#183,#184);
#183 = CARTESIAN_POINT('',(1.E+03,5.995204332976E-15,27.));
#184 = VECTOR('',#185,1.);
#185 = DIRECTION('',(-1.,0.,0.));
#186 = PLANE('',#187);
#187 = AXIS2_PLACEMENT_3D('',#188,#189,#190);
#188 = CARTESIAN_POINT('',(1.E+03,5.995204332976E-15,27.));
#189 = DIRECTION('',(0.,-2.22044604925E-16,-1.));
#190 = DIRECTION('',(-1.,-0.,0.));
#191 = ADVANCED_FACE('',(#192),#198,.T.);
#192 = FACE_BOUND('',#193,.F.);
#193 = EDGE_LOOP('',(#194,#195,#196,#197));
#194 = ORIENTED_EDGE('',*,*,#97,.T.);
#195 = ORIENTED_EDGE('',*,*,#128,.T.);
#196 = ORIENTED_EDGE('',*,*,#159,.T.);
#197 = ORIENTED_EDGE('',*,*,#181,.T.);
#198 = PLANE('',#199);
#199 = AXIS2_PLACEMENT_3D('',#200,#201,#202);
#200 = CARTESIAN_POINT('',(500.,2.997602166488E-15,13.5));
#201 = DIRECTION('',(0.,1.,-4.930380657631E-32));
#202 = DIRECTION('',(0.,4.930380657631E-32,1.));
#203 = ADVANCED_FACE('',(#204),#210,.F.);
#204 = FACE_BOUND('',#205,.T.);
#205 = EDGE_LOOP('',(#206,#207,#208,#209));
#206 = ORIENTED_EDGE('',*,*,#81,.T.);
#207 = ORIENTED_EDGE('',*,*,#112,.T.);
#208 = ORIENTED_EDGE('',*,*,#143,.T.);
#209 = ORIENTED_EDGE('',*,*,#174,.T.);
#210 = PLANE('',#211);
#211 = AXIS2_PLACEMENT_3D('',#212,#213,#214);
#212 = CARTESIAN_POINT('',(500.,-148.,13.5));
#213 = DIRECTION('',(0.,1.,-4.930380657631E-32));
#214 = DIRECTION('',(0.,4.930380657631E-32,1.));
#215 = ( GEOMETRIC_REPRESENTATION_CONTEXT(3) 
GLOBAL_UNCERTAINTY_ASSIGNED_CONTEXT((#219)) GLOBAL_UNIT_ASSIGNED_CONTEXT
((#216,#217,#218)) REPRESENTATION_CONTEXT('Context #1',
  '3D Context with UNIT and UNCERTAINTY') );
#216 = ( LENGTH_UNIT() NAMED_UNIT(*) SI_UNIT(.MILLI.,.METRE.) );
#217 = ( NAMED_UNIT(*) PLANE_ANGLE_UNIT() SI_UNIT($,.RADIAN.) );
#218 = ( NAMED_UNIT(*) SI_UNIT($,.STERADIAN.) SOLID_ANGLE_UNIT() );
#219 = UNCERTAINTY_MEASURE_WITH_UNIT(LENGTH_MEASURE(1.E-07),#216,
  'distance_accuracy_value','confusion accuracy');
#220 = CONTEXT_DEPENDENT_SHAPE_REPRESENTATION(#221,#223);
#221 = ( REPRESENTATION_RELATIONSHIP('','',#64,#10) 
REPRESENTATION_RELATIONSHIP_WITH_TRANSFORMATION(#222) 
SHAPE_REPRESENTATION_RELATIONSHIP() );
#222 = ITEM_DEFINED_TRANSFORMATION('','',#11,#15);
#223 = PRODUCT_DEFINITION_SHAPE('Placement','Placement of an item',#224
  );
#224 = NEXT_ASSEMBLY_USAGE_OCCURRENCE('1','balda','',#5,#59,$);
#225 = PRODUCT_RELATED_PRODUCT_CATEGORY('part',$,(#61));
#226 = SHAPE_DEFINITION_REPRESENTATION(#227,#233);
#227 = PRODUCT_DEFINITION_SHAPE('','',#228);
#228 = PRODUCT_DEFINITION('design','',#229,#232);
#229 = PRODUCT_DEFINITION_FORMATION('','',#230);
#230 = PRODUCT('Cuerpo001','Cuerpo001','',(#231));
#231 = PRODUCT_CONTEXT('',#2,'mechanical');
#232 = PRODUCT_DEFINITION_CONTEXT('part definition',#2,'design');
#233 = ADVANCED_BREP_SHAPE_REPRESENTATION('',(#11,#234),#384);
#234 = MANIFOLD_SOLID_BREP('',#235);
#235 = CLOSED_SHELL('',(#236,#276,#307,#338,#360,#372));
#236 = ADVANCED_FACE('',(#237),#271,.F.);
#237 = FACE_BOUND('',#238,.F.);
#238 = EDGE_LOOP('',(#239,#249,#257,#265));
#239 = ORIENTED_EDGE('',*,*,#240,.T.);
#240 = EDGE_CURVE('',#241,#243,#245,.T.);
#241 = VERTEX_POINT('',#242);
#242 = CARTESIAN_POINT('',(-1.86517468137E-13,45.,560.));
#243 = VERTEX_POINT('',#244);
#244 = CARTESIAN_POINT('',(19.,45.,560.));
#245 = LINE('',#246,#247);
#246 = CARTESIAN_POINT('',(-1.86517468137E-13,45.,560.));
#247 = VECTOR('',#248,1.);
#248 = DIRECTION('',(1.,-2.22044604925E-16,1.110223024625E-16));
#249 = ORIENTED_EDGE('',*,*,#250,.T.);
#250 = EDGE_CURVE('',#243,#251,#253,.T.);
#251 = VERTEX_POINT('',#252);
#252 = CARTESIAN_POINT('',(19.,5.795364188543E-14,560.));
#253 = LINE('',#254,#255);
#254 = CARTESIAN_POINT('',(19.,45.,560.));
#255 = VECTOR('',#256,1.);
#256 = DIRECTION('',(2.22044604925E-16,-1.,5.551115123126E-16));
#257 = ORIENTED_EDGE('',*,*,#258,.F.);
#258 = EDGE_CURVE('',#259,#251,#261,.T.);
#259 = VERTEX_POINT('',#260);
#260 = CARTESIAN_POINT('',(-1.86517468137E-13,6.217248937901E-14,560.));
#261 = LINE('',#262,#263);
#262 = CARTESIAN_POINT('',(-1.86517468137E-13,6.217248937901E-14,560.));
#263 = VECTOR('',#264,1.);
#264 = DIRECTION('',(1.,-2.22044604925E-16,1.110223024625E-16));
#265 = ORIENTED_EDGE('',*,*,#266,.F.);
#266 = EDGE_CURVE('',#241,#259,#267,.T.);
#267 = LINE('',#268,#269);
#268 = CARTESIAN_POINT('',(-3.208544541167E-13,45.,560.));
#269 = VECTOR('',#270,1.);
#270 = DIRECTION('',(2.22044604925E-16,-1.,5.551115123126E-16));
#271 = PLANE('',#272);
#272 = AXIS2_PLACEMENT_3D('',#273,#274,#275);
#273 = CARTESIAN_POINT('',(-1.86517468137E-13,45.,560.));
#274 = DIRECTION('',(1.110223024625E-16,-3.330669073875E-16,-1.));
#275 = DIRECTION('',(-2.465190328816E-32,-1.,3.330669073875E-16));
#276 = ADVANCED_FACE('',(#277),#302,.F.);
#277 = FACE_BOUND('',#278,.F.);
#278 = EDGE_LOOP('',(#279,#280,#288,#296));
#279 = ORIENTED_EDGE('',*,*,#258,.T.);
#280 = ORIENTED_EDGE('',*,*,#281,.T.);
#281 = EDGE_CURVE('',#251,#282,#284,.T.);
#282 = VERTEX_POINT('',#283);
#283 = CARTESIAN_POINT('',(19.,-4.218847493576E-15,2.109423746788E-15));
#284 = LINE('',#285,#286);
#285 = CARTESIAN_POINT('',(19.,-6.639133687258E-14,560.));
#286 = VECTOR('',#287,1.);
#287 = DIRECTION('',(5.551115123126E-16,1.110223024625E-16,-1.));
#288 = ORIENTED_EDGE('',*,*,#289,.F.);
#289 = EDGE_CURVE('',#290,#282,#292,.T.);
#290 = VERTEX_POINT('',#291);
#291 = CARTESIAN_POINT('',(0.,0.,0.));
#292 = LINE('',#293,#294);
#293 = CARTESIAN_POINT('',(0.,0.,0.));
#294 = VECTOR('',#295,1.);
#295 = DIRECTION('',(1.,-2.22044604925E-16,1.110223024625E-16));
#296 = ORIENTED_EDGE('',*,*,#297,.F.);
#297 = EDGE_CURVE('',#259,#290,#298,.T.);
#298 = LINE('',#299,#300);
#299 = CARTESIAN_POINT('',(-3.10862446895E-13,-6.217248937901E-14,560.)
  );
#300 = VECTOR('',#301,1.);
#301 = DIRECTION('',(5.551115123126E-16,1.110223024625E-16,-1.));
#302 = PLANE('',#303);
#303 = AXIS2_PLACEMENT_3D('',#304,#305,#306);
#304 = CARTESIAN_POINT('',(-1.86517468137E-13,6.217248937901E-14,560.));
#305 = DIRECTION('',(2.22044604925E-16,1.,-1.110223024625E-16));
#306 = DIRECTION('',(3.330669073875E-16,-1.110223024625E-16,-1.));
#307 = ADVANCED_FACE('',(#308),#333,.F.);
#308 = FACE_BOUND('',#309,.F.);
#309 = EDGE_LOOP('',(#310,#311,#319,#327));
#310 = ORIENTED_EDGE('',*,*,#289,.T.);
#311 = ORIENTED_EDGE('',*,*,#312,.T.);
#312 = EDGE_CURVE('',#282,#313,#315,.T.);
#313 = VERTEX_POINT('',#314);
#314 = CARTESIAN_POINT('',(19.,45.,-1.287858708565E-14));
#315 = LINE('',#316,#317);
#316 = CARTESIAN_POINT('',(19.,-4.218847493576E-15,-1.06581410364E-14));
#317 = VECTOR('',#318,1.);
#318 = DIRECTION('',(-2.22044604925E-16,1.,-5.551115123126E-16));
#319 = ORIENTED_EDGE('',*,*,#320,.F.);
#320 = EDGE_CURVE('',#321,#313,#323,.T.);
#321 = VERTEX_POINT('',#322);
#322 = CARTESIAN_POINT('',(7.88860905221E-31,45.,-1.498801083244E-14));
#323 = LINE('',#324,#325);
#324 = CARTESIAN_POINT('',(1.109335647967E-30,45.,-1.498801083244E-14));
#325 = VECTOR('',#326,1.);
#326 = DIRECTION('',(1.,-2.22044604925E-16,1.110223024625E-16));
#327 = ORIENTED_EDGE('',*,*,#328,.F.);
#328 = EDGE_CURVE('',#290,#321,#329,.T.);
#329 = LINE('',#330,#331);
#330 = CARTESIAN_POINT('',(0.,0.,0.));
#331 = VECTOR('',#332,1.);
#332 = DIRECTION('',(-2.22044604925E-16,1.,-5.551115123126E-16));
#333 = PLANE('',#334);
#334 = AXIS2_PLACEMENT_3D('',#335,#336,#337);
#335 = CARTESIAN_POINT('',(0.,0.,0.));
#336 = DIRECTION('',(-1.110223024625E-16,3.330669073875E-16,1.));
#337 = DIRECTION('',(2.465190328816E-32,1.,-3.330669073875E-16));
#338 = ADVANCED_FACE('',(#339),#355,.F.);
#339 = FACE_BOUND('',#340,.F.);
#340 = EDGE_LOOP('',(#341,#342,#348,#349));
#341 = ORIENTED_EDGE('',*,*,#320,.T.);
#342 = ORIENTED_EDGE('',*,*,#343,.T.);
#343 = EDGE_CURVE('',#313,#243,#344,.T.);
#344 = LINE('',#345,#346);
#345 = CARTESIAN_POINT('',(19.,45.,-3.552713678801E-14));
#346 = VECTOR('',#347,1.);
#347 = DIRECTION('',(-5.551115123126E-16,-1.110223024625E-16,1.));
#348 = ORIENTED_EDGE('',*,*,#240,.F.);
#349 = ORIENTED_EDGE('',*,*,#350,.F.);
#350 = EDGE_CURVE('',#321,#241,#351,.T.);
#351 = LINE('',#352,#353);
#352 = CARTESIAN_POINT('',(-9.992007221626E-15,45.,-2.498001805407E-14)
  );
#353 = VECTOR('',#354,1.);
#354 = DIRECTION('',(-5.551115123126E-16,-1.110223024625E-16,1.));
#355 = PLANE('',#356);
#356 = AXIS2_PLACEMENT_3D('',#357,#358,#359);
#357 = CARTESIAN_POINT('',(1.109335647967E-30,45.,-1.498801083244E-14));
#358 = DIRECTION('',(-2.22044604925E-16,-1.,1.110223024625E-16));
#359 = DIRECTION('',(-3.330669073875E-16,1.110223024625E-16,1.));
#360 = ADVANCED_FACE('',(#361),#367,.F.);
#361 = FACE_BOUND('',#362,.F.);
#362 = EDGE_LOOP('',(#363,#364,#365,#366));
#363 = ORIENTED_EDGE('',*,*,#266,.T.);
#364 = ORIENTED_EDGE('',*,*,#297,.T.);
#365 = ORIENTED_EDGE('',*,*,#328,.T.);
#366 = ORIENTED_EDGE('',*,*,#350,.T.);
#367 = PLANE('',#368);
#368 = AXIS2_PLACEMENT_3D('',#369,#370,#371);
#369 = CARTESIAN_POINT('',(-1.604272270583E-13,22.5,280.));
#370 = DIRECTION('',(1.,-4.440892098501E-16,-1.110223024625E-16));
#371 = DIRECTION('',(-5.551115123126E-16,-1.110223024625E-16,1.));
#372 = ADVANCED_FACE('',(#373),#379,.T.);
#373 = FACE_BOUND('',#374,.T.);
#374 = EDGE_LOOP('',(#375,#376,#377,#378));
#375 = ORIENTED_EDGE('',*,*,#250,.T.);
#376 = ORIENTED_EDGE('',*,*,#281,.T.);
#377 = ORIENTED_EDGE('',*,*,#312,.T.);
#378 = ORIENTED_EDGE('',*,*,#343,.T.);
#379 = PLANE('',#380);
#380 = AXIS2_PLACEMENT_3D('',#381,#382,#383);
#381 = CARTESIAN_POINT('',(19.,22.5,280.));
#382 = DIRECTION('',(1.,-4.440892098501E-16,-1.110223024625E-16));
#383 = DIRECTION('',(-5.551115123126E-16,-1.110223024625E-16,1.));
#384 = ( GEOMETRIC_REPRESENTATION_CONTEXT(3) 
GLOBAL_UNCERTAINTY_ASSIGNED_CONTEXT((#388)) GLOBAL_UNIT_ASSIGNED_CONTEXT
((#385,#386,#387)) REPRESENTATION_CONTEXT('Context #1',
  '3D Context with UNIT and UNCERTAINTY') );
#385 = ( LENGTH_UNIT() NAMED_UNIT(*) SI_UNIT(.MILLI.,.METRE.) );
#386 = ( NAMED_UNIT(*) PLANE_ANGLE_UNIT() SI_UNIT($,.RADIAN.) );
#387 = ( NAMED_UNIT(*) SI_UNIT($,.STERADIAN.) SOLID_ANGLE_UNIT() );
#388 = UNCERTAINTY_MEASURE_WITH_UNIT(LENGTH_MEASURE(1.E-07),#385,
  'distance_accuracy_value','confusion accuracy');
#389 = CONTEXT_DEPENDENT_SHAPE_REPRESENTATION(#390,#392);
#390 = ( REPRESENTATION_RELATIONSHIP('','',#233,#10) 
REPRESENTATION_RELATIONSHIP_WITH_TRANSFORMATION(#391) 
SHAPE_REPRESENTATION_RELATIONSHIP() );
#391 = ITEM_DEFINED_TRANSFORMATION('','',#11,#19);
#392 = PRODUCT_DEFINITION_SHAPE('Placement','Placement of an item',#393
  );
#393 = NEXT_ASSEMBLY_USAGE_OCCURRENCE('2','Cuerpo001','',#5,#228,$);
#394 = PRODUCT_RELATED_PRODUCT_CATEGORY('part',$,(#230));
#395 = SHAPE_DEFINITION_REPRESENTATION(#396,#402);
#396 = PRODUCT_DEFINITION_SHAPE('','',#397);
#397 = PRODUCT_DEFINITION('design','',#398,#401);
#398 = PRODUCT_DEFINITION_FORMATION('','',#399);
#399 = PRODUCT('balda001','balda001','',(#400));
#400 = PRODUCT_CONTEXT('',#2,'mechanical');
#401 = PRODUCT_DEFINITION_CONTEXT('part definition',#2,'design');
#402 = ADVANCED_BREP_SHAPE_REPRESENTATION('',(#11,#403),#553);
#403 = MANIFOLD_SOLID_BREP('',#404);
#404 = CLOSED_SHELL('',(#405,#445,#476,#507,#529,#541));
#405 = ADVANCED_FACE('',(#406),#440,.F.);
#406 = FACE_BOUND('',#407,.F.);
#407 = EDGE_LOOP('',(#408,#418,#426,#434));
#408 = ORIENTED_EDGE('',*,*,#409,.T.);
#409 = EDGE_CURVE('',#410,#412,#414,.T.);
#410 = VERTEX_POINT('',#411);
#411 = CARTESIAN_POINT('',(0.,5.995204332976E-15,27.));
#412 = VERTEX_POINT('',#413);
#413 = CARTESIAN_POINT('',(0.,-148.,27.));
#414 = LINE('',#415,#416);
#415 = CARTESIAN_POINT('',(0.,5.995204332976E-15,27.));
#416 = VECTOR('',#417,1.);
#417 = DIRECTION('',(0.,-1.,2.22044604925E-16));
#418 = ORIENTED_EDGE('',*,*,#419,.T.);
#419 = EDGE_CURVE('',#412,#420,#422,.T.);
#420 = VERTEX_POINT('',#421);
#421 = CARTESIAN_POINT('',(0.,-148.,3.28626015289E-14));
#422 = LINE('',#423,#424);
#423 = CARTESIAN_POINT('',(0.,-148.,27.));
#424 = VECTOR('',#425,1.);
#425 = DIRECTION('',(0.,-2.22044604925E-16,-1.));
#426 = ORIENTED_EDGE('',*,*,#427,.F.);
#427 = EDGE_CURVE('',#428,#420,#430,.T.);
#428 = VERTEX_POINT('',#429);
#429 = CARTESIAN_POINT('',(0.,0.,0.));
#430 = LINE('',#431,#432);
#431 = CARTESIAN_POINT('',(0.,0.,0.));
#432 = VECTOR('',#433,1.);
#433 = DIRECTION('',(0.,-1.,2.22044604925E-16));
#434 = ORIENTED_EDGE('',*,*,#435,.F.);
#435 = EDGE_CURVE('',#410,#428,#436,.T.);
#436 = LINE('',#437,#438);
#437 = CARTESIAN_POINT('',(0.,5.995204332976E-15,27.));
#438 = VECTOR('',#439,1.);
#439 = DIRECTION('',(0.,-2.22044604925E-16,-1.));
#440 = PLANE('',#441);
#441 = AXIS2_PLACEMENT_3D('',#442,#443,#444);
#442 = CARTESIAN_POINT('',(0.,5.995204332976E-15,27.));
#443 = DIRECTION('',(1.,0.,0.));
#444 = DIRECTION('',(0.,-2.22044604925E-16,-1.));
#445 = ADVANCED_FACE('',(#446),#471,.F.);
#446 = FACE_BOUND('',#447,.F.);
#447 = EDGE_LOOP('',(#448,#449,#457,#465));
#448 = ORIENTED_EDGE('',*,*,#427,.T.);
#449 = ORIENTED_EDGE('',*,*,#450,.T.);
#450 = EDGE_CURVE('',#420,#451,#453,.T.);
#451 = VERTEX_POINT('',#452);
#452 = CARTESIAN_POINT('',(1.E+03,-148.,3.28626015289E-14));
#453 = LINE('',#454,#455);
#454 = CARTESIAN_POINT('',(0.,-148.,2.84217094304E-14));
#455 = VECTOR('',#456,1.);
#456 = DIRECTION('',(1.,0.,0.));
#457 = ORIENTED_EDGE('',*,*,#458,.F.);
#458 = EDGE_CURVE('',#459,#451,#461,.T.);
#459 = VERTEX_POINT('',#460);
#460 = CARTESIAN_POINT('',(1.E+03,0.,0.));
#461 = LINE('',#462,#463);
#462 = CARTESIAN_POINT('',(1.E+03,0.,0.));
#463 = VECTOR('',#464,1.);
#464 = DIRECTION('',(0.,-1.,2.22044604925E-16));
#465 = ORIENTED_EDGE('',*,*,#466,.F.);
#466 = EDGE_CURVE('',#428,#459,#467,.T.);
#467 = LINE('',#468,#469);
#468 = CARTESIAN_POINT('',(0.,0.,0.));
#469 = VECTOR('',#470,1.);
#470 = DIRECTION('',(1.,0.,0.));
#471 = PLANE('',#472);
#472 = AXIS2_PLACEMENT_3D('',#473,#474,#475);
#473 = CARTESIAN_POINT('',(0.,0.,0.));
#474 = DIRECTION('',(0.,2.22044604925E-16,1.));
#475 = DIRECTION('',(1.,0.,0.));
#476 = ADVANCED_FACE('',(#477),#502,.F.);
#477 = FACE_BOUND('',#478,.F.);
#478 = EDGE_LOOP('',(#479,#480,#488,#496));
#479 = ORIENTED_EDGE('',*,*,#458,.T.);
#480 = ORIENTED_EDGE('',*,*,#481,.T.);
#481 = EDGE_CURVE('',#451,#482,#484,.T.);
#482 = VERTEX_POINT('',#483);
#483 = CARTESIAN_POINT('',(1.E+03,-148.,27.));
#484 = LINE('',#485,#486);
#485 = CARTESIAN_POINT('',(1.E+03,-148.,2.84217094304E-14));
#486 = VECTOR('',#487,1.);
#487 = DIRECTION('',(0.,2.22044604925E-16,1.));
#488 = ORIENTED_EDGE('',*,*,#489,.F.);
#489 = EDGE_CURVE('',#490,#482,#492,.T.);
#490 = VERTEX_POINT('',#491);
#491 = CARTESIAN_POINT('',(1.E+03,5.995204332976E-15,27.));
#492 = LINE('',#493,#494);
#493 = CARTESIAN_POINT('',(1.E+03,5.995204332976E-15,27.));
#494 = VECTOR('',#495,1.);
#495 = DIRECTION('',(0.,-1.,2.22044604925E-16));
#496 = ORIENTED_EDGE('',*,*,#497,.F.);
#497 = EDGE_CURVE('',#459,#490,#498,.T.);
#498 = LINE('',#499,#500);
#499 = CARTESIAN_POINT('',(1.E+03,0.,0.));
#500 = VECTOR('',#501,1.);
#501 = DIRECTION('',(0.,2.22044604925E-16,1.));
#502 = PLANE('',#503);
#503 = AXIS2_PLACEMENT_3D('',#504,#505,#506);
#504 = CARTESIAN_POINT('',(1.E+03,0.,0.));
#505 = DIRECTION('',(-1.,-0.,0.));
#506 = DIRECTION('',(0.,2.22044604925E-16,1.));
#507 = ADVANCED_FACE('',(#508),#524,.F.);
#508 = FACE_BOUND('',#509,.F.);
#509 = EDGE_LOOP('',(#510,#511,#517,#518));
#510 = ORIENTED_EDGE('',*,*,#489,.T.);
#511 = ORIENTED_EDGE('',*,*,#512,.T.);
#512 = EDGE_CURVE('',#482,#412,#513,.T.);
#513 = LINE('',#514,#515);
#514 = CARTESIAN_POINT('',(1.E+03,-148.,27.));
#515 = VECTOR('',#516,1.);
#516 = DIRECTION('',(-1.,0.,0.));
#517 = ORIENTED_EDGE('',*,*,#409,.F.);
#518 = ORIENTED_EDGE('',*,*,#519,.F.);
#519 = EDGE_CURVE('',#490,#410,#520,.T.);
#520 = LINE('',#521,#522);
#521 = CARTESIAN_POINT('',(1.E+03,5.995204332976E-15,27.));
#522 = VECTOR('',#523,1.);
#523 = DIRECTION('',(-1.,0.,0.));
#524 = PLANE('',#525);
#525 = AXIS2_PLACEMENT_3D('',#526,#527,#528);
#526 = CARTESIAN_POINT('',(1.E+03,5.995204332976E-15,27.));
#527 = DIRECTION('',(0.,-2.22044604925E-16,-1.));
#528 = DIRECTION('',(-1.,-0.,0.));
#529 = ADVANCED_FACE('',(#530),#536,.T.);
#530 = FACE_BOUND('',#531,.F.);
#531 = EDGE_LOOP('',(#532,#533,#534,#535));
#532 = ORIENTED_EDGE('',*,*,#435,.T.);
#533 = ORIENTED_EDGE('',*,*,#466,.T.);
#534 = ORIENTED_EDGE('',*,*,#497,.T.);
#535 = ORIENTED_EDGE('',*,*,#519,.T.);
#536 = PLANE('',#537);
#537 = AXIS2_PLACEMENT_3D('',#538,#539,#540);
#538 = CARTESIAN_POINT('',(500.,2.997602166488E-15,13.5));
#539 = DIRECTION('',(0.,1.,0.));
#540 = DIRECTION('',(0.,0.,1.));
#541 = ADVANCED_FACE('',(#542),#548,.F.);
#542 = FACE_BOUND('',#543,.T.);
#543 = EDGE_LOOP('',(#544,#545,#546,#547));
#544 = ORIENTED_EDGE('',*,*,#419,.T.);
#545 = ORIENTED_EDGE('',*,*,#450,.T.);
#546 = ORIENTED_EDGE('',*,*,#481,.T.);
#547 = ORIENTED_EDGE('',*,*,#512,.T.);
#548 = PLANE('',#549);
#549 = AXIS2_PLACEMENT_3D('',#550,#551,#552);
#550 = CARTESIAN_POINT('',(500.,-148.,13.5));
#551 = DIRECTION('',(0.,1.,0.));
#552 = DIRECTION('',(0.,0.,1.));
#553 = ( GEOMETRIC_REPRESENTATION_CONTEXT(3) 
GLOBAL_UNCERTAINTY_ASSIGNED_CONTEXT((#557)) GLOBAL_UNIT_ASSIGNED_CONTEXT
((#554,#555,#556)) REPRESENTATION_CONTEXT('Context #1',
  '3D Context with UNIT and UNCERTAINTY') );
#554 = ( LENGTH_UNIT() NAMED_UNIT(*) SI_UNIT(.MILLI.,.METRE.) );
#555 = ( NAMED_UNIT(*) PLANE_ANGLE_UNIT() SI_UNIT($,.RADIAN.) );
#556 = ( NAMED_UNIT(*) SI_UNIT($,.STERADIAN.) SOLID_ANGLE_UNIT() );
#557 = UNCERTAINTY_MEASURE_WITH_UNIT(LENGTH_MEASURE(1.E-07),#554,
  'distance_accuracy_value','confusion accuracy');
#558 = CONTEXT_DEPENDENT_SHAPE_REPRESENTATION(#559,#561);
#559 = ( REPRESENTATION_RELATIONSHIP('','',#402,#10) 
REPRESENTATION_RELATIONSHIP_WITH_TRANSFORMATION(#560) 
SHAPE_REPRESENTATION_RELATIONSHIP() );
#560 = ITEM_DEFINED_TRANSFORMATION('','',#11,#23);
#561 = PRODUCT_DEFINITION_SHAPE('Placement','Placement of an item',#562
  );
#562 = NEXT_ASSEMBLY_USAGE_OCCURRENCE('3','balda001','',#5,#397,$);
#563 = PRODUCT_RELATED_PRODUCT_CATEGORY('part',$,(#399));
#564 = SHAPE_DEFINITION_REPRESENTATION(#565,#571);
#565 = PRODUCT_DEFINITION_SHAPE('','',#566);
#566 = PRODUCT_DEFINITION('design','',#567,#570);
#567 = PRODUCT_DEFINITION_FORMATION('','',#568);
#568 = PRODUCT('balda002','balda002','',(#569));
#569 = PRODUCT_CONTEXT('',#2,'mechanical');
#570 = PRODUCT_DEFINITION_CONTEXT('part definition',#2,'design');
#571 = ADVANCED_BREP_SHAPE_REPRESENTATION('',(#11,#572),#722);
#572 = MANIFOLD_SOLID_BREP('',#573);
#573 = CLOSED_SHELL('',(#574,#614,#645,#676,#698,#710));
#574 = ADVANCED_FACE('',(#575),#609,.F.);
#575 = FACE_BOUND('',#576,.F.);
#576 = EDGE_LOOP('',(#577,#587,#595,#603));
#577 = ORIENTED_EDGE('',*,*,#578,.T.);
#578 = EDGE_CURVE('',#579,#581,#583,.T.);
#579 = VERTEX_POINT('',#580);
#580 = CARTESIAN_POINT('',(0.,5.995204332976E-15,27.));
#581 = VERTEX_POINT('',#582);
#582 = CARTESIAN_POINT('',(0.,-148.,27.));
#583 = LINE('',#584,#585);
#584 = CARTESIAN_POINT('',(0.,5.995204332976E-15,27.));
#585 = VECTOR('',#586,1.);
#586 = DIRECTION('',(0.,-1.,2.22044604925E-16));
#587 = ORIENTED_EDGE('',*,*,#588,.T.);
#588 = EDGE_CURVE('',#581,#589,#591,.T.);
#589 = VERTEX_POINT('',#590);
#590 = CARTESIAN_POINT('',(0.,-148.,3.28626015289E-14));
#591 = LINE('',#592,#593);
#592 = CARTESIAN_POINT('',(0.,-148.,27.));
#593 = VECTOR('',#594,1.);
#594 = DIRECTION('',(0.,-2.22044604925E-16,-1.));
#595 = ORIENTED_EDGE('',*,*,#596,.F.);
#596 = EDGE_CURVE('',#597,#589,#599,.T.);
#597 = VERTEX_POINT('',#598);
#598 = CARTESIAN_POINT('',(0.,0.,0.));
#599 = LINE('',#600,#601);
#600 = CARTESIAN_POINT('',(0.,0.,0.));
#601 = VECTOR('',#602,1.);
#602 = DIRECTION('',(0.,-1.,2.22044604925E-16));
#603 = ORIENTED_EDGE('',*,*,#604,.F.);
#604 = EDGE_CURVE('',#579,#597,#605,.T.);
#605 = LINE('',#606,#607);
#606 = CARTESIAN_POINT('',(0.,5.995204332976E-15,27.));
#607 = VECTOR('',#608,1.);
#608 = DIRECTION('',(0.,-2.22044604925E-16,-1.));
#609 = PLANE('',#610);
#610 = AXIS2_PLACEMENT_3D('',#611,#612,#613);
#611 = CARTESIAN_POINT('',(0.,5.995204332976E-15,27.));
#612 = DIRECTION('',(1.,0.,0.));
#613 = DIRECTION('',(0.,-2.22044604925E-16,-1.));
#614 = ADVANCED_FACE('',(#615),#640,.F.);
#615 = FACE_BOUND('',#616,.F.);
#616 = EDGE_LOOP('',(#617,#618,#626,#634));
#617 = ORIENTED_EDGE('',*,*,#596,.T.);
#618 = ORIENTED_EDGE('',*,*,#619,.T.);
#619 = EDGE_CURVE('',#589,#620,#622,.T.);
#620 = VERTEX_POINT('',#621);
#621 = CARTESIAN_POINT('',(1.E+03,-148.,3.28626015289E-14));
#622 = LINE('',#623,#624);
#623 = CARTESIAN_POINT('',(0.,-148.,2.84217094304E-14));
#624 = VECTOR('',#625,1.);
#625 = DIRECTION('',(1.,0.,0.));
#626 = ORIENTED_EDGE('',*,*,#627,.F.);
#627 = EDGE_CURVE('',#628,#620,#630,.T.);
#628 = VERTEX_POINT('',#629);
#629 = CARTESIAN_POINT('',(1.E+03,0.,0.));
#630 = LINE('',#631,#632);
#631 = CARTESIAN_POINT('',(1.E+03,0.,0.));
#632 = VECTOR('',#633,1.);
#633 = DIRECTION('',(0.,-1.,2.22044604925E-16));
#634 = ORIENTED_EDGE('',*,*,#635,.F.);
#635 = EDGE_CURVE('',#597,#628,#636,.T.);
#636 = LINE('',#637,#638);
#637 = CARTESIAN_POINT('',(0.,0.,0.));
#638 = VECTOR('',#639,1.);
#639 = DIRECTION('',(1.,0.,0.));
#640 = PLANE('',#641);
#641 = AXIS2_PLACEMENT_3D('',#642,#643,#644);
#642 = CARTESIAN_POINT('',(0.,0.,0.));
#643 = DIRECTION('',(0.,2.22044604925E-16,1.));
#644 = DIRECTION('',(1.,0.,0.));
#645 = ADVANCED_FACE('',(#646),#671,.F.);
#646 = FACE_BOUND('',#647,.F.);
#647 = EDGE_LOOP('',(#648,#649,#657,#665));
#648 = ORIENTED_EDGE('',*,*,#627,.T.);
#649 = ORIENTED_EDGE('',*,*,#650,.T.);
#650 = EDGE_CURVE('',#620,#651,#653,.T.);
#651 = VERTEX_POINT('',#652);
#652 = CARTESIAN_POINT('',(1.E+03,-148.,27.));
#653 = LINE('',#654,#655);
#654 = CARTESIAN_POINT('',(1.E+03,-148.,2.84217094304E-14));
#655 = VECTOR('',#656,1.);
#656 = DIRECTION('',(0.,2.22044604925E-16,1.));
#657 = ORIENTED_EDGE('',*,*,#658,.F.);
#658 = EDGE_CURVE('',#659,#651,#661,.T.);
#659 = VERTEX_POINT('',#660);
#660 = CARTESIAN_POINT('',(1.E+03,5.995204332976E-15,27.));
#661 = LINE('',#662,#663);
#662 = CARTESIAN_POINT('',(1.E+03,5.995204332976E-15,27.));
#663 = VECTOR('',#664,1.);
#664 = DIRECTION('',(0.,-1.,2.22044604925E-16));
#665 = ORIENTED_EDGE('',*,*,#666,.F.);
#666 = EDGE_CURVE('',#628,#659,#667,.T.);
#667 = LINE('',#668,#669);
#668 = CARTESIAN_POINT('',(1.E+03,0.,0.));
#669 = VECTOR('',#670,1.);
#670 = DIRECTION('',(0.,2.22044604925E-16,1.));
#671 = PLANE('',#672);
#672 = AXIS2_PLACEMENT_3D('',#673,#674,#675);
#673 = CARTESIAN_POINT('',(1.E+03,0.,0.));
#674 = DIRECTION('',(-1.,-0.,0.));
#675 = DIRECTION('',(0.,2.22044604925E-16,1.));
#676 = ADVANCED_FACE('',(#677),#693,.F.);
#677 = FACE_BOUND('',#678,.F.);
#678 = EDGE_LOOP('',(#679,#680,#686,#687));
#679 = ORIENTED_EDGE('',*,*,#658,.T.);
#680 = ORIENTED_EDGE('',*,*,#681,.T.);
#681 = EDGE_CURVE('',#651,#581,#682,.T.);
#682 = LINE('',#683,#684);
#683 = CARTESIAN_POINT('',(1.E+03,-148.,27.));
#684 = VECTOR('',#685,1.);
#685 = DIRECTION('',(-1.,0.,0.));
#686 = ORIENTED_EDGE('',*,*,#578,.F.);
#687 = ORIENTED_EDGE('',*,*,#688,.F.);
#688 = EDGE_CURVE('',#659,#579,#689,.T.);
#689 = LINE('',#690,#691);
#690 = CARTESIAN_POINT('',(1.E+03,5.995204332976E-15,27.));
#691 = VECTOR('',#692,1.);
#692 = DIRECTION('',(-1.,0.,0.));
#693 = PLANE('',#694);
#694 = AXIS2_PLACEMENT_3D('',#695,#696,#697);
#695 = CARTESIAN_POINT('',(1.E+03,5.995204332976E-15,27.));
#696 = DIRECTION('',(0.,-2.22044604925E-16,-1.));
#697 = DIRECTION('',(-1.,-0.,0.));
#698 = ADVANCED_FACE('',(#699),#705,.T.);
#699 = FACE_BOUND('',#700,.F.);
#700 = EDGE_LOOP('',(#701,#702,#703,#704));
#701 = ORIENTED_EDGE('',*,*,#604,.T.);
#702 = ORIENTED_EDGE('',*,*,#635,.T.);
#703 = ORIENTED_EDGE('',*,*,#666,.T.);
#704 = ORIENTED_EDGE('',*,*,#688,.T.);
#705 = PLANE('',#706);
#706 = AXIS2_PLACEMENT_3D('',#707,#708,#709);
#707 = CARTESIAN_POINT('',(500.,2.997602166488E-15,13.5));
#708 = DIRECTION('',(0.,1.,0.));
#709 = DIRECTION('',(0.,0.,1.));
#710 = ADVANCED_FACE('',(#711),#717,.F.);
#711 = FACE_BOUND('',#712,.T.);
#712 = EDGE_LOOP('',(#713,#714,#715,#716));
#713 = ORIENTED_EDGE('',*,*,#588,.T.);
#714 = ORIENTED_EDGE('',*,*,#619,.T.);
#715 = ORIENTED_EDGE('',*,*,#650,.T.);
#716 = ORIENTED_EDGE('',*,*,#681,.T.);
#717 = PLANE('',#718);
#718 = AXIS2_PLACEMENT_3D('',#719,#720,#721);
#719 = CARTESIAN_POINT('',(500.,-148.,13.5));
#720 = DIRECTION('',(0.,1.,0.));
#721 = DIRECTION('',(0.,0.,1.));
#722 = ( GEOMETRIC_REPRESENTATION_CONTEXT(3) 
GLOBAL_UNCERTAINTY_ASSIGNED_CONTEXT((#726)) GLOBAL_UNIT_ASSIGNED_CONTEXT
((#723,#724,#725)) REPRESENTATION_CONTEXT('Context #1',
  '3D Context with UNIT and UNCERTAINTY') );
#723 = ( LENGTH_UNIT() NAMED_UNIT(*) SI_UNIT(.MILLI.,.METRE.) );
#724 = ( NAMED_UNIT(*) PLANE_ANGLE_UNIT() SI_UNIT($,.RADIAN.) );
#725 = ( NAMED_UNIT(*) SI_UNIT($,.STERADIAN.) SOLID_ANGLE_UNIT() );
#726 = UNCERTAINTY_MEASURE_WITH_UNIT(LENGTH_MEASURE(1.E-07),#723,
  'distance_accuracy_value','confusion accuracy');
#727 = CONTEXT_DEPENDENT_SHAPE_REPRESENTATION(#728,#730);
#728 = ( REPRESENTATION_RELATIONSHIP('','',#571,#10) 
REPRESENTATION_RELATIONSHIP_WITH_TRANSFORMATION(#729) 
SHAPE_REPRESENTATION_RELATIONSHIP() );
#729 = ITEM_DEFINED_TRANSFORMATION('','',#11,#27);
#730 = PRODUCT_DEFINITION_SHAPE('Placement','Placement of an item',#731
  );
#731 = NEXT_ASSEMBLY_USAGE_OCCURRENCE('4','balda002','',#5,#566,$);
#732 = PRODUCT_RELATED_PRODUCT_CATEGORY('part',$,(#568));
#733 = SHAPE_DEFINITION_REPRESENTATION(#734,#740);
#734 = PRODUCT_DEFINITION_SHAPE('','',#735);
#735 = PRODUCT_DEFINITION('design','',#736,#739);
#736 = PRODUCT_DEFINITION_FORMATION('','',#737);
#737 = PRODUCT('balda005','balda005','',(#738));
#738 = PRODUCT_CONTEXT('',#2,'mechanical');
#739 = PRODUCT_DEFINITION_CONTEXT('part definition',#2,'design');
#740 = ADVANCED_BREP_SHAPE_REPRESENTATION('',(#11,#741),#891);
#741 = MANIFOLD_SOLID_BREP('',#742);
#742 = CLOSED_SHELL('',(#743,#783,#814,#845,#867,#879));
#743 = ADVANCED_FACE('',(#744),#778,.F.);
#744 = FACE_BOUND('',#745,.F.);
#745 = EDGE_LOOP('',(#746,#756,#764,#772));
#746 = ORIENTED_EDGE('',*,*,#747,.T.);
#747 = EDGE_CURVE('',#748,#750,#752,.T.);
#748 = VERTEX_POINT('',#749);
#749 = CARTESIAN_POINT('',(0.,5.995204332976E-15,27.));
#750 = VERTEX_POINT('',#751);
#751 = CARTESIAN_POINT('',(0.,-148.,27.));
#752 = LINE('',#753,#754);
#753 = CARTESIAN_POINT('',(0.,5.995204332976E-15,27.));
#754 = VECTOR('',#755,1.);
#755 = DIRECTION('',(0.,-1.,2.22044604925E-16));
#756 = ORIENTED_EDGE('',*,*,#757,.T.);
#757 = EDGE_CURVE('',#750,#758,#760,.T.);
#758 = VERTEX_POINT('',#759);
#759 = CARTESIAN_POINT('',(0.,-148.,3.28626015289E-14));
#760 = LINE('',#761,#762);
#761 = CARTESIAN_POINT('',(0.,-148.,27.));
#762 = VECTOR('',#763,1.);
#763 = DIRECTION('',(0.,-2.22044604925E-16,-1.));
#764 = ORIENTED_EDGE('',*,*,#765,.F.);
#765 = EDGE_CURVE('',#766,#758,#768,.T.);
#766 = VERTEX_POINT('',#767);
#767 = CARTESIAN_POINT('',(0.,0.,0.));
#768 = LINE('',#769,#770);
#769 = CARTESIAN_POINT('',(0.,0.,0.));
#770 = VECTOR('',#771,1.);
#771 = DIRECTION('',(0.,-1.,2.22044604925E-16));
#772 = ORIENTED_EDGE('',*,*,#773,.F.);
#773 = EDGE_CURVE('',#748,#766,#774,.T.);
#774 = LINE('',#775,#776);
#775 = CARTESIAN_POINT('',(0.,5.995204332976E-15,27.));
#776 = VECTOR('',#777,1.);
#777 = DIRECTION('',(0.,-2.22044604925E-16,-1.));
#778 = PLANE('',#779);
#779 = AXIS2_PLACEMENT_3D('',#780,#781,#782);
#780 = CARTESIAN_POINT('',(0.,5.995204332976E-15,27.));
#781 = DIRECTION('',(1.,0.,0.));
#782 = DIRECTION('',(0.,-2.22044604925E-16,-1.));
#783 = ADVANCED_FACE('',(#784),#809,.F.);
#784 = FACE_BOUND('',#785,.F.);
#785 = EDGE_LOOP('',(#786,#787,#795,#803));
#786 = ORIENTED_EDGE('',*,*,#765,.T.);
#787 = ORIENTED_EDGE('',*,*,#788,.T.);
#788 = EDGE_CURVE('',#758,#789,#791,.T.);
#789 = VERTEX_POINT('',#790);
#790 = CARTESIAN_POINT('',(1.E+03,-148.,3.28626015289E-14));
#791 = LINE('',#792,#793);
#792 = CARTESIAN_POINT('',(0.,-148.,2.84217094304E-14));
#793 = VECTOR('',#794,1.);
#794 = DIRECTION('',(1.,0.,0.));
#795 = ORIENTED_EDGE('',*,*,#796,.F.);
#796 = EDGE_CURVE('',#797,#789,#799,.T.);
#797 = VERTEX_POINT('',#798);
#798 = CARTESIAN_POINT('',(1.E+03,0.,0.));
#799 = LINE('',#800,#801);
#800 = CARTESIAN_POINT('',(1.E+03,0.,0.));
#801 = VECTOR('',#802,1.);
#802 = DIRECTION('',(0.,-1.,2.22044604925E-16));
#803 = ORIENTED_EDGE('',*,*,#804,.F.);
#804 = EDGE_CURVE('',#766,#797,#805,.T.);
#805 = LINE('',#806,#807);
#806 = CARTESIAN_POINT('',(0.,0.,0.));
#807 = VECTOR('',#808,1.);
#808 = DIRECTION('',(1.,0.,0.));
#809 = PLANE('',#810);
#810 = AXIS2_PLACEMENT_3D('',#811,#812,#813);
#811 = CARTESIAN_POINT('',(0.,0.,0.));
#812 = DIRECTION('',(0.,2.22044604925E-16,1.));
#813 = DIRECTION('',(1.,0.,0.));
#814 = ADVANCED_FACE('',(#815),#840,.F.);
#815 = FACE_BOUND('',#816,.F.);
#816 = EDGE_LOOP('',(#817,#818,#826,#834));
#817 = ORIENTED_EDGE('',*,*,#796,.T.);
#818 = ORIENTED_EDGE('',*,*,#819,.T.);
#819 = EDGE_CURVE('',#789,#820,#822,.T.);
#820 = VERTEX_POINT('',#821);
#821 = CARTESIAN_POINT('',(1.E+03,-148.,27.));
#822 = LINE('',#823,#824);
#823 = CARTESIAN_POINT('',(1.E+03,-148.,2.84217094304E-14));
#824 = VECTOR('',#825,1.);
#825 = DIRECTION('',(0.,2.22044604925E-16,1.));
#826 = ORIENTED_EDGE('',*,*,#827,.F.);
#827 = EDGE_CURVE('',#828,#820,#830,.T.);
#828 = VERTEX_POINT('',#829);
#829 = CARTESIAN_POINT('',(1.E+03,5.995204332976E-15,27.));
#830 = LINE('',#831,#832);
#831 = CARTESIAN_POINT('',(1.E+03,5.995204332976E-15,27.));
#832 = VECTOR('',#833,1.);
#833 = DIRECTION('',(0.,-1.,2.22044604925E-16));
#834 = ORIENTED_EDGE('',*,*,#835,.F.);
#835 = EDGE_CURVE('',#797,#828,#836,.T.);
#836 = LINE('',#837,#838);
#837 = CARTESIAN_POINT('',(1.E+03,0.,0.));
#838 = VECTOR('',#839,1.);
#839 = DIRECTION('',(0.,2.22044604925E-16,1.));
#840 = PLANE('',#841);
#841 = AXIS2_PLACEMENT_3D('',#842,#843,#844);
#842 = CARTESIAN_POINT('',(1.E+03,0.,0.));
#843 = DIRECTION('',(-1.,-0.,0.));
#844 = DIRECTION('',(0.,2.22044604925E-16,1.));
#845 = ADVANCED_FACE('',(#846),#862,.F.);
#846 = FACE_BOUND('',#847,.F.);
#847 = EDGE_LOOP('',(#848,#849,#855,#856));
#848 = ORIENTED_EDGE('',*,*,#827,.T.);
#849 = ORIENTED_EDGE('',*,*,#850,.T.);
#850 = EDGE_CURVE('',#820,#750,#851,.T.);
#851 = LINE('',#852,#853);
#852 = CARTESIAN_POINT('',(1.E+03,-148.,27.));
#853 = VECTOR('',#854,1.);
#854 = DIRECTION('',(-1.,0.,0.));
#855 = ORIENTED_EDGE('',*,*,#747,.F.);
#856 = ORIENTED_EDGE('',*,*,#857,.F.);
#857 = EDGE_CURVE('',#828,#748,#858,.T.);
#858 = LINE('',#859,#860);
#859 = CARTESIAN_POINT('',(1.E+03,5.995204332976E-15,27.));
#860 = VECTOR('',#861,1.);
#861 = DIRECTION('',(-1.,0.,0.));
#862 = PLANE('',#863);
#863 = AXIS2_PLACEMENT_3D('',#864,#865,#866);
#864 = CARTESIAN_POINT('',(1.E+03,5.995204332976E-15,27.));
#865 = DIRECTION('',(0.,-2.22044604925E-16,-1.));
#866 = DIRECTION('',(-1.,-0.,0.));
#867 = ADVANCED_FACE('',(#868),#874,.T.);
#868 = FACE_BOUND('',#869,.F.);
#869 = EDGE_LOOP('',(#870,#871,#872,#873));
#870 = ORIENTED_EDGE('',*,*,#773,.T.);
#871 = ORIENTED_EDGE('',*,*,#804,.T.);
#872 = ORIENTED_EDGE('',*,*,#835,.T.);
#873 = ORIENTED_EDGE('',*,*,#857,.T.);
#874 = PLANE('',#875);
#875 = AXIS2_PLACEMENT_3D('',#876,#877,#878);
#876 = CARTESIAN_POINT('',(500.,2.997602166488E-15,13.5));
#877 = DIRECTION('',(0.,1.,0.));
#878 = DIRECTION('',(0.,0.,1.));
#879 = ADVANCED_FACE('',(#880),#886,.F.);
#880 = FACE_BOUND('',#881,.T.);
#881 = EDGE_LOOP('',(#882,#883,#884,#885));
#882 = ORIENTED_EDGE('',*,*,#757,.T.);
#883 = ORIENTED_EDGE('',*,*,#788,.T.);
#884 = ORIENTED_EDGE('',*,*,#819,.T.);
#885 = ORIENTED_EDGE('',*,*,#850,.T.);
#886 = PLANE('',#887);
#887 = AXIS2_PLACEMENT_3D('',#888,#889,#890);
#888 = CARTESIAN_POINT('',(500.,-148.,13.5));
#889 = DIRECTION('',(0.,1.,0.));
#890 = DIRECTION('',(0.,0.,1.));
#891 = ( GEOMETRIC_REPRESENTATION_CONTEXT(3) 
GLOBAL_UNCERTAINTY_ASSIGNED_CONTEXT((#895)) GLOBAL_UNIT_ASSIGNED_CONTEXT
((#892,#893,#894)) REPRESENTATION_CONTEXT('Context #1',
  '3D Context with UNIT and UNCERTAINTY') );
#892 = ( LENGTH_UNIT() NAMED_UNIT(*) SI_UNIT(.MILLI.,.METRE.) );
#893 = ( NAMED_UNIT(*) PLANE_ANGLE_UNIT() SI_UNIT($,.RADIAN.) );
#894 = ( NAMED_UNIT(*) SI_UNIT($,.STERADIAN.) SOLID_ANGLE_UNIT() );
#895 = UNCERTAINTY_MEASURE_WITH_UNIT(LENGTH_MEASURE(1.E-07),#892,
  'distance_accuracy_value','confusion accuracy');
#896 = CONTEXT_DEPENDENT_SHAPE_REPRESENTATION(#897,#899);
#897 = ( REPRESENTATION_RELATIONSHIP('','',#740,#10) 
REPRESENTATION_RELATIONSHIP_WITH_TRANSFORMATION(#898) 
SHAPE_REPRESENTATION_RELATIONSHIP() );
#898 = ITEM_DEFINED_TRANSFORMATION('','',#11,#31);
#899 = PRODUCT_DEFINITION_SHAPE('Placement','Placement of an item',#900
  );
#900 = NEXT_ASSEMBLY_USAGE_OCCURRENCE('5','balda005','',#5,#735,$);
#901 = PRODUCT_RELATED_PRODUCT_CATEGORY('part',$,(#737));
#902 = SHAPE_DEFINITION_REPRESENTATION(#903,#909);
#903 = PRODUCT_DEFINITION_SHAPE('','',#904);
#904 = PRODUCT_DEFINITION('design','',#905,#908);
#905 = PRODUCT_DEFINITION_FORMATION('','',#906);
#906 = PRODUCT('balda006','balda006','',(#907));
#907 = PRODUCT_CONTEXT('',#2,'mechanical');
#908 = PRODUCT_DEFINITION_CONTEXT('part definition',#2,'design');
#909 = ADVANCED_BREP_SHAPE_REPRESENTATION('',(#11,#910),#1060);
#910 = MANIFOLD_SOLID_BREP('',#911);
#911 = CLOSED_SHELL('',(#912,#952,#983,#1014,#1036,#1048));
#912 = ADVANCED_FACE('',(#913),#947,.F.);
#913 = FACE_BOUND('',#914,.F.);
#914 = EDGE_LOOP('',(#915,#925,#933,#941));
#915 = ORIENTED_EDGE('',*,*,#916,.T.);
#916 = EDGE_CURVE('',#917,#919,#921,.T.);
#917 = VERTEX_POINT('',#918);
#918 = CARTESIAN_POINT('',(0.,5.995204332976E-15,27.));
#919 = VERTEX_POINT('',#920);
#920 = CARTESIAN_POINT('',(0.,-148.,27.));
#921 = LINE('',#922,#923);
#922 = CARTESIAN_POINT('',(0.,5.995204332976E-15,27.));
#923 = VECTOR('',#924,1.);
#924 = DIRECTION('',(0.,-1.,2.22044604925E-16));
#925 = ORIENTED_EDGE('',*,*,#926,.T.);
#926 = EDGE_CURVE('',#919,#927,#929,.T.);
#927 = VERTEX_POINT('',#928);
#928 = CARTESIAN_POINT('',(0.,-148.,3.28626015289E-14));
#929 = LINE('',#930,#931);
#930 = CARTESIAN_POINT('',(0.,-148.,27.));
#931 = VECTOR('',#932,1.);
#932 = DIRECTION('',(0.,-2.22044604925E-16,-1.));
#933 = ORIENTED_EDGE('',*,*,#934,.F.);
#934 = EDGE_CURVE('',#935,#927,#937,.T.);
#935 = VERTEX_POINT('',#936);
#936 = CARTESIAN_POINT('',(0.,0.,0.));
#937 = LINE('',#938,#939);
#938 = CARTESIAN_POINT('',(0.,0.,0.));
#939 = VECTOR('',#940,1.);
#940 = DIRECTION('',(0.,-1.,2.22044604925E-16));
#941 = ORIENTED_EDGE('',*,*,#942,.F.);
#942 = EDGE_CURVE('',#917,#935,#943,.T.);
#943 = LINE('',#944,#945);
#944 = CARTESIAN_POINT('',(0.,5.995204332976E-15,27.));
#945 = VECTOR('',#946,1.);
#946 = DIRECTION('',(0.,-2.22044604925E-16,-1.));
#947 = PLANE('',#948);
#948 = AXIS2_PLACEMENT_3D('',#949,#950,#951);
#949 = CARTESIAN_POINT('',(0.,5.995204332976E-15,27.));
#950 = DIRECTION('',(1.,0.,0.));
#951 = DIRECTION('',(0.,-2.22044604925E-16,-1.));
#952 = ADVANCED_FACE('',(#953),#978,.F.);
#953 = FACE_BOUND('',#954,.F.);
#954 = EDGE_LOOP('',(#955,#956,#964,#972));
#955 = ORIENTED_EDGE('',*,*,#934,.T.);
#956 = ORIENTED_EDGE('',*,*,#957,.T.);
#957 = EDGE_CURVE('',#927,#958,#960,.T.);
#958 = VERTEX_POINT('',#959);
#959 = CARTESIAN_POINT('',(1.E+03,-148.,3.28626015289E-14));
#960 = LINE('',#961,#962);
#961 = CARTESIAN_POINT('',(0.,-148.,2.84217094304E-14));
#962 = VECTOR('',#963,1.);
#963 = DIRECTION('',(1.,0.,0.));
#964 = ORIENTED_EDGE('',*,*,#965,.F.);
#965 = EDGE_CURVE('',#966,#958,#968,.T.);
#966 = VERTEX_POINT('',#967);
#967 = CARTESIAN_POINT('',(1.E+03,0.,0.));
#968 = LINE('',#969,#970);
#969 = CARTESIAN_POINT('',(1.E+03,0.,0.));
#970 = VECTOR('',#971,1.);
#971 = DIRECTION('',(0.,-1.,2.22044604925E-16));
#972 = ORIENTED_EDGE('',*,*,#973,.F.);
#973 = EDGE_CURVE('',#935,#966,#974,.T.);
#974 = LINE('',#975,#976);
#975 = CARTESIAN_POINT('',(0.,0.,0.));
#976 = VECTOR('',#977,1.);
#977 = DIRECTION('',(1.,0.,0.));
#978 = PLANE('',#979);
#979 = AXIS2_PLACEMENT_3D('',#980,#981,#982);
#980 = CARTESIAN_POINT('',(0.,0.,0.));
#981 = DIRECTION('',(0.,2.22044604925E-16,1.));
#982 = DIRECTION('',(1.,0.,0.));
#983 = ADVANCED_FACE('',(#984),#1009,.F.);
#984 = FACE_BOUND('',#985,.F.);
#985 = EDGE_LOOP('',(#986,#987,#995,#1003));
#986 = ORIENTED_EDGE('',*,*,#965,.T.);
#987 = ORIENTED_EDGE('',*,*,#988,.T.);
#988 = EDGE_CURVE('',#958,#989,#991,.T.);
#989 = VERTEX_POINT('',#990);
#990 = CARTESIAN_POINT('',(1.E+03,-148.,27.));
#991 = LINE('',#992,#993);
#992 = CARTESIAN_POINT('',(1.E+03,-148.,2.84217094304E-14));
#993 = VECTOR('',#994,1.);
#994 = DIRECTION('',(0.,2.22044604925E-16,1.));
#995 = ORIENTED_EDGE('',*,*,#996,.F.);
#996 = EDGE_CURVE('',#997,#989,#999,.T.);
#997 = VERTEX_POINT('',#998);
#998 = CARTESIAN_POINT('',(1.E+03,5.995204332976E-15,27.));
#999 = LINE('',#1000,#1001);
#1000 = CARTESIAN_POINT('',(1.E+03,5.995204332976E-15,27.));
#1001 = VECTOR('',#1002,1.);
#1002 = DIRECTION('',(0.,-1.,2.22044604925E-16));
#1003 = ORIENTED_EDGE('',*,*,#1004,.F.);
#1004 = EDGE_CURVE('',#966,#997,#1005,.T.);
#1005 = LINE('',#1006,#1007);
#1006 = CARTESIAN_POINT('',(1.E+03,0.,0.));
#1007 = VECTOR('',#1008,1.);
#1008 = DIRECTION('',(0.,2.22044604925E-16,1.));
#1009 = PLANE('',#1010);
#1010 = AXIS2_PLACEMENT_3D('',#1011,#1012,#1013);
#1011 = CARTESIAN_POINT('',(1.E+03,0.,0.));
#1012 = DIRECTION('',(-1.,-0.,0.));
#1013 = DIRECTION('',(0.,2.22044604925E-16,1.));
#1014 = ADVANCED_FACE('',(#1015),#1031,.F.);
#1015 = FACE_BOUND('',#1016,.F.);
#1016 = EDGE_LOOP('',(#1017,#1018,#1024,#1025));
#1017 = ORIENTED_EDGE('',*,*,#996,.T.);
#1018 = ORIENTED_EDGE('',*,*,#1019,.T.);
#1019 = EDGE_CURVE('',#989,#919,#1020,.T.);
#1020 = LINE('',#1021,#1022);
#1021 = CARTESIAN_POINT('',(1.E+03,-148.,27.));
#1022 = VECTOR('',#1023,1.);
#1023 = DIRECTION('',(-1.,0.,0.));
#1024 = ORIENTED_EDGE('',*,*,#916,.F.);
#1025 = ORIENTED_EDGE('',*,*,#1026,.F.);
#1026 = EDGE_CURVE('',#997,#917,#1027,.T.);
#1027 = LINE('',#1028,#1029);
#1028 = CARTESIAN_POINT('',(1.E+03,5.995204332976E-15,27.));
#1029 = VECTOR('',#1030,1.);
#1030 = DIRECTION('',(-1.,0.,0.));
#1031 = PLANE('',#1032);
#1032 = AXIS2_PLACEMENT_3D('',#1033,#1034,#1035);
#1033 = CARTESIAN_POINT('',(1.E+03,5.995204332976E-15,27.));
#1034 = DIRECTION('',(0.,-2.22044604925E-16,-1.));
#1035 = DIRECTION('',(-1.,-0.,0.));
#1036 = ADVANCED_FACE('',(#1037),#1043,.T.);
#1037 = FACE_BOUND('',#1038,.F.);
#1038 = EDGE_LOOP('',(#1039,#1040,#1041,#1042));
#1039 = ORIENTED_EDGE('',*,*,#942,.T.);
#1040 = ORIENTED_EDGE('',*,*,#973,.T.);
#1041 = ORIENTED_EDGE('',*,*,#1004,.T.);
#1042 = ORIENTED_EDGE('',*,*,#1026,.T.);
#1043 = PLANE('',#1044);
#1044 = AXIS2_PLACEMENT_3D('',#1045,#1046,#1047);
#1045 = CARTESIAN_POINT('',(500.,2.997602166488E-15,13.5));
#1046 = DIRECTION('',(0.,1.,0.));
#1047 = DIRECTION('',(0.,0.,1.));
#1048 = ADVANCED_FACE('',(#1049),#1055,.F.);
#1049 = FACE_BOUND('',#1050,.T.);
#1050 = EDGE_LOOP('',(#1051,#1052,#1053,#1054));
#1051 = ORIENTED_EDGE('',*,*,#926,.T.);
#1052 = ORIENTED_EDGE('',*,*,#957,.T.);
#1053 = ORIENTED_EDGE('',*,*,#988,.T.);
#1054 = ORIENTED_EDGE('',*,*,#1019,.T.);
#1055 = PLANE('',#1056);
#1056 = AXIS2_PLACEMENT_3D('',#1057,#1058,#1059);
#1057 = CARTESIAN_POINT('',(500.,-148.,13.5));
#1058 = DIRECTION('',(0.,1.,0.));
#1059 = DIRECTION('',(0.,0.,1.));
#1060 = ( GEOMETRIC_REPRESENTATION_CONTEXT(3) 
GLOBAL_UNCERTAINTY_ASSIGNED_CONTEXT((#1064)) 
GLOBAL_UNIT_ASSIGNED_CONTEXT((#1061,#1062,#1063)) REPRESENTATION_CONTEXT
('Context #1','3D Context with UNIT and UNCERTAINTY') );
#1061 = ( LENGTH_UNIT() NAMED_UNIT(*) SI_UNIT(.MILLI.,.METRE.) );
#1062 = ( NAMED_UNIT(*) PLANE_ANGLE_UNIT() SI_UNIT($,.RADIAN.) );
#1063 = ( NAMED_UNIT(*) SI_UNIT($,.STERADIAN.) SOLID_ANGLE_UNIT() );
#1064 = UNCERTAINTY_MEASURE_WITH_UNIT(LENGTH_MEASURE(1.E-07),#1061,
  'distance_accuracy_value','confusion accuracy');
#1065 = CONTEXT_DEPENDENT_SHAPE_REPRESENTATION(#1066,#1068);
#1066 = ( REPRESENTATION_RELATIONSHIP('','',#909,#10) 
REPRESENTATION_RELATIONSHIP_WITH_TRANSFORMATION(#1067) 
SHAPE_REPRESENTATION_RELATIONSHIP() );
#1067 = ITEM_DEFINED_TRANSFORMATION('','',#11,#35);
#1068 = PRODUCT_DEFINITION_SHAPE('Placement','Placement of an item',
  #1069);
#1069 = NEXT_ASSEMBLY_USAGE_OCCURRENCE('6','balda006','',#5,#904,$);
#1070 = PRODUCT_RELATED_PRODUCT_CATEGORY('part',$,(#906));
#1071 = SHAPE_DEFINITION_REPRESENTATION(#1072,#1078);
#1072 = PRODUCT_DEFINITION_SHAPE('','',#1073);
#1073 = PRODUCT_DEFINITION('design','',#1074,#1077);
#1074 = PRODUCT_DEFINITION_FORMATION('','',#1075);
#1075 = PRODUCT('Cuerpo002','Cuerpo002','',(#1076));
#1076 = PRODUCT_CONTEXT('',#2,'mechanical');
#1077 = PRODUCT_DEFINITION_CONTEXT('part definition',#2,'design');
#1078 = ADVANCED_BREP_SHAPE_REPRESENTATION('',(#11,#1079),#1229);
#1079 = MANIFOLD_SOLID_BREP('',#1080);
#1080 = CLOSED_SHELL('',(#1081,#1121,#1152,#1183,#1205,#1217));
#1081 = ADVANCED_FACE('',(#1082),#1116,.F.);
#1082 = FACE_BOUND('',#1083,.F.);
#1083 = EDGE_LOOP('',(#1084,#1094,#1102,#1110));
#1084 = ORIENTED_EDGE('',*,*,#1085,.T.);
#1085 = EDGE_CURVE('',#1086,#1088,#1090,.T.);
#1086 = VERTEX_POINT('',#1087);
#1087 = CARTESIAN_POINT('',(-1.86517468137E-13,45.,560.));
#1088 = VERTEX_POINT('',#1089);
#1089 = CARTESIAN_POINT('',(19.,45.,560.));
#1090 = LINE('',#1091,#1092);
#1091 = CARTESIAN_POINT('',(-1.86517468137E-13,45.,560.));
#1092 = VECTOR('',#1093,1.);
#1093 = DIRECTION('',(1.,-2.22044604925E-16,1.110223024625E-16));
#1094 = ORIENTED_EDGE('',*,*,#1095,.T.);
#1095 = EDGE_CURVE('',#1088,#1096,#1098,.T.);
#1096 = VERTEX_POINT('',#1097);
#1097 = CARTESIAN_POINT('',(19.,5.795364188543E-14,560.));
#1098 = LINE('',#1099,#1100);
#1099 = CARTESIAN_POINT('',(19.,45.,560.));
#1100 = VECTOR('',#1101,1.);
#1101 = DIRECTION('',(2.22044604925E-16,-1.,5.551115123126E-16));
#1102 = ORIENTED_EDGE('',*,*,#1103,.F.);
#1103 = EDGE_CURVE('',#1104,#1096,#1106,.T.);
#1104 = VERTEX_POINT('',#1105);
#1105 = CARTESIAN_POINT('',(-1.86517468137E-13,6.217248937901E-14,560.)
  );
#1106 = LINE('',#1107,#1108);
#1107 = CARTESIAN_POINT('',(-1.86517468137E-13,6.217248937901E-14,560.)
  );
#1108 = VECTOR('',#1109,1.);
#1109 = DIRECTION('',(1.,-2.22044604925E-16,1.110223024625E-16));
#1110 = ORIENTED_EDGE('',*,*,#1111,.F.);
#1111 = EDGE_CURVE('',#1086,#1104,#1112,.T.);
#1112 = LINE('',#1113,#1114);
#1113 = CARTESIAN_POINT('',(-3.208544541167E-13,45.,560.));
#1114 = VECTOR('',#1115,1.);
#1115 = DIRECTION('',(2.22044604925E-16,-1.,5.551115123126E-16));
#1116 = PLANE('',#1117);
#1117 = AXIS2_PLACEMENT_3D('',#1118,#1119,#1120);
#1118 = CARTESIAN_POINT('',(-1.86517468137E-13,45.,560.));
#1119 = DIRECTION('',(1.110223024625E-16,-3.330669073875E-16,-1.));
#1120 = DIRECTION('',(-2.465190328816E-32,-1.,3.330669073875E-16));
#1121 = ADVANCED_FACE('',(#1122),#1147,.F.);
#1122 = FACE_BOUND('',#1123,.F.);
#1123 = EDGE_LOOP('',(#1124,#1125,#1133,#1141));
#1124 = ORIENTED_EDGE('',*,*,#1103,.T.);
#1125 = ORIENTED_EDGE('',*,*,#1126,.T.);
#1126 = EDGE_CURVE('',#1096,#1127,#1129,.T.);
#1127 = VERTEX_POINT('',#1128);
#1128 = CARTESIAN_POINT('',(19.,-4.218847493576E-15,2.109423746788E-15)
  );
#1129 = LINE('',#1130,#1131);
#1130 = CARTESIAN_POINT('',(19.,-6.639133687258E-14,560.));
#1131 = VECTOR('',#1132,1.);
#1132 = DIRECTION('',(5.551115123126E-16,1.110223024625E-16,-1.));
#1133 = ORIENTED_EDGE('',*,*,#1134,.F.);
#1134 = EDGE_CURVE('',#1135,#1127,#1137,.T.);
#1135 = VERTEX_POINT('',#1136);
#1136 = CARTESIAN_POINT('',(0.,0.,0.));
#1137 = LINE('',#1138,#1139);
#1138 = CARTESIAN_POINT('',(0.,0.,0.));
#1139 = VECTOR('',#1140,1.);
#1140 = DIRECTION('',(1.,-2.22044604925E-16,1.110223024625E-16));
#1141 = ORIENTED_EDGE('',*,*,#1142,.F.);
#1142 = EDGE_CURVE('',#1104,#1135,#1143,.T.);
#1143 = LINE('',#1144,#1145);
#1144 = CARTESIAN_POINT('',(-3.10862446895E-13,-6.217248937901E-14,560.)
  );
#1145 = VECTOR('',#1146,1.);
#1146 = DIRECTION('',(5.551115123126E-16,1.110223024625E-16,-1.));
#1147 = PLANE('',#1148);
#1148 = AXIS2_PLACEMENT_3D('',#1149,#1150,#1151);
#1149 = CARTESIAN_POINT('',(-1.86517468137E-13,6.217248937901E-14,560.)
  );
#1150 = DIRECTION('',(2.22044604925E-16,1.,-1.110223024625E-16));
#1151 = DIRECTION('',(3.330669073875E-16,-1.110223024625E-16,-1.));
#1152 = ADVANCED_FACE('',(#1153),#1178,.F.);
#1153 = FACE_BOUND('',#1154,.F.);
#1154 = EDGE_LOOP('',(#1155,#1156,#1164,#1172));
#1155 = ORIENTED_EDGE('',*,*,#1134,.T.);
#1156 = ORIENTED_EDGE('',*,*,#1157,.T.);
#1157 = EDGE_CURVE('',#1127,#1158,#1160,.T.);
#1158 = VERTEX_POINT('',#1159);
#1159 = CARTESIAN_POINT('',(19.,45.,-1.287858708565E-14));
#1160 = LINE('',#1161,#1162);
#1161 = CARTESIAN_POINT('',(19.,-4.218847493576E-15,-1.06581410364E-14)
  );
#1162 = VECTOR('',#1163,1.);
#1163 = DIRECTION('',(-2.22044604925E-16,1.,-5.551115123126E-16));
#1164 = ORIENTED_EDGE('',*,*,#1165,.F.);
#1165 = EDGE_CURVE('',#1166,#1158,#1168,.T.);
#1166 = VERTEX_POINT('',#1167);
#1167 = CARTESIAN_POINT('',(7.88860905221E-31,45.,-1.498801083244E-14));
#1168 = LINE('',#1169,#1170);
#1169 = CARTESIAN_POINT('',(1.109335647967E-30,45.,-1.498801083244E-14)
  );
#1170 = VECTOR('',#1171,1.);
#1171 = DIRECTION('',(1.,-2.22044604925E-16,1.110223024625E-16));
#1172 = ORIENTED_EDGE('',*,*,#1173,.F.);
#1173 = EDGE_CURVE('',#1135,#1166,#1174,.T.);
#1174 = LINE('',#1175,#1176);
#1175 = CARTESIAN_POINT('',(0.,0.,0.));
#1176 = VECTOR('',#1177,1.);
#1177 = DIRECTION('',(-2.22044604925E-16,1.,-5.551115123126E-16));
#1178 = PLANE('',#1179);
#1179 = AXIS2_PLACEMENT_3D('',#1180,#1181,#1182);
#1180 = CARTESIAN_POINT('',(0.,0.,0.));
#1181 = DIRECTION('',(-1.110223024625E-16,3.330669073875E-16,1.));
#1182 = DIRECTION('',(2.465190328816E-32,1.,-3.330669073875E-16));
#1183 = ADVANCED_FACE('',(#1184),#1200,.F.);
#1184 = FACE_BOUND('',#1185,.F.);
#1185 = EDGE_LOOP('',(#1186,#1187,#1193,#1194));
#1186 = ORIENTED_EDGE('',*,*,#1165,.T.);
#1187 = ORIENTED_EDGE('',*,*,#1188,.T.);
#1188 = EDGE_CURVE('',#1158,#1088,#1189,.T.);
#1189 = LINE('',#1190,#1191);
#1190 = CARTESIAN_POINT('',(19.,45.,-3.552713678801E-14));
#1191 = VECTOR('',#1192,1.);
#1192 = DIRECTION('',(-5.551115123126E-16,-1.110223024625E-16,1.));
#1193 = ORIENTED_EDGE('',*,*,#1085,.F.);
#1194 = ORIENTED_EDGE('',*,*,#1195,.F.);
#1195 = EDGE_CURVE('',#1166,#1086,#1196,.T.);
#1196 = LINE('',#1197,#1198);
#1197 = CARTESIAN_POINT('',(-9.992007221626E-15,45.,-2.498001805407E-14)
  );
#1198 = VECTOR('',#1199,1.);
#1199 = DIRECTION('',(-5.551115123126E-16,-1.110223024625E-16,1.));
#1200 = PLANE('',#1201);
#1201 = AXIS2_PLACEMENT_3D('',#1202,#1203,#1204);
#1202 = CARTESIAN_POINT('',(1.109335647967E-30,45.,-1.498801083244E-14)
  );
#1203 = DIRECTION('',(-2.22044604925E-16,-1.,1.110223024625E-16));
#1204 = DIRECTION('',(-3.330669073875E-16,1.110223024625E-16,1.));
#1205 = ADVANCED_FACE('',(#1206),#1212,.F.);
#1206 = FACE_BOUND('',#1207,.F.);
#1207 = EDGE_LOOP('',(#1208,#1209,#1210,#1211));
#1208 = ORIENTED_EDGE('',*,*,#1111,.T.);
#1209 = ORIENTED_EDGE('',*,*,#1142,.T.);
#1210 = ORIENTED_EDGE('',*,*,#1173,.T.);
#1211 = ORIENTED_EDGE('',*,*,#1195,.T.);
#1212 = PLANE('',#1213);
#1213 = AXIS2_PLACEMENT_3D('',#1214,#1215,#1216);
#1214 = CARTESIAN_POINT('',(-1.604272270583E-13,22.5,280.));
#1215 = DIRECTION('',(1.,-4.440892098501E-16,-1.110223024625E-16));
#1216 = DIRECTION('',(-5.551115123126E-16,-1.110223024625E-16,1.));
#1217 = ADVANCED_FACE('',(#1218),#1224,.T.);
#1218 = FACE_BOUND('',#1219,.T.);
#1219 = EDGE_LOOP('',(#1220,#1221,#1222,#1223));
#1220 = ORIENTED_EDGE('',*,*,#1095,.T.);
#1221 = ORIENTED_EDGE('',*,*,#1126,.T.);
#1222 = ORIENTED_EDGE('',*,*,#1157,.T.);
#1223 = ORIENTED_EDGE('',*,*,#1188,.T.);
#1224 = PLANE('',#1225);
#1225 = AXIS2_PLACEMENT_3D('',#1226,#1227,#1228);
#1226 = CARTESIAN_POINT('',(19.,22.5,280.));
#1227 = DIRECTION('',(1.,-4.440892098501E-16,-1.110223024625E-16));
#1228 = DIRECTION('',(-5.551115123126E-16,-1.110223024625E-16,1.));
#1229 = ( GEOMETRIC_REPRESENTATION_CONTEXT(3) 
GLOBAL_UNCERTAINTY_ASSIGNED_CONTEXT((#1233)) 
GLOBAL_UNIT_ASSIGNED_CONTEXT((#1230,#1231,#1232)) REPRESENTATION_CONTEXT
('Context #1','3D Context with UNIT and UNCERTAINTY') );
#1230 = ( LENGTH_UNIT() NAMED_UNIT(*) SI_UNIT(.MILLI.,.METRE.) );
#1231 = ( NAMED_UNIT(*) PLANE_ANGLE_UNIT() SI_UNIT($,.RADIAN.) );
#1232 = ( NAMED_UNIT(*) SI_UNIT($,.STERADIAN.) SOLID_ANGLE_UNIT() );
#1233 = UNCERTAINTY_MEASURE_WITH_UNIT(LENGTH_MEASURE(1.E-07),#1230,
  'distance_accuracy_value','confusion accuracy');
#1234 = CONTEXT_DEPENDENT_SHAPE_REPRESENTATION(#1235,#1237);
#1235 = ( REPRESENTATION_RELATIONSHIP('','',#1078,#10) 
REPRESENTATION_RELATIONSHIP_WITH_TRANSFORMATION(#1236) 
SHAPE_REPRESENTATION_RELATIONSHIP() );
#1236 = ITEM_DEFINED_TRANSFORMATION('','',#11,#39);
#1237 = PRODUCT_DEFINITION_SHAPE('Placement','Placement of an item',
  #1238);
#1238 = NEXT_ASSEMBLY_USAGE_OCCURRENCE('7','Cuerpo002','',#5,#1073,$);
#1239 = PRODUCT_RELATED_PRODUCT_CATEGORY('part',$,(#1075));
#1240 = SHAPE_DEFINITION_REPRESENTATION(#1241,#1247);
#1241 = PRODUCT_DEFINITION_SHAPE('','',#1242);
#1242 = PRODUCT_DEFINITION('design','',#1243,#1246);
#1243 = PRODUCT_DEFINITION_FORMATION('','',#1244);
#1244 = PRODUCT('Cuerpo003','Cuerpo003','',(#1245));
#1245 = PRODUCT_CONTEXT('',#2,'mechanical');
#1246 = PRODUCT_DEFINITION_CONTEXT('part definition',#2,'design');
#1247 = ADVANCED_BREP_SHAPE_REPRESENTATION('',(#11,#1248),#1398);
#1248 = MANIFOLD_SOLID_BREP('',#1249);
#1249 = CLOSED_SHELL('',(#1250,#1290,#1321,#1352,#1374,#1386));
#1250 = ADVANCED_FACE('',(#1251),#1285,.F.);
#1251 = FACE_BOUND('',#1252,.F.);
#1252 = EDGE_LOOP('',(#1253,#1263,#1271,#1279));
#1253 = ORIENTED_EDGE('',*,*,#1254,.T.);
#1254 = EDGE_CURVE('',#1255,#1257,#1259,.T.);
#1255 = VERTEX_POINT('',#1256);
#1256 = CARTESIAN_POINT('',(-1.86517468137E-13,45.,560.));
#1257 = VERTEX_POINT('',#1258);
#1258 = CARTESIAN_POINT('',(19.,45.,560.));
#1259 = LINE('',#1260,#1261);
#1260 = CARTESIAN_POINT('',(-1.86517468137E-13,45.,560.));
#1261 = VECTOR('',#1262,1.);
#1262 = DIRECTION('',(1.,-2.22044604925E-16,1.110223024625E-16));
#1263 = ORIENTED_EDGE('',*,*,#1264,.T.);
#1264 = EDGE_CURVE('',#1257,#1265,#1267,.T.);
#1265 = VERTEX_POINT('',#1266);
#1266 = CARTESIAN_POINT('',(19.,5.795364188543E-14,560.));
#1267 = LINE('',#1268,#1269);
#1268 = CARTESIAN_POINT('',(19.,45.,560.));
#1269 = VECTOR('',#1270,1.);
#1270 = DIRECTION('',(2.22044604925E-16,-1.,5.551115123126E-16));
#1271 = ORIENTED_EDGE('',*,*,#1272,.F.);
#1272 = EDGE_CURVE('',#1273,#1265,#1275,.T.);
#1273 = VERTEX_POINT('',#1274);
#1274 = CARTESIAN_POINT('',(-1.86517468137E-13,6.217248937901E-14,560.)
  );
#1275 = LINE('',#1276,#1277);
#1276 = CARTESIAN_POINT('',(-1.86517468137E-13,6.217248937901E-14,560.)
  );
#1277 = VECTOR('',#1278,1.);
#1278 = DIRECTION('',(1.,-2.22044604925E-16,1.110223024625E-16));
#1279 = ORIENTED_EDGE('',*,*,#1280,.F.);
#1280 = EDGE_CURVE('',#1255,#1273,#1281,.T.);
#1281 = LINE('',#1282,#1283);
#1282 = CARTESIAN_POINT('',(-3.208544541167E-13,45.,560.));
#1283 = VECTOR('',#1284,1.);
#1284 = DIRECTION('',(2.22044604925E-16,-1.,5.551115123126E-16));
#1285 = PLANE('',#1286);
#1286 = AXIS2_PLACEMENT_3D('',#1287,#1288,#1289);
#1287 = CARTESIAN_POINT('',(-1.86517468137E-13,45.,560.));
#1288 = DIRECTION('',(1.110223024625E-16,-3.330669073875E-16,-1.));
#1289 = DIRECTION('',(-2.465190328816E-32,-1.,3.330669073875E-16));
#1290 = ADVANCED_FACE('',(#1291),#1316,.F.);
#1291 = FACE_BOUND('',#1292,.F.);
#1292 = EDGE_LOOP('',(#1293,#1294,#1302,#1310));
#1293 = ORIENTED_EDGE('',*,*,#1272,.T.);
#1294 = ORIENTED_EDGE('',*,*,#1295,.T.);
#1295 = EDGE_CURVE('',#1265,#1296,#1298,.T.);
#1296 = VERTEX_POINT('',#1297);
#1297 = CARTESIAN_POINT('',(19.,-4.218847493576E-15,2.109423746788E-15)
  );
#1298 = LINE('',#1299,#1300);
#1299 = CARTESIAN_POINT('',(19.,-6.639133687258E-14,560.));
#1300 = VECTOR('',#1301,1.);
#1301 = DIRECTION('',(5.551115123126E-16,1.110223024625E-16,-1.));
#1302 = ORIENTED_EDGE('',*,*,#1303,.F.);
#1303 = EDGE_CURVE('',#1304,#1296,#1306,.T.);
#1304 = VERTEX_POINT('',#1305);
#1305 = CARTESIAN_POINT('',(0.,0.,0.));
#1306 = LINE('',#1307,#1308);
#1307 = CARTESIAN_POINT('',(0.,0.,0.));
#1308 = VECTOR('',#1309,1.);
#1309 = DIRECTION('',(1.,-2.22044604925E-16,1.110223024625E-16));
#1310 = ORIENTED_EDGE('',*,*,#1311,.F.);
#1311 = EDGE_CURVE('',#1273,#1304,#1312,.T.);
#1312 = LINE('',#1313,#1314);
#1313 = CARTESIAN_POINT('',(-3.10862446895E-13,-6.217248937901E-14,560.)
  );
#1314 = VECTOR('',#1315,1.);
#1315 = DIRECTION('',(5.551115123126E-16,1.110223024625E-16,-1.));
#1316 = PLANE('',#1317);
#1317 = AXIS2_PLACEMENT_3D('',#1318,#1319,#1320);
#1318 = CARTESIAN_POINT('',(-1.86517468137E-13,6.217248937901E-14,560.)
  );
#1319 = DIRECTION('',(2.22044604925E-16,1.,-1.110223024625E-16));
#1320 = DIRECTION('',(3.330669073875E-16,-1.110223024625E-16,-1.));
#1321 = ADVANCED_FACE('',(#1322),#1347,.F.);
#1322 = FACE_BOUND('',#1323,.F.);
#1323 = EDGE_LOOP('',(#1324,#1325,#1333,#1341));
#1324 = ORIENTED_EDGE('',*,*,#1303,.T.);
#1325 = ORIENTED_EDGE('',*,*,#1326,.T.);
#1326 = EDGE_CURVE('',#1296,#1327,#1329,.T.);
#1327 = VERTEX_POINT('',#1328);
#1328 = CARTESIAN_POINT('',(19.,45.,-1.287858708565E-14));
#1329 = LINE('',#1330,#1331);
#1330 = CARTESIAN_POINT('',(19.,-4.218847493576E-15,-1.06581410364E-14)
  );
#1331 = VECTOR('',#1332,1.);
#1332 = DIRECTION('',(-2.22044604925E-16,1.,-5.551115123126E-16));
#1333 = ORIENTED_EDGE('',*,*,#1334,.F.);
#1334 = EDGE_CURVE('',#1335,#1327,#1337,.T.);
#1335 = VERTEX_POINT('',#1336);
#1336 = CARTESIAN_POINT('',(7.88860905221E-31,45.,-1.498801083244E-14));
#1337 = LINE('',#1338,#1339);
#1338 = CARTESIAN_POINT('',(1.109335647967E-30,45.,-1.498801083244E-14)
  );
#1339 = VECTOR('',#1340,1.);
#1340 = DIRECTION('',(1.,-2.22044604925E-16,1.110223024625E-16));
#1341 = ORIENTED_EDGE('',*,*,#1342,.F.);
#1342 = EDGE_CURVE('',#1304,#1335,#1343,.T.);
#1343 = LINE('',#1344,#1345);
#1344 = CARTESIAN_POINT('',(0.,0.,0.));
#1345 = VECTOR('',#1346,1.);
#1346 = DIRECTION('',(-2.22044604925E-16,1.,-5.551115123126E-16));
#1347 = PLANE('',#1348);
#1348 = AXIS2_PLACEMENT_3D('',#1349,#1350,#1351);
#1349 = CARTESIAN_POINT('',(0.,0.,0.));
#1350 = DIRECTION('',(-1.110223024625E-16,3.330669073875E-16,1.));
#1351 = DIRECTION('',(2.465190328816E-32,1.,-3.330669073875E-16));
#1352 = ADVANCED_FACE('',(#1353),#1369,.F.);
#1353 = FACE_BOUND('',#1354,.F.);
#1354 = EDGE_LOOP('',(#1355,#1356,#1362,#1363));
#1355 = ORIENTED_EDGE('',*,*,#1334,.T.);
#1356 = ORIENTED_EDGE('',*,*,#1357,.T.);
#1357 = EDGE_CURVE('',#1327,#1257,#1358,.T.);
#1358 = LINE('',#1359,#1360);
#1359 = CARTESIAN_POINT('',(19.,45.,-3.552713678801E-14));
#1360 = VECTOR('',#1361,1.);
#1361 = DIRECTION('',(-5.551115123126E-16,-1.110223024625E-16,1.));
#1362 = ORIENTED_EDGE('',*,*,#1254,.F.);
#1363 = ORIENTED_EDGE('',*,*,#1364,.F.);
#1364 = EDGE_CURVE('',#1335,#1255,#1365,.T.);
#1365 = LINE('',#1366,#1367);
#1366 = CARTESIAN_POINT('',(-9.992007221626E-15,45.,-2.498001805407E-14)
  );
#1367 = VECTOR('',#1368,1.);
#1368 = DIRECTION('',(-5.551115123126E-16,-1.110223024625E-16,1.));
#1369 = PLANE('',#1370);
#1370 = AXIS2_PLACEMENT_3D('',#1371,#1372,#1373);
#1371 = CARTESIAN_POINT('',(1.109335647967E-30,45.,-1.498801083244E-14)
  );
#1372 = DIRECTION('',(-2.22044604925E-16,-1.,1.110223024625E-16));
#1373 = DIRECTION('',(-3.330669073875E-16,1.110223024625E-16,1.));
#1374 = ADVANCED_FACE('',(#1375),#1381,.F.);
#1375 = FACE_BOUND('',#1376,.F.);
#1376 = EDGE_LOOP('',(#1377,#1378,#1379,#1380));
#1377 = ORIENTED_EDGE('',*,*,#1280,.T.);
#1378 = ORIENTED_EDGE('',*,*,#1311,.T.);
#1379 = ORIENTED_EDGE('',*,*,#1342,.T.);
#1380 = ORIENTED_EDGE('',*,*,#1364,.T.);
#1381 = PLANE('',#1382);
#1382 = AXIS2_PLACEMENT_3D('',#1383,#1384,#1385);
#1383 = CARTESIAN_POINT('',(-1.604272270583E-13,22.5,280.));
#1384 = DIRECTION('',(1.,-4.440892098501E-16,-1.110223024625E-16));
#1385 = DIRECTION('',(-5.551115123126E-16,-1.110223024625E-16,1.));
#1386 = ADVANCED_FACE('',(#1387),#1393,.T.);
#1387 = FACE_BOUND('',#1388,.T.);
#1388 = EDGE_LOOP('',(#1389,#1390,#1391,#1392));
#1389 = ORIENTED_EDGE('',*,*,#1264,.T.);
#1390 = ORIENTED_EDGE('',*,*,#1295,.T.);
#1391 = ORIENTED_EDGE('',*,*,#1326,.T.);
#1392 = ORIENTED_EDGE('',*,*,#1357,.T.);
#1393 = PLANE('',#1394);
#1394 = AXIS2_PLACEMENT_3D('',#1395,#1396,#1397);
#1395 = CARTESIAN_POINT('',(19.,22.5,280.));
#1396 = DIRECTION('',(1.,-4.440892098501E-16,-1.110223024625E-16));
#1397 = DIRECTION('',(-5.551115123126E-16,-1.110223024625E-16,1.));
#1398 = ( GEOMETRIC_REPRESENTATION_CONTEXT(3) 
GLOBAL_UNCERTAINTY_ASSIGNED_CONTEXT((#1402)) 
GLOBAL_UNIT_ASSIGNED_CONTEXT((#1399,#1400,#1401)) REPRESENTATION_CONTEXT
('Context #1','3D Context with UNIT and UNCERTAINTY') );
#1399 = ( LENGTH_UNIT() NAMED_UNIT(*) SI_UNIT(.MILLI.,.METRE.) );
#1400 = ( NAMED_UNIT(*) PLANE_ANGLE_UNIT() SI_UNIT($,.RADIAN.) );
#1401 = ( NAMED_UNIT(*) SI_UNIT($,.STERADIAN.) SOLID_ANGLE_UNIT() );
#1402 = UNCERTAINTY_MEASURE_WITH_UNIT(LENGTH_MEASURE(1.E-07),#1399,
  'distance_accuracy_value','confusion accuracy');
#1403 = CONTEXT_DEPENDENT_SHAPE_REPRESENTATION(#1404,#1406);
#1404 = ( REPRESENTATION_RELATIONSHIP('','',#1247,#10) 
REPRESENTATION_RELATIONSHIP_WITH_TRANSFORMATION(#1405) 
SHAPE_REPRESENTATION_RELATIONSHIP() );
#1405 = ITEM_DEFINED_TRANSFORMATION('','',#11,#43);
#1406 = PRODUCT_DEFINITION_SHAPE('Placement','Placement of an item',
  #1407);
#1407 = NEXT_ASSEMBLY_USAGE_OCCURRENCE('8','Cuerpo003','',#5,#1242,$);
#1408 = PRODUCT_RELATED_PRODUCT_CATEGORY('part',$,(#1244));
#1409 = SHAPE_DEFINITION_REPRESENTATION(#1410,#1416);
#1410 = PRODUCT_DEFINITION_SHAPE('','',#1411);
#1411 = PRODUCT_DEFINITION('design','',#1412,#1415);
#1412 = PRODUCT_DEFINITION_FORMATION('','',#1413);
#1413 = PRODUCT('Cuerpo004','Cuerpo004','',(#1414));
#1414 = PRODUCT_CONTEXT('',#2,'mechanical');
#1415 = PRODUCT_DEFINITION_CONTEXT('part definition',#2,'design');
#1416 = ADVANCED_BREP_SHAPE_REPRESENTATION('',(#11,#1417),#1567);
#1417 = MANIFOLD_SOLID_BREP('',#1418);
#1418 = CLOSED_SHELL('',(#1419,#1459,#1490,#1521,#1543,#1555));
#1419 = ADVANCED_FACE('',(#1420),#1454,.F.);
#1420 = FACE_BOUND('',#1421,.F.);
#1421 = EDGE_LOOP('',(#1422,#1432,#1440,#1448));
#1422 = ORIENTED_EDGE('',*,*,#1423,.T.);
#1423 = EDGE_CURVE('',#1424,#1426,#1428,.T.);
#1424 = VERTEX_POINT('',#1425);
#1425 = CARTESIAN_POINT('',(-1.86517468137E-13,45.,560.));
#1426 = VERTEX_POINT('',#1427);
#1427 = CARTESIAN_POINT('',(19.,45.,560.));
#1428 = LINE('',#1429,#1430);
#1429 = CARTESIAN_POINT('',(-1.86517468137E-13,45.,560.));
#1430 = VECTOR('',#1431,1.);
#1431 = DIRECTION('',(1.,-2.22044604925E-16,1.110223024625E-16));
#1432 = ORIENTED_EDGE('',*,*,#1433,.T.);
#1433 = EDGE_CURVE('',#1426,#1434,#1436,.T.);
#1434 = VERTEX_POINT('',#1435);
#1435 = CARTESIAN_POINT('',(19.,5.795364188543E-14,560.));
#1436 = LINE('',#1437,#1438);
#1437 = CARTESIAN_POINT('',(19.,45.,560.));
#1438 = VECTOR('',#1439,1.);
#1439 = DIRECTION('',(2.22044604925E-16,-1.,5.551115123126E-16));
#1440 = ORIENTED_EDGE('',*,*,#1441,.F.);
#1441 = EDGE_CURVE('',#1442,#1434,#1444,.T.);
#1442 = VERTEX_POINT('',#1443);
#1443 = CARTESIAN_POINT('',(-1.86517468137E-13,6.217248937901E-14,560.)
  );
#1444 = LINE('',#1445,#1446);
#1445 = CARTESIAN_POINT('',(-1.86517468137E-13,6.217248937901E-14,560.)
  );
#1446 = VECTOR('',#1447,1.);
#1447 = DIRECTION('',(1.,-2.22044604925E-16,1.110223024625E-16));
#1448 = ORIENTED_EDGE('',*,*,#1449,.F.);
#1449 = EDGE_CURVE('',#1424,#1442,#1450,.T.);
#1450 = LINE('',#1451,#1452);
#1451 = CARTESIAN_POINT('',(-3.208544541167E-13,45.,560.));
#1452 = VECTOR('',#1453,1.);
#1453 = DIRECTION('',(2.22044604925E-16,-1.,5.551115123126E-16));
#1454 = PLANE('',#1455);
#1455 = AXIS2_PLACEMENT_3D('',#1456,#1457,#1458);
#1456 = CARTESIAN_POINT('',(-1.86517468137E-13,45.,560.));
#1457 = DIRECTION('',(1.110223024625E-16,-3.330669073875E-16,-1.));
#1458 = DIRECTION('',(-2.465190328816E-32,-1.,3.330669073875E-16));
#1459 = ADVANCED_FACE('',(#1460),#1485,.F.);
#1460 = FACE_BOUND('',#1461,.F.);
#1461 = EDGE_LOOP('',(#1462,#1463,#1471,#1479));
#1462 = ORIENTED_EDGE('',*,*,#1441,.T.);
#1463 = ORIENTED_EDGE('',*,*,#1464,.T.);
#1464 = EDGE_CURVE('',#1434,#1465,#1467,.T.);
#1465 = VERTEX_POINT('',#1466);
#1466 = CARTESIAN_POINT('',(19.,-4.218847493576E-15,2.109423746788E-15)
  );
#1467 = LINE('',#1468,#1469);
#1468 = CARTESIAN_POINT('',(19.,-6.639133687258E-14,560.));
#1469 = VECTOR('',#1470,1.);
#1470 = DIRECTION('',(5.551115123126E-16,1.110223024625E-16,-1.));
#1471 = ORIENTED_EDGE('',*,*,#1472,.F.);
#1472 = EDGE_CURVE('',#1473,#1465,#1475,.T.);
#1473 = VERTEX_POINT('',#1474);
#1474 = CARTESIAN_POINT('',(0.,0.,0.));
#1475 = LINE('',#1476,#1477);
#1476 = CARTESIAN_POINT('',(0.,0.,0.));
#1477 = VECTOR('',#1478,1.);
#1478 = DIRECTION('',(1.,-2.22044604925E-16,1.110223024625E-16));
#1479 = ORIENTED_EDGE('',*,*,#1480,.F.);
#1480 = EDGE_CURVE('',#1442,#1473,#1481,.T.);
#1481 = LINE('',#1482,#1483);
#1482 = CARTESIAN_POINT('',(-3.10862446895E-13,-6.217248937901E-14,560.)
  );
#1483 = VECTOR('',#1484,1.);
#1484 = DIRECTION('',(5.551115123126E-16,1.110223024625E-16,-1.));
#1485 = PLANE('',#1486);
#1486 = AXIS2_PLACEMENT_3D('',#1487,#1488,#1489);
#1487 = CARTESIAN_POINT('',(-1.86517468137E-13,6.217248937901E-14,560.)
  );
#1488 = DIRECTION('',(2.22044604925E-16,1.,-1.110223024625E-16));
#1489 = DIRECTION('',(3.330669073875E-16,-1.110223024625E-16,-1.));
#1490 = ADVANCED_FACE('',(#1491),#1516,.F.);
#1491 = FACE_BOUND('',#1492,.F.);
#1492 = EDGE_LOOP('',(#1493,#1494,#1502,#1510));
#1493 = ORIENTED_EDGE('',*,*,#1472,.T.);
#1494 = ORIENTED_EDGE('',*,*,#1495,.T.);
#1495 = EDGE_CURVE('',#1465,#1496,#1498,.T.);
#1496 = VERTEX_POINT('',#1497);
#1497 = CARTESIAN_POINT('',(19.,45.,-1.287858708565E-14));
#1498 = LINE('',#1499,#1500);
#1499 = CARTESIAN_POINT('',(19.,-4.218847493576E-15,-1.06581410364E-14)
  );
#1500 = VECTOR('',#1501,1.);
#1501 = DIRECTION('',(-2.22044604925E-16,1.,-5.551115123126E-16));
#1502 = ORIENTED_EDGE('',*,*,#1503,.F.);
#1503 = EDGE_CURVE('',#1504,#1496,#1506,.T.);
#1504 = VERTEX_POINT('',#1505);
#1505 = CARTESIAN_POINT('',(7.88860905221E-31,45.,-1.498801083244E-14));
#1506 = LINE('',#1507,#1508);
#1507 = CARTESIAN_POINT('',(1.109335647967E-30,45.,-1.498801083244E-14)
  );
#1508 = VECTOR('',#1509,1.);
#1509 = DIRECTION('',(1.,-2.22044604925E-16,1.110223024625E-16));
#1510 = ORIENTED_EDGE('',*,*,#1511,.F.);
#1511 = EDGE_CURVE('',#1473,#1504,#1512,.T.);
#1512 = LINE('',#1513,#1514);
#1513 = CARTESIAN_POINT('',(0.,0.,0.));
#1514 = VECTOR('',#1515,1.);
#1515 = DIRECTION('',(-2.22044604925E-16,1.,-5.551115123126E-16));
#1516 = PLANE('',#1517);
#1517 = AXIS2_PLACEMENT_3D('',#1518,#1519,#1520);
#1518 = CARTESIAN_POINT('',(0.,0.,0.));
#1519 = DIRECTION('',(-1.110223024625E-16,3.330669073875E-16,1.));
#1520 = DIRECTION('',(2.465190328816E-32,1.,-3.330669073875E-16));
#1521 = ADVANCED_FACE('',(#1522),#1538,.F.);
#1522 = FACE_BOUND('',#1523,.F.);
#1523 = EDGE_LOOP('',(#1524,#1525,#1531,#1532));
#1524 = ORIENTED_EDGE('',*,*,#1503,.T.);
#1525 = ORIENTED_EDGE('',*,*,#1526,.T.);
#1526 = EDGE_CURVE('',#1496,#1426,#1527,.T.);
#1527 = LINE('',#1528,#1529);
#1528 = CARTESIAN_POINT('',(19.,45.,-3.552713678801E-14));
#1529 = VECTOR('',#1530,1.);
#1530 = DIRECTION('',(-5.551115123126E-16,-1.110223024625E-16,1.));
#1531 = ORIENTED_EDGE('',*,*,#1423,.F.);
#1532 = ORIENTED_EDGE('',*,*,#1533,.F.);
#1533 = EDGE_CURVE('',#1504,#1424,#1534,.T.);
#1534 = LINE('',#1535,#1536);
#1535 = CARTESIAN_POINT('',(-9.992007221626E-15,45.,-2.498001805407E-14)
  );
#1536 = VECTOR('',#1537,1.);
#1537 = DIRECTION('',(-5.551115123126E-16,-1.110223024625E-16,1.));
#1538 = PLANE('',#1539);
#1539 = AXIS2_PLACEMENT_3D('',#1540,#1541,#1542);
#1540 = CARTESIAN_POINT('',(1.109335647967E-30,45.,-1.498801083244E-14)
  );
#1541 = DIRECTION('',(-2.22044604925E-16,-1.,1.110223024625E-16));
#1542 = DIRECTION('',(-3.330669073875E-16,1.110223024625E-16,1.));
#1543 = ADVANCED_FACE('',(#1544),#1550,.F.);
#1544 = FACE_BOUND('',#1545,.F.);
#1545 = EDGE_LOOP('',(#1546,#1547,#1548,#1549));
#1546 = ORIENTED_EDGE('',*,*,#1449,.T.);
#1547 = ORIENTED_EDGE('',*,*,#1480,.T.);
#1548 = ORIENTED_EDGE('',*,*,#1511,.T.);
#1549 = ORIENTED_EDGE('',*,*,#1533,.T.);
#1550 = PLANE('',#1551);
#1551 = AXIS2_PLACEMENT_3D('',#1552,#1553,#1554);
#1552 = CARTESIAN_POINT('',(-1.604272270583E-13,22.5,280.));
#1553 = DIRECTION('',(1.,-4.440892098501E-16,-1.110223024625E-16));
#1554 = DIRECTION('',(-5.551115123126E-16,-1.110223024625E-16,1.));
#1555 = ADVANCED_FACE('',(#1556),#1562,.T.);
#1556 = FACE_BOUND('',#1557,.T.);
#1557 = EDGE_LOOP('',(#1558,#1559,#1560,#1561));
#1558 = ORIENTED_EDGE('',*,*,#1433,.T.);
#1559 = ORIENTED_EDGE('',*,*,#1464,.T.);
#1560 = ORIENTED_EDGE('',*,*,#1495,.T.);
#1561 = ORIENTED_EDGE('',*,*,#1526,.T.);
#1562 = PLANE('',#1563);
#1563 = AXIS2_PLACEMENT_3D('',#1564,#1565,#1566);
#1564 = CARTESIAN_POINT('',(19.,22.5,280.));
#1565 = DIRECTION('',(1.,-4.440892098501E-16,-1.110223024625E-16));
#1566 = DIRECTION('',(-5.551115123126E-16,-1.110223024625E-16,1.));
#1567 = ( GEOMETRIC_REPRESENTATION_CONTEXT(3) 
GLOBAL_UNCERTAINTY_ASSIGNED_CONTEXT((#1571)) 
GLOBAL_UNIT_ASSIGNED_CONTEXT((#1568,#1569,#1570)) REPRESENTATION_CONTEXT
('Context #1','3D Context with UNIT and UNCERTAINTY') );
#1568 = ( LENGTH_UNIT() NAMED_UNIT(*) SI_UNIT(.MILLI.,.METRE.) );
#1569 = ( NAMED_UNIT(*) PLANE_ANGLE_UNIT() SI_UNIT($,.RADIAN.) );
#1570 = ( NAMED_UNIT(*) SI_UNIT($,.STERADIAN.) SOLID_ANGLE_UNIT() );
#1571 = UNCERTAINTY_MEASURE_WITH_UNIT(LENGTH_MEASURE(1.E-07),#1568,
  'distance_accuracy_value','confusion accuracy');
#1572 = CONTEXT_DEPENDENT_SHAPE_REPRESENTATION(#1573,#1575);
#1573 = ( REPRESENTATION_RELATIONSHIP('','',#1416,#10) 
REPRESENTATION_RELATIONSHIP_WITH_TRANSFORMATION(#1574) 
SHAPE_REPRESENTATION_RELATIONSHIP() );
#1574 = ITEM_DEFINED_TRANSFORMATION('','',#11,#47);
#1575 = PRODUCT_DEFINITION_SHAPE('Placement','Placement of an item',
  #1576);
#1576 = NEXT_ASSEMBLY_USAGE_OCCURRENCE('9','Cuerpo004','',#5,#1411,$);
#1577 = PRODUCT_RELATED_PRODUCT_CATEGORY('part',$,(#1413));
#1578 = MECHANICAL_DESIGN_GEOMETRIC_PRESENTATION_REPRESENTATION('',(
    #1579),#1567);
#1579 = STYLED_ITEM('color',(#1580),#1417);
#1580 = PRESENTATION_STYLE_ASSIGNMENT((#1581,#1587));
#1581 = SURFACE_STYLE_USAGE(.BOTH.,#1582);
#1582 = SURFACE_SIDE_STYLE('',(#1583));
#1583 = SURFACE_STYLE_FILL_AREA(#1584);
#1584 = FILL_AREA_STYLE('',(#1585));
#1585 = FILL_AREA_STYLE_COLOUR('',#1586);
#1586 = COLOUR_RGB('',0.800000010877,0.800000010877,0.90196104065);
#1587 = CURVE_STYLE('',#1588,POSITIVE_LENGTH_MEASURE(0.1),#1589);
#1588 = DRAUGHTING_PRE_DEFINED_CURVE_FONT('continuous');
#1589 = COLOUR_RGB('',9.803921802644E-02,9.803921802644E-02,
  9.803921802644E-02);
#1590 = MECHANICAL_DESIGN_GEOMETRIC_PRESENTATION_REPRESENTATION('',(
    #1591),#553);
#1591 = STYLED_ITEM('color',(#1592),#403);
#1592 = PRESENTATION_STYLE_ASSIGNMENT((#1593,#1598));
#1593 = SURFACE_STYLE_USAGE(.BOTH.,#1594);
#1594 = SURFACE_SIDE_STYLE('',(#1595));
#1595 = SURFACE_STYLE_FILL_AREA(#1596);
#1596 = FILL_AREA_STYLE('',(#1597));
#1597 = FILL_AREA_STYLE_COLOUR('',#1586);
#1598 = CURVE_STYLE('',#1599,POSITIVE_LENGTH_MEASURE(0.1),#1589);
#1599 = DRAUGHTING_PRE_DEFINED_CURVE_FONT('continuous');
#1600 = MECHANICAL_DESIGN_GEOMETRIC_PRESENTATION_REPRESENTATION('',(
    #1601),#1060);
#1601 = STYLED_ITEM('color',(#1602),#910);
#1602 = PRESENTATION_STYLE_ASSIGNMENT((#1603,#1608));
#1603 = SURFACE_STYLE_USAGE(.BOTH.,#1604);
#1604 = SURFACE_SIDE_STYLE('',(#1605));
#1605 = SURFACE_STYLE_FILL_AREA(#1606);
#1606 = FILL_AREA_STYLE('',(#1607));
#1607 = FILL_AREA_STYLE_COLOUR('',#1586);
#1608 = CURVE_STYLE('',#1609,POSITIVE_LENGTH_MEASURE(0.1),#1589);
#1609 = DRAUGHTING_PRE_DEFINED_CURVE_FONT('continuous');
#1610 = MECHANICAL_DESIGN_GEOMETRIC_PRESENTATION_REPRESENTATION('',(
    #1611),#215);
#1611 = STYLED_ITEM('color',(#1612),#65);
#1612 = PRESENTATION_STYLE_ASSIGNMENT((#1613,#1618));
#1613 = SURFACE_STYLE_USAGE(.BOTH.,#1614);
#1614 = SURFACE_SIDE_STYLE('',(#1615));
#1615 = SURFACE_STYLE_FILL_AREA(#1616);
#1616 = FILL_AREA_STYLE('',(#1617));
#1617 = FILL_AREA_STYLE_COLOUR('',#1586);
#1618 = CURVE_STYLE('',#1619,POSITIVE_LENGTH_MEASURE(0.1),#1589);
#1619 = DRAUGHTING_PRE_DEFINED_CURVE_FONT('continuous');
#1620 = MECHANICAL_DESIGN_GEOMETRIC_PRESENTATION_REPRESENTATION('',(
    #1621),#384);
#1621 = STYLED_ITEM('color',(#1622),#234);
#1622 = PRESENTATION_STYLE_ASSIGNMENT((#1623,#1628));
#1623 = SURFACE_STYLE_USAGE(.BOTH.,#1624);
#1624 = SURFACE_SIDE_STYLE('',(#1625));
#1625 = SURFACE_STYLE_FILL_AREA(#1626);
#1626 = FILL_AREA_STYLE('',(#1627));
#1627 = FILL_AREA_STYLE_COLOUR('',#1586);
#1628 = CURVE_STYLE('',#1629,POSITIVE_LENGTH_MEASURE(0.1),#1589);
#1629 = DRAUGHTING_PRE_DEFINED_CURVE_FONT('continuous');
#1630 = MECHANICAL_DESIGN_GEOMETRIC_PRESENTATION_REPRESENTATION('',(
    #1631),#1398);
#1631 = STYLED_ITEM('color',(#1632),#1248);
#1632 = PRESENTATION_STYLE_ASSIGNMENT((#1633,#1638));
#1633 = SURFACE_STYLE_USAGE(.BOTH.,#1634);
#1634 = SURFACE_SIDE_STYLE('',(#1635));
#1635 = SURFACE_STYLE_FILL_AREA(#1636);
#1636 = FILL_AREA_STYLE('',(#1637));
#1637 = FILL_AREA_STYLE_COLOUR('',#1586);
#1638 = CURVE_STYLE('',#1639,POSITIVE_LENGTH_MEASURE(0.1),#1589);
#1639 = DRAUGHTING_PRE_DEFINED_CURVE_FONT('continuous');
#1640 = MECHANICAL_DESIGN_GEOMETRIC_PRESENTATION_REPRESENTATION('',(
    #1641),#891);
#1641 = STYLED_ITEM('color',(#1642),#741);
#1642 = PRESENTATION_STYLE_ASSIGNMENT((#1643,#1648));
#1643 = SURFACE_STYLE_USAGE(.BOTH.,#1644);
#1644 = SURFACE_SIDE_STYLE('',(#1645));
#1645 = SURFACE_STYLE_FILL_AREA(#1646);
#1646 = FILL_AREA_STYLE('',(#1647));
#1647 = FILL_AREA_STYLE_COLOUR('',#1586);
#1648 = CURVE_STYLE('',#1649,POSITIVE_LENGTH_MEASURE(0.1),#1589);
#1649 = DRAUGHTING_PRE_DEFINED_CURVE_FONT('continuous');
#1650 = MECHANICAL_DESIGN_GEOMETRIC_PRESENTATION_REPRESENTATION('',(
    #1651),#722);
#1651 = STYLED_ITEM('color',(#1652),#572);
#1652 = PRESENTATION_STYLE_ASSIGNMENT((#1653,#1658));
#1653 = SURFACE_STYLE_USAGE(.BOTH.,#1654);
#1654 = SURFACE_SIDE_STYLE('',(#1655));
#1655 = SURFACE_STYLE_FILL_AREA(#1656);
#1656 = FILL_AREA_STYLE('',(#1657));
#1657 = FILL_AREA_STYLE_COLOUR('',#1586);
#1658 = CURVE_STYLE('',#1659,POSITIVE_LENGTH_MEASURE(0.1),#1589);
#1659 = DRAUGHTING_PRE_DEFINED_CURVE_FONT('continuous');
#1660 = MECHANICAL_DESIGN_GEOMETRIC_PRESENTATION_REPRESENTATION('',(
    #1661),#1229);
#1661 = STYLED_ITEM('color',(#1662),#1079);
#1662 = PRESENTATION_STYLE_ASSIGNMENT((#1663,#1668));
#1663 = SURFACE_STYLE_USAGE(.BOTH.,#1664);
#1664 = SURFACE_SIDE_STYLE('',(#1665));
#1665 = SURFACE_STYLE_FILL_AREA(#1666);
#1666 = FILL_AREA_STYLE('',(#1667));
#1667 = FILL_AREA_STYLE_COLOUR('',#1586);
#1668 = CURVE_STYLE('',#1669,POSITIVE_LENGTH_MEASURE(0.1),#1589);
#1669 = DRAUGHTING_PRE_DEFINED_CURVE_FONT('continuous');
ENDSEC;
END-ISO-10303-21;
