ISO-10303-21;
HEADER;
/* Generated by software containing ST-Developer
 * from STEP Tools, Inc. (www.steptools.com) 
 */

FILE_DESCRIPTION(
/* description */ (''),
/* implementation_level */ '2;1');

FILE_NAME(
/* name */ 'MesaRobot+Simple.step',
/* time_stamp */ '2026-02-09T17:08:59+01:00',
/* author */ (''),
/* organization */ (''),
/* preprocessor_version */ 'ST-DEVELOPER v20.1',
/* originating_system */ 'Autodesk Translation Framework v14.24.0.0',
/* authorisation */ '');

FILE_SCHEMA (('AUTOMOTIVE_DESIGN { 1 0 10303 214 3 1 1 }'));
ENDSEC;

DATA;
#10=MECHANICAL_DESIGN_GEOMETRIC_PRESENTATION_REPRESENTATION('',(#13),#2115);
#11=SHAPE_REPRESENTATION_RELATIONSHIP('SRR','None',#2122,#12);
#12=ADVANCED_BREP_SHAPE_REPRESENTATION('',(#14),#2114);
#13=STYLED_ITEM('',(#2131),#14);
#14=MANIFOLD_SOLID_BREP('MesaE1Simple',#1247);
#15=CYLINDRICAL_SURFACE('',#1311,5.);
#16=CYLINDRICAL_SURFACE('',#1313,5.);
#17=CYLINDRICAL_SURFACE('',#1322,5.);
#18=CYLINDRICAL_SURFACE('',#1323,5.);
#19=CYLINDRICAL_SURFACE('',#1325,5.);
#20=CYLINDRICAL_SURFACE('',#1327,5.);
#21=CYLINDRICAL_SURFACE('',#1335,5.);
#22=CYLINDRICAL_SURFACE('',#1336,5.);
#23=CYLINDRICAL_SURFACE('',#1337,5.);
#24=CYLINDRICAL_SURFACE('',#1339,5.);
#25=CYLINDRICAL_SURFACE('',#1341,5.);
#26=CYLINDRICAL_SURFACE('',#1343,5.);
#27=CYLINDRICAL_SURFACE('',#1358,5.);
#28=CYLINDRICAL_SURFACE('',#1359,5.);
#29=CYLINDRICAL_SURFACE('',#1360,5.);
#30=CYLINDRICAL_SURFACE('',#1361,5.);
#31=CYLINDRICAL_SURFACE('',#1367,5.);
#32=CYLINDRICAL_SURFACE('',#1369,5.);
#33=CYLINDRICAL_SURFACE('',#1377,5.);
#34=CYLINDRICAL_SURFACE('',#1378,5.);
#35=CYLINDRICAL_SURFACE('',#1382,5.);
#36=CYLINDRICAL_SURFACE('',#1384,5.);
#37=CYLINDRICAL_SURFACE('',#1390,5.);
#38=CYLINDRICAL_SURFACE('',#1392,5.);
#39=CIRCLE('',#1263,5.);
#40=CIRCLE('',#1265,5.);
#41=CIRCLE('',#1267,5.);
#42=CIRCLE('',#1269,5.);
#43=CIRCLE('',#1271,5.);
#44=CIRCLE('',#1273,5.);
#45=CIRCLE('',#1275,5.);
#46=CIRCLE('',#1277,5.);
#47=CIRCLE('',#1279,5.);
#48=CIRCLE('',#1281,5.);
#49=CIRCLE('',#1283,5.);
#50=CIRCLE('',#1285,5.);
#51=CIRCLE('',#1287,5.);
#52=CIRCLE('',#1289,5.);
#53=CIRCLE('',#1291,5.);
#54=CIRCLE('',#1293,5.);
#55=CIRCLE('',#1295,5.);
#56=CIRCLE('',#1297,5.);
#57=CIRCLE('',#1299,5.);
#58=CIRCLE('',#1301,5.);
#59=CIRCLE('',#1303,5.);
#60=CIRCLE('',#1305,5.);
#61=CIRCLE('',#1307,5.);
#62=CIRCLE('',#1309,5.);
#63=CIRCLE('',#1312,5.);
#64=CIRCLE('',#1314,5.);
#65=CIRCLE('',#1318,5.);
#66=CIRCLE('',#1319,5.);
#67=CIRCLE('',#1326,5.);
#68=CIRCLE('',#1328,5.);
#69=CIRCLE('',#1331,5.);
#70=CIRCLE('',#1332,5.);
#71=CIRCLE('',#1338,5.);
#72=CIRCLE('',#1340,5.);
#73=CIRCLE('',#1342,5.);
#74=CIRCLE('',#1344,5.);
#75=CIRCLE('',#1353,5.);
#76=CIRCLE('',#1354,5.);
#77=CIRCLE('',#1355,5.);
#78=CIRCLE('',#1356,5.);
#79=CIRCLE('',#1368,5.);
#80=CIRCLE('',#1370,5.);
#81=CIRCLE('',#1374,5.);
#82=CIRCLE('',#1375,5.);
#83=CIRCLE('',#1383,5.);
#84=CIRCLE('',#1385,5.);
#85=CIRCLE('',#1387,5.);
#86=CIRCLE('',#1388,5.);
#87=FACE_BOUND('',#202,.T.);
#88=FACE_BOUND('',#203,.T.);
#89=FACE_BOUND('',#204,.T.);
#90=FACE_BOUND('',#205,.T.);
#91=FACE_BOUND('',#206,.T.);
#92=FACE_BOUND('',#207,.T.);
#93=FACE_BOUND('',#238,.T.);
#94=FACE_BOUND('',#239,.T.);
#95=FACE_BOUND('',#240,.T.);
#96=FACE_BOUND('',#241,.T.);
#97=FACE_BOUND('',#251,.T.);
#98=FACE_BOUND('',#252,.T.);
#99=FACE_BOUND('',#253,.T.);
#100=FACE_BOUND('',#254,.T.);
#101=FACE_BOUND('',#266,.T.);
#102=FACE_BOUND('',#267,.T.);
#103=FACE_BOUND('',#268,.T.);
#104=FACE_BOUND('',#269,.T.);
#105=FACE_BOUND('',#275,.T.);
#106=FACE_BOUND('',#276,.T.);
#107=FACE_BOUND('',#277,.T.);
#108=FACE_BOUND('',#278,.T.);
#109=FACE_BOUND('',#294,.T.);
#110=FACE_BOUND('',#295,.T.);
#111=FACE_BOUND('',#296,.T.);
#112=FACE_BOUND('',#297,.T.);
#113=FACE_BOUND('',#307,.T.);
#114=FACE_BOUND('',#308,.T.);
#115=FACE_BOUND('',#309,.T.);
#116=FACE_BOUND('',#310,.T.);
#117=FACE_OUTER_BOUND('',#201,.T.);
#118=FACE_OUTER_BOUND('',#208,.T.);
#119=FACE_OUTER_BOUND('',#209,.T.);
#120=FACE_OUTER_BOUND('',#210,.T.);
#121=FACE_OUTER_BOUND('',#211,.T.);
#122=FACE_OUTER_BOUND('',#212,.T.);
#123=FACE_OUTER_BOUND('',#213,.T.);
#124=FACE_OUTER_BOUND('',#214,.T.);
#125=FACE_OUTER_BOUND('',#215,.T.);
#126=FACE_OUTER_BOUND('',#216,.T.);
#127=FACE_OUTER_BOUND('',#217,.T.);
#128=FACE_OUTER_BOUND('',#218,.T.);
#129=FACE_OUTER_BOUND('',#219,.T.);
#130=FACE_OUTER_BOUND('',#220,.T.);
#131=FACE_OUTER_BOUND('',#221,.T.);
#132=FACE_OUTER_BOUND('',#222,.T.);
#133=FACE_OUTER_BOUND('',#223,.T.);
#134=FACE_OUTER_BOUND('',#224,.T.);
#135=FACE_OUTER_BOUND('',#225,.T.);
#136=FACE_OUTER_BOUND('',#226,.T.);
#137=FACE_OUTER_BOUND('',#227,.T.);
#138=FACE_OUTER_BOUND('',#228,.T.);
#139=FACE_OUTER_BOUND('',#229,.T.);
#140=FACE_OUTER_BOUND('',#230,.T.);
#141=FACE_OUTER_BOUND('',#231,.T.);
#142=FACE_OUTER_BOUND('',#232,.T.);
#143=FACE_OUTER_BOUND('',#233,.T.);
#144=FACE_OUTER_BOUND('',#234,.T.);
#145=FACE_OUTER_BOUND('',#235,.T.);
#146=FACE_OUTER_BOUND('',#236,.T.);
#147=FACE_OUTER_BOUND('',#237,.T.);
#148=FACE_OUTER_BOUND('',#242,.T.);
#149=FACE_OUTER_BOUND('',#243,.T.);
#150=FACE_OUTER_BOUND('',#244,.T.);
#151=FACE_OUTER_BOUND('',#245,.T.);
#152=FACE_OUTER_BOUND('',#246,.T.);
#153=FACE_OUTER_BOUND('',#247,.T.);
#154=FACE_OUTER_BOUND('',#248,.T.);
#155=FACE_OUTER_BOUND('',#249,.T.);
#156=FACE_OUTER_BOUND('',#250,.T.);
#157=FACE_OUTER_BOUND('',#255,.T.);
#158=FACE_OUTER_BOUND('',#256,.T.);
#159=FACE_OUTER_BOUND('',#257,.T.);
#160=FACE_OUTER_BOUND('',#258,.T.);
#161=FACE_OUTER_BOUND('',#259,.T.);
#162=FACE_OUTER_BOUND('',#260,.T.);
#163=FACE_OUTER_BOUND('',#261,.T.);
#164=FACE_OUTER_BOUND('',#262,.T.);
#165=FACE_OUTER_BOUND('',#263,.T.);
#166=FACE_OUTER_BOUND('',#264,.T.);
#167=FACE_OUTER_BOUND('',#265,.T.);
#168=FACE_OUTER_BOUND('',#270,.T.);
#169=FACE_OUTER_BOUND('',#271,.T.);
#170=FACE_OUTER_BOUND('',#272,.T.);
#171=FACE_OUTER_BOUND('',#273,.T.);
#172=FACE_OUTER_BOUND('',#274,.T.);
#173=FACE_OUTER_BOUND('',#279,.T.);
#174=FACE_OUTER_BOUND('',#280,.T.);
#175=FACE_OUTER_BOUND('',#281,.T.);
#176=FACE_OUTER_BOUND('',#282,.T.);
#177=FACE_OUTER_BOUND('',#283,.T.);
#178=FACE_OUTER_BOUND('',#284,.T.);
#179=FACE_OUTER_BOUND('',#285,.T.);
#180=FACE_OUTER_BOUND('',#286,.T.);
#181=FACE_OUTER_BOUND('',#287,.T.);
#182=FACE_OUTER_BOUND('',#288,.T.);
#183=FACE_OUTER_BOUND('',#289,.T.);
#184=FACE_OUTER_BOUND('',#290,.T.);
#185=FACE_OUTER_BOUND('',#291,.T.);
#186=FACE_OUTER_BOUND('',#292,.T.);
#187=FACE_OUTER_BOUND('',#293,.T.);
#188=FACE_OUTER_BOUND('',#298,.T.);
#189=FACE_OUTER_BOUND('',#299,.T.);
#190=FACE_OUTER_BOUND('',#300,.T.);
#191=FACE_OUTER_BOUND('',#301,.T.);
#192=FACE_OUTER_BOUND('',#302,.T.);
#193=FACE_OUTER_BOUND('',#303,.T.);
#194=FACE_OUTER_BOUND('',#304,.T.);
#195=FACE_OUTER_BOUND('',#305,.T.);
#196=FACE_OUTER_BOUND('',#306,.T.);
#197=FACE_OUTER_BOUND('',#311,.T.);
#198=FACE_OUTER_BOUND('',#312,.T.);
#199=FACE_OUTER_BOUND('',#313,.T.);
#200=FACE_OUTER_BOUND('',#314,.T.);
#201=EDGE_LOOP('',(#791,#792,#793,#794));
#202=EDGE_LOOP('',(#795,#796,#797,#798));
#203=EDGE_LOOP('',(#799,#800,#801,#802));
#204=EDGE_LOOP('',(#803,#804,#805,#806));
#205=EDGE_LOOP('',(#807,#808,#809,#810));
#206=EDGE_LOOP('',(#811,#812,#813,#814));
#207=EDGE_LOOP('',(#815,#816,#817,#818));
#208=EDGE_LOOP('',(#819));
#209=EDGE_LOOP('',(#820));
#210=EDGE_LOOP('',(#821));
#211=EDGE_LOOP('',(#822));
#212=EDGE_LOOP('',(#823));
#213=EDGE_LOOP('',(#824));
#214=EDGE_LOOP('',(#825));
#215=EDGE_LOOP('',(#826));
#216=EDGE_LOOP('',(#827));
#217=EDGE_LOOP('',(#828));
#218=EDGE_LOOP('',(#829));
#219=EDGE_LOOP('',(#830));
#220=EDGE_LOOP('',(#831));
#221=EDGE_LOOP('',(#832));
#222=EDGE_LOOP('',(#833));
#223=EDGE_LOOP('',(#834));
#224=EDGE_LOOP('',(#835));
#225=EDGE_LOOP('',(#836));
#226=EDGE_LOOP('',(#837));
#227=EDGE_LOOP('',(#838));
#228=EDGE_LOOP('',(#839));
#229=EDGE_LOOP('',(#840));
#230=EDGE_LOOP('',(#841));
#231=EDGE_LOOP('',(#842));
#232=EDGE_LOOP('',(#843,#844,#845,#846));
#233=EDGE_LOOP('',(#847,#848,#849,#850));
#234=EDGE_LOOP('',(#851,#852,#853,#854));
#235=EDGE_LOOP('',(#855,#856,#857,#858));
#236=EDGE_LOOP('',(#859,#860,#861,#862));
#237=EDGE_LOOP('',(#863,#864,#865,#866));
#238=EDGE_LOOP('',(#867));
#239=EDGE_LOOP('',(#868));
#240=EDGE_LOOP('',(#869));
#241=EDGE_LOOP('',(#870));
#242=EDGE_LOOP('',(#871,#872,#873,#874));
#243=EDGE_LOOP('',(#875,#876,#877,#878));
#244=EDGE_LOOP('',(#879,#880,#881,#882));
#245=EDGE_LOOP('',(#883,#884,#885,#886));
#246=EDGE_LOOP('',(#887,#888,#889,#890));
#247=EDGE_LOOP('',(#891,#892,#893,#894));
#248=EDGE_LOOP('',(#895,#896,#897,#898));
#249=EDGE_LOOP('',(#899,#900,#901,#902));
#250=EDGE_LOOP('',(#903,#904,#905,#906));
#251=EDGE_LOOP('',(#907));
#252=EDGE_LOOP('',(#908));
#253=EDGE_LOOP('',(#909));
#254=EDGE_LOOP('',(#910));
#255=EDGE_LOOP('',(#911,#912,#913,#914));
#256=EDGE_LOOP('',(#915,#916,#917,#918));
#257=EDGE_LOOP('',(#919,#920,#921,#922));
#258=EDGE_LOOP('',(#923,#924,#925,#926));
#259=EDGE_LOOP('',(#927,#928,#929,#930));
#260=EDGE_LOOP('',(#931,#932,#933,#934));
#261=EDGE_LOOP('',(#935,#936,#937,#938));
#262=EDGE_LOOP('',(#939,#940,#941,#942));
#263=EDGE_LOOP('',(#943,#944,#945,#946));
#264=EDGE_LOOP('',(#947,#948,#949,#950));
#265=EDGE_LOOP('',(#951,#952,#953,#954));
#266=EDGE_LOOP('',(#955));
#267=EDGE_LOOP('',(#956));
#268=EDGE_LOOP('',(#957));
#269=EDGE_LOOP('',(#958));
#270=EDGE_LOOP('',(#959,#960,#961,#962));
#271=EDGE_LOOP('',(#963,#964,#965,#966));
#272=EDGE_LOOP('',(#967,#968,#969,#970));
#273=EDGE_LOOP('',(#971,#972,#973,#974));
#274=EDGE_LOOP('',(#975,#976,#977,#978));
#275=EDGE_LOOP('',(#979));
#276=EDGE_LOOP('',(#980));
#277=EDGE_LOOP('',(#981));
#278=EDGE_LOOP('',(#982));
#279=EDGE_LOOP('',(#983,#984,#985,#986));
#280=EDGE_LOOP('',(#987,#988,#989,#990));
#281=EDGE_LOOP('',(#991,#992,#993,#994));
#282=EDGE_LOOP('',(#995,#996,#997,#998));
#283=EDGE_LOOP('',(#999,#1000,#1001,#1002));
#284=EDGE_LOOP('',(#1003,#1004,#1005,#1006));
#285=EDGE_LOOP('',(#1007,#1008,#1009,#1010));
#286=EDGE_LOOP('',(#1011,#1012,#1013,#1014));
#287=EDGE_LOOP('',(#1015,#1016,#1017,#1018));
#288=EDGE_LOOP('',(#1019,#1020,#1021,#1022));
#289=EDGE_LOOP('',(#1023,#1024,#1025,#1026));
#290=EDGE_LOOP('',(#1027,#1028,#1029,#1030));
#291=EDGE_LOOP('',(#1031,#1032,#1033,#1034));
#292=EDGE_LOOP('',(#1035,#1036,#1037,#1038));
#293=EDGE_LOOP('',(#1039,#1040,#1041,#1042));
#294=EDGE_LOOP('',(#1043));
#295=EDGE_LOOP('',(#1044));
#296=EDGE_LOOP('',(#1045));
#297=EDGE_LOOP('',(#1046));
#298=EDGE_LOOP('',(#1047,#1048,#1049,#1050));
#299=EDGE_LOOP('',(#1051,#1052,#1053,#1054));
#300=EDGE_LOOP('',(#1055,#1056,#1057,#1058));
#301=EDGE_LOOP('',(#1059,#1060,#1061,#1062));
#302=EDGE_LOOP('',(#1063,#1064,#1065,#1066));
#303=EDGE_LOOP('',(#1067,#1068,#1069,#1070));
#304=EDGE_LOOP('',(#1071,#1072,#1073,#1074));
#305=EDGE_LOOP('',(#1075,#1076,#1077,#1078));
#306=EDGE_LOOP('',(#1079,#1080,#1081,#1082));
#307=EDGE_LOOP('',(#1083));
#308=EDGE_LOOP('',(#1084));
#309=EDGE_LOOP('',(#1085));
#310=EDGE_LOOP('',(#1086));
#311=EDGE_LOOP('',(#1087,#1088,#1089,#1090));
#312=EDGE_LOOP('',(#1091,#1092,#1093,#1094));
#313=EDGE_LOOP('',(#1095,#1096,#1097,#1098));
#314=EDGE_LOOP('',(#1099,#1100,#1101,#1102));
#315=LINE('',#1771,#423);
#316=LINE('',#1773,#424);
#317=LINE('',#1775,#425);
#318=LINE('',#1776,#426);
#319=LINE('',#1779,#427);
#320=LINE('',#1781,#428);
#321=LINE('',#1783,#429);
#322=LINE('',#1784,#430);
#323=LINE('',#1787,#431);
#324=LINE('',#1789,#432);
#325=LINE('',#1791,#433);
#326=LINE('',#1792,#434);
#327=LINE('',#1795,#435);
#328=LINE('',#1797,#436);
#329=LINE('',#1799,#437);
#330=LINE('',#1800,#438);
#331=LINE('',#1803,#439);
#332=LINE('',#1805,#440);
#333=LINE('',#1807,#441);
#334=LINE('',#1808,#442);
#335=LINE('',#1811,#443);
#336=LINE('',#1813,#444);
#337=LINE('',#1815,#445);
#338=LINE('',#1816,#446);
#339=LINE('',#1819,#447);
#340=LINE('',#1821,#448);
#341=LINE('',#1823,#449);
#342=LINE('',#1824,#450);
#343=LINE('',#1900,#451);
#344=LINE('',#1901,#452);
#345=LINE('',#1902,#453);
#346=LINE('',#1905,#454);
#347=LINE('',#1909,#455);
#348=LINE('',#1913,#456);
#349=LINE('',#1915,#457);
#350=LINE('',#1916,#458);
#351=LINE('',#1919,#459);
#352=LINE('',#1920,#460);
#353=LINE('',#1923,#461);
#354=LINE('',#1924,#462);
#355=LINE('',#1930,#463);
#356=LINE('',#1933,#464);
#357=LINE('',#1935,#465);
#358=LINE('',#1938,#466);
#359=LINE('',#1940,#467);
#360=LINE('',#1941,#468);
#361=LINE('',#1944,#469);
#362=LINE('',#1948,#470);
#363=LINE('',#1952,#471);
#364=LINE('',#1953,#472);
#365=LINE('',#1956,#473);
#366=LINE('',#1957,#474);
#367=LINE('',#1963,#475);
#368=LINE('',#1966,#476);
#369=LINE('',#1968,#477);
#370=LINE('',#1971,#478);
#371=LINE('',#1975,#479);
#372=LINE('',#1979,#480);
#373=LINE('',#1983,#481);
#374=LINE('',#1987,#482);
#375=LINE('',#1989,#483);
#376=LINE('',#1990,#484);
#377=LINE('',#1993,#485);
#378=LINE('',#1994,#486);
#379=LINE('',#1997,#487);
#380=LINE('',#1998,#488);
#381=LINE('',#2000,#489);
#382=LINE('',#2004,#490);
#383=LINE('',#2006,#491);
#384=LINE('',#2007,#492);
#385=LINE('',#2010,#493);
#386=LINE('',#2011,#494);
#387=LINE('',#2014,#495);
#388=LINE('',#2015,#496);
#389=LINE('',#2025,#497);
#390=LINE('',#2027,#498);
#391=LINE('',#2029,#499);
#392=LINE('',#2031,#500);
#393=LINE('',#2033,#501);
#394=LINE('',#2037,#502);
#395=LINE('',#2038,#503);
#396=LINE('',#2041,#504);
#397=LINE('',#2042,#505);
#398=LINE('',#2044,#506);
#399=LINE('',#2048,#507);
#400=LINE('',#2052,#508);
#401=LINE('',#2056,#509);
#402=LINE('',#2058,#510);
#403=LINE('',#2059,#511);
#404=LINE('',#2062,#512);
#405=LINE('',#2063,#513);
#406=LINE('',#2066,#514);
#407=LINE('',#2067,#515);
#408=LINE('',#2073,#516);
#409=LINE('',#2075,#517);
#410=LINE('',#2077,#518);
#411=LINE('',#2081,#519);
#412=LINE('',#2083,#520);
#413=LINE('',#2084,#521);
#414=LINE('',#2087,#522);
#415=LINE('',#2088,#523);
#416=LINE('',#2091,#524);
#417=LINE('',#2095,#525);
#418=LINE('',#2099,#526);
#419=LINE('',#2100,#527);
#420=LINE('',#2106,#528);
#421=LINE('',#2108,#529);
#422=LINE('',#2111,#530);
#423=VECTOR('',#1397,10.);
#424=VECTOR('',#1398,1.);
#425=VECTOR('',#1399,10.);
#426=VECTOR('',#1400,10.);
#427=VECTOR('',#1401,10.);
#428=VECTOR('',#1402,10.);
#429=VECTOR('',#1403,10.);
#430=VECTOR('',#1404,10.);
#431=VECTOR('',#1405,10.);
#432=VECTOR('',#1406,10.);
#433=VECTOR('',#1407,10.);
#434=VECTOR('',#1408,10.);
#435=VECTOR('',#1409,10.);
#436=VECTOR('',#1410,10.);
#437=VECTOR('',#1411,10.);
#438=VECTOR('',#1412,10.);
#439=VECTOR('',#1413,10.);
#440=VECTOR('',#1414,10.);
#441=VECTOR('',#1415,10.);
#442=VECTOR('',#1416,10.);
#443=VECTOR('',#1417,10.);
#444=VECTOR('',#1418,10.);
#445=VECTOR('',#1419,10.);
#446=VECTOR('',#1420,10.);
#447=VECTOR('',#1421,10.);
#448=VECTOR('',#1422,10.);
#449=VECTOR('',#1423,10.);
#450=VECTOR('',#1424,10.);
#451=VECTOR('',#1523,10.);
#452=VECTOR('',#1524,10.);
#453=VECTOR('',#1525,10.);
#454=VECTOR('',#1528,5.);
#455=VECTOR('',#1533,5.);
#456=VECTOR('',#1538,10.);
#457=VECTOR('',#1539,1.);
#458=VECTOR('',#1540,10.);
#459=VECTOR('',#1543,1.);
#460=VECTOR('',#1544,10.);
#461=VECTOR('',#1547,1.);
#462=VECTOR('',#1548,1.);
#463=VECTOR('',#1555,1.);
#464=VECTOR('',#1560,5.);
#465=VECTOR('',#1563,5.);
#466=VECTOR('',#1566,1.);
#467=VECTOR('',#1567,1.);
#468=VECTOR('',#1568,10.);
#469=VECTOR('',#1571,5.);
#470=VECTOR('',#1576,5.);
#471=VECTOR('',#1581,10.);
#472=VECTOR('',#1582,1.);
#473=VECTOR('',#1585,1.);
#474=VECTOR('',#1586,1.);
#475=VECTOR('',#1593,10.);
#476=VECTOR('',#1598,5.);
#477=VECTOR('',#1601,5.);
#478=VECTOR('',#1604,5.);
#479=VECTOR('',#1609,5.);
#480=VECTOR('',#1614,5.);
#481=VECTOR('',#1619,5.);
#482=VECTOR('',#1624,10.);
#483=VECTOR('',#1625,1.);
#484=VECTOR('',#1626,10.);
#485=VECTOR('',#1629,1.);
#486=VECTOR('',#1630,1.);
#487=VECTOR('',#1633,1.);
#488=VECTOR('',#1634,1.);
#489=VECTOR('',#1637,1.);
#490=VECTOR('',#1642,1.);
#491=VECTOR('',#1643,1.);
#492=VECTOR('',#1644,1.);
#493=VECTOR('',#1647,10.);
#494=VECTOR('',#1648,1.);
#495=VECTOR('',#1651,1.);
#496=VECTOR('',#1652,1.);
#497=VECTOR('',#1663,10.);
#498=VECTOR('',#1666,5.);
#499=VECTOR('',#1669,5.);
#500=VECTOR('',#1672,5.);
#501=VECTOR('',#1675,5.);
#502=VECTOR('',#1680,1.);
#503=VECTOR('',#1681,1.);
#504=VECTOR('',#1684,1.);
#505=VECTOR('',#1685,1.);
#506=VECTOR('',#1688,1.);
#507=VECTOR('',#1693,5.);
#508=VECTOR('',#1698,5.);
#509=VECTOR('',#1703,1.);
#510=VECTOR('',#1704,1.);
#511=VECTOR('',#1705,1.);
#512=VECTOR('',#1708,1.);
#513=VECTOR('',#1709,1.);
#514=VECTOR('',#1712,1.);
#515=VECTOR('',#1713,1.);
#516=VECTOR('',#1720,1.);
#517=VECTOR('',#1723,5.);
#518=VECTOR('',#1726,5.);
#519=VECTOR('',#1731,10.);
#520=VECTOR('',#1732,1.);
#521=VECTOR('',#1733,10.);
#522=VECTOR('',#1736,10.);
#523=VECTOR('',#1737,1.);
#524=VECTOR('',#1740,5.);
#525=VECTOR('',#1745,5.);
#526=VECTOR('',#1750,1.);
#527=VECTOR('',#1751,1.);
#528=VECTOR('',#1758,1.);
#529=VECTOR('',#1761,5.);
#530=VECTOR('',#1766,5.);
#531=VERTEX_POINT('',#1769);
#532=VERTEX_POINT('',#1770);
#533=VERTEX_POINT('',#1772);
#534=VERTEX_POINT('',#1774);
#535=VERTEX_POINT('',#1777);
#536=VERTEX_POINT('',#1778);
#537=VERTEX_POINT('',#1780);
#538=VERTEX_POINT('',#1782);
#539=VERTEX_POINT('',#1785);
#540=VERTEX_POINT('',#1786);
#541=VERTEX_POINT('',#1788);
#542=VERTEX_POINT('',#1790);
#543=VERTEX_POINT('',#1793);
#544=VERTEX_POINT('',#1794);
#545=VERTEX_POINT('',#1796);
#546=VERTEX_POINT('',#1798);
#547=VERTEX_POINT('',#1801);
#548=VERTEX_POINT('',#1802);
#549=VERTEX_POINT('',#1804);
#550=VERTEX_POINT('',#1806);
#551=VERTEX_POINT('',#1809);
#552=VERTEX_POINT('',#1810);
#553=VERTEX_POINT('',#1812);
#554=VERTEX_POINT('',#1814);
#555=VERTEX_POINT('',#1817);
#556=VERTEX_POINT('',#1818);
#557=VERTEX_POINT('',#1820);
#558=VERTEX_POINT('',#1822);
#559=VERTEX_POINT('',#1826);
#560=VERTEX_POINT('',#1829);
#561=VERTEX_POINT('',#1832);
#562=VERTEX_POINT('',#1835);
#563=VERTEX_POINT('',#1838);
#564=VERTEX_POINT('',#1841);
#565=VERTEX_POINT('',#1844);
#566=VERTEX_POINT('',#1847);
#567=VERTEX_POINT('',#1850);
#568=VERTEX_POINT('',#1853);
#569=VERTEX_POINT('',#1856);
#570=VERTEX_POINT('',#1859);
#571=VERTEX_POINT('',#1862);
#572=VERTEX_POINT('',#1865);
#573=VERTEX_POINT('',#1868);
#574=VERTEX_POINT('',#1871);
#575=VERTEX_POINT('',#1874);
#576=VERTEX_POINT('',#1877);
#577=VERTEX_POINT('',#1880);
#578=VERTEX_POINT('',#1883);
#579=VERTEX_POINT('',#1886);
#580=VERTEX_POINT('',#1889);
#581=VERTEX_POINT('',#1892);
#582=VERTEX_POINT('',#1895);
#583=VERTEX_POINT('',#1898);
#584=VERTEX_POINT('',#1899);
#585=VERTEX_POINT('',#1904);
#586=VERTEX_POINT('',#1908);
#587=VERTEX_POINT('',#1912);
#588=VERTEX_POINT('',#1914);
#589=VERTEX_POINT('',#1918);
#590=VERTEX_POINT('',#1922);
#591=VERTEX_POINT('',#1925);
#592=VERTEX_POINT('',#1927);
#593=VERTEX_POINT('',#1937);
#594=VERTEX_POINT('',#1939);
#595=VERTEX_POINT('',#1943);
#596=VERTEX_POINT('',#1947);
#597=VERTEX_POINT('',#1951);
#598=VERTEX_POINT('',#1955);
#599=VERTEX_POINT('',#1958);
#600=VERTEX_POINT('',#1960);
#601=VERTEX_POINT('',#1970);
#602=VERTEX_POINT('',#1974);
#603=VERTEX_POINT('',#1978);
#604=VERTEX_POINT('',#1982);
#605=VERTEX_POINT('',#1986);
#606=VERTEX_POINT('',#1988);
#607=VERTEX_POINT('',#1992);
#608=VERTEX_POINT('',#1996);
#609=VERTEX_POINT('',#2003);
#610=VERTEX_POINT('',#2005);
#611=VERTEX_POINT('',#2009);
#612=VERTEX_POINT('',#2013);
#613=VERTEX_POINT('',#2016);
#614=VERTEX_POINT('',#2018);
#615=VERTEX_POINT('',#2020);
#616=VERTEX_POINT('',#2022);
#617=VERTEX_POINT('',#2036);
#618=VERTEX_POINT('',#2040);
#619=VERTEX_POINT('',#2047);
#620=VERTEX_POINT('',#2051);
#621=VERTEX_POINT('',#2055);
#622=VERTEX_POINT('',#2057);
#623=VERTEX_POINT('',#2061);
#624=VERTEX_POINT('',#2065);
#625=VERTEX_POINT('',#2068);
#626=VERTEX_POINT('',#2070);
#627=VERTEX_POINT('',#2080);
#628=VERTEX_POINT('',#2082);
#629=VERTEX_POINT('',#2086);
#630=VERTEX_POINT('',#2090);
#631=VERTEX_POINT('',#2094);
#632=VERTEX_POINT('',#2098);
#633=VERTEX_POINT('',#2101);
#634=VERTEX_POINT('',#2103);
#635=EDGE_CURVE('',#531,#532,#315,.T.);
#636=EDGE_CURVE('',#533,#532,#316,.T.);
#637=EDGE_CURVE('',#533,#534,#317,.T.);
#638=EDGE_CURVE('',#534,#531,#318,.T.);
#639=EDGE_CURVE('',#535,#536,#319,.T.);
#640=EDGE_CURVE('',#537,#535,#320,.T.);
#641=EDGE_CURVE('',#538,#537,#321,.T.);
#642=EDGE_CURVE('',#536,#538,#322,.T.);
#643=EDGE_CURVE('',#539,#540,#323,.T.);
#644=EDGE_CURVE('',#541,#539,#324,.T.);
#645=EDGE_CURVE('',#542,#541,#325,.T.);
#646=EDGE_CURVE('',#542,#540,#326,.T.);
#647=EDGE_CURVE('',#543,#544,#327,.T.);
#648=EDGE_CURVE('',#545,#543,#328,.T.);
#649=EDGE_CURVE('',#546,#545,#329,.T.);
#650=EDGE_CURVE('',#544,#546,#330,.T.);
#651=EDGE_CURVE('',#547,#548,#331,.T.);
#652=EDGE_CURVE('',#549,#547,#332,.T.);
#653=EDGE_CURVE('',#550,#549,#333,.T.);
#654=EDGE_CURVE('',#548,#550,#334,.T.);
#655=EDGE_CURVE('',#551,#552,#335,.T.);
#656=EDGE_CURVE('',#551,#553,#336,.T.);
#657=EDGE_CURVE('',#554,#553,#337,.T.);
#658=EDGE_CURVE('',#552,#554,#338,.T.);
#659=EDGE_CURVE('',#555,#556,#339,.T.);
#660=EDGE_CURVE('',#555,#557,#340,.T.);
#661=EDGE_CURVE('',#558,#557,#341,.T.);
#662=EDGE_CURVE('',#556,#558,#342,.T.);
#663=EDGE_CURVE('',#559,#559,#39,.T.);
#664=EDGE_CURVE('',#560,#560,#40,.T.);
#665=EDGE_CURVE('',#561,#561,#41,.T.);
#666=EDGE_CURVE('',#562,#562,#42,.T.);
#667=EDGE_CURVE('',#563,#563,#43,.T.);
#668=EDGE_CURVE('',#564,#564,#44,.T.);
#669=EDGE_CURVE('',#565,#565,#45,.T.);
#670=EDGE_CURVE('',#566,#566,#46,.T.);
#671=EDGE_CURVE('',#567,#567,#47,.T.);
#672=EDGE_CURVE('',#568,#568,#48,.T.);
#673=EDGE_CURVE('',#569,#569,#49,.T.);
#674=EDGE_CURVE('',#570,#570,#50,.T.);
#675=EDGE_CURVE('',#571,#571,#51,.T.);
#676=EDGE_CURVE('',#572,#572,#52,.T.);
#677=EDGE_CURVE('',#573,#573,#53,.T.);
#678=EDGE_CURVE('',#574,#574,#54,.T.);
#679=EDGE_CURVE('',#575,#575,#55,.T.);
#680=EDGE_CURVE('',#576,#576,#56,.T.);
#681=EDGE_CURVE('',#577,#577,#57,.T.);
#682=EDGE_CURVE('',#578,#578,#58,.T.);
#683=EDGE_CURVE('',#579,#579,#59,.T.);
#684=EDGE_CURVE('',#580,#580,#60,.T.);
#685=EDGE_CURVE('',#581,#581,#61,.T.);
#686=EDGE_CURVE('',#582,#582,#62,.T.);
#687=EDGE_CURVE('',#583,#584,#343,.T.);
#688=EDGE_CURVE('',#584,#531,#344,.T.);
#689=EDGE_CURVE('',#583,#534,#345,.T.);
#690=EDGE_CURVE('',#562,#585,#346,.T.);
#691=EDGE_CURVE('',#585,#585,#63,.T.);
#692=EDGE_CURVE('',#561,#586,#347,.T.);
#693=EDGE_CURVE('',#586,#586,#64,.T.);
#694=EDGE_CURVE('',#587,#542,#348,.T.);
#695=EDGE_CURVE('',#587,#588,#349,.T.);
#696=EDGE_CURVE('',#588,#540,#350,.T.);
#697=EDGE_CURVE('',#588,#589,#351,.T.);
#698=EDGE_CURVE('',#589,#539,#352,.T.);
#699=EDGE_CURVE('',#590,#587,#353,.T.);
#700=EDGE_CURVE('',#589,#590,#354,.T.);
#701=EDGE_CURVE('',#591,#591,#65,.T.);
#702=EDGE_CURVE('',#592,#592,#66,.T.);
#703=EDGE_CURVE('',#541,#590,#355,.T.);
#704=EDGE_CURVE('',#560,#592,#356,.T.);
#705=EDGE_CURVE('',#559,#591,#357,.T.);
#706=EDGE_CURVE('',#557,#593,#358,.T.);
#707=EDGE_CURVE('',#593,#594,#359,.T.);
#708=EDGE_CURVE('',#594,#558,#360,.T.);
#709=EDGE_CURVE('',#566,#595,#361,.T.);
#710=EDGE_CURVE('',#595,#595,#67,.T.);
#711=EDGE_CURVE('',#565,#596,#362,.T.);
#712=EDGE_CURVE('',#596,#596,#68,.T.);
#713=EDGE_CURVE('',#597,#555,#363,.T.);
#714=EDGE_CURVE('',#597,#593,#364,.T.);
#715=EDGE_CURVE('',#598,#597,#365,.T.);
#716=EDGE_CURVE('',#594,#598,#366,.T.);
#717=EDGE_CURVE('',#599,#599,#69,.T.);
#718=EDGE_CURVE('',#600,#600,#70,.T.);
#719=EDGE_CURVE('',#598,#556,#367,.T.);
#720=EDGE_CURVE('',#564,#600,#368,.T.);
#721=EDGE_CURVE('',#563,#599,#369,.T.);
#722=EDGE_CURVE('',#570,#601,#370,.T.);
#723=EDGE_CURVE('',#601,#601,#71,.T.);
#724=EDGE_CURVE('',#569,#602,#371,.T.);
#725=EDGE_CURVE('',#602,#602,#72,.T.);
#726=EDGE_CURVE('',#568,#603,#372,.T.);
#727=EDGE_CURVE('',#603,#603,#73,.T.);
#728=EDGE_CURVE('',#567,#604,#373,.T.);
#729=EDGE_CURVE('',#604,#604,#74,.T.);
#730=EDGE_CURVE('',#605,#544,#374,.T.);
#731=EDGE_CURVE('',#605,#606,#375,.T.);
#732=EDGE_CURVE('',#606,#543,#376,.T.);
#733=EDGE_CURVE('',#606,#607,#377,.T.);
#734=EDGE_CURVE('',#545,#607,#378,.T.);
#735=EDGE_CURVE('',#608,#605,#379,.T.);
#736=EDGE_CURVE('',#607,#608,#380,.T.);
#737=EDGE_CURVE('',#546,#608,#381,.T.);
#738=EDGE_CURVE('',#549,#609,#382,.T.);
#739=EDGE_CURVE('',#609,#610,#383,.T.);
#740=EDGE_CURVE('',#550,#610,#384,.T.);
#741=EDGE_CURVE('',#611,#547,#385,.T.);
#742=EDGE_CURVE('',#611,#609,#386,.T.);
#743=EDGE_CURVE('',#612,#611,#387,.T.);
#744=EDGE_CURVE('',#610,#612,#388,.T.);
#745=EDGE_CURVE('',#613,#613,#75,.T.);
#746=EDGE_CURVE('',#614,#614,#76,.T.);
#747=EDGE_CURVE('',#615,#615,#77,.T.);
#748=EDGE_CURVE('',#616,#616,#78,.T.);
#749=EDGE_CURVE('',#612,#548,#389,.T.);
#750=EDGE_CURVE('',#574,#613,#390,.T.);
#751=EDGE_CURVE('',#573,#615,#391,.T.);
#752=EDGE_CURVE('',#572,#614,#392,.T.);
#753=EDGE_CURVE('',#571,#616,#393,.T.);
#754=EDGE_CURVE('',#617,#533,#394,.T.);
#755=EDGE_CURVE('',#617,#583,#395,.T.);
#756=EDGE_CURVE('',#532,#618,#396,.T.);
#757=EDGE_CURVE('',#617,#618,#397,.T.);
#758=EDGE_CURVE('',#618,#584,#398,.T.);
#759=EDGE_CURVE('',#578,#619,#399,.T.);
#760=EDGE_CURVE('',#619,#619,#79,.T.);
#761=EDGE_CURVE('',#577,#620,#400,.T.);
#762=EDGE_CURVE('',#620,#620,#80,.T.);
#763=EDGE_CURVE('',#538,#621,#401,.T.);
#764=EDGE_CURVE('',#621,#622,#402,.T.);
#765=EDGE_CURVE('',#536,#622,#403,.T.);
#766=EDGE_CURVE('',#537,#623,#404,.T.);
#767=EDGE_CURVE('',#623,#621,#405,.T.);
#768=EDGE_CURVE('',#622,#624,#406,.T.);
#769=EDGE_CURVE('',#624,#623,#407,.T.);
#770=EDGE_CURVE('',#625,#625,#81,.T.);
#771=EDGE_CURVE('',#626,#626,#82,.T.);
#772=EDGE_CURVE('',#535,#624,#408,.T.);
#773=EDGE_CURVE('',#576,#625,#409,.T.);
#774=EDGE_CURVE('',#575,#626,#410,.T.);
#775=EDGE_CURVE('',#627,#552,#411,.T.);
#776=EDGE_CURVE('',#627,#628,#412,.T.);
#777=EDGE_CURVE('',#628,#551,#413,.T.);
#778=EDGE_CURVE('',#629,#554,#414,.T.);
#779=EDGE_CURVE('',#629,#627,#415,.T.);
#780=EDGE_CURVE('',#582,#630,#416,.T.);
#781=EDGE_CURVE('',#630,#630,#83,.T.);
#782=EDGE_CURVE('',#581,#631,#417,.T.);
#783=EDGE_CURVE('',#631,#631,#84,.T.);
#784=EDGE_CURVE('',#632,#629,#418,.T.);
#785=EDGE_CURVE('',#628,#632,#419,.T.);
#786=EDGE_CURVE('',#633,#633,#85,.T.);
#787=EDGE_CURVE('',#634,#634,#86,.T.);
#788=EDGE_CURVE('',#553,#632,#420,.T.);
#789=EDGE_CURVE('',#580,#634,#421,.T.);
#790=EDGE_CURVE('',#579,#633,#422,.T.);
#791=ORIENTED_EDGE('',*,*,#635,.T.);
#792=ORIENTED_EDGE('',*,*,#636,.F.);
#793=ORIENTED_EDGE('',*,*,#637,.T.);
#794=ORIENTED_EDGE('',*,*,#638,.T.);
#795=ORIENTED_EDGE('',*,*,#639,.F.);
#796=ORIENTED_EDGE('',*,*,#640,.F.);
#797=ORIENTED_EDGE('',*,*,#641,.F.);
#798=ORIENTED_EDGE('',*,*,#642,.F.);
#799=ORIENTED_EDGE('',*,*,#643,.F.);
#800=ORIENTED_EDGE('',*,*,#644,.F.);
#801=ORIENTED_EDGE('',*,*,#645,.F.);
#802=ORIENTED_EDGE('',*,*,#646,.T.);
#803=ORIENTED_EDGE('',*,*,#647,.F.);
#804=ORIENTED_EDGE('',*,*,#648,.F.);
#805=ORIENTED_EDGE('',*,*,#649,.F.);
#806=ORIENTED_EDGE('',*,*,#650,.F.);
#807=ORIENTED_EDGE('',*,*,#651,.F.);
#808=ORIENTED_EDGE('',*,*,#652,.F.);
#809=ORIENTED_EDGE('',*,*,#653,.F.);
#810=ORIENTED_EDGE('',*,*,#654,.F.);
#811=ORIENTED_EDGE('',*,*,#655,.F.);
#812=ORIENTED_EDGE('',*,*,#656,.T.);
#813=ORIENTED_EDGE('',*,*,#657,.F.);
#814=ORIENTED_EDGE('',*,*,#658,.F.);
#815=ORIENTED_EDGE('',*,*,#659,.F.);
#816=ORIENTED_EDGE('',*,*,#660,.T.);
#817=ORIENTED_EDGE('',*,*,#661,.F.);
#818=ORIENTED_EDGE('',*,*,#662,.F.);
#819=ORIENTED_EDGE('',*,*,#663,.F.);
#820=ORIENTED_EDGE('',*,*,#664,.F.);
#821=ORIENTED_EDGE('',*,*,#665,.T.);
#822=ORIENTED_EDGE('',*,*,#666,.T.);
#823=ORIENTED_EDGE('',*,*,#667,.F.);
#824=ORIENTED_EDGE('',*,*,#668,.F.);
#825=ORIENTED_EDGE('',*,*,#669,.T.);
#826=ORIENTED_EDGE('',*,*,#670,.F.);
#827=ORIENTED_EDGE('',*,*,#671,.T.);
#828=ORIENTED_EDGE('',*,*,#672,.T.);
#829=ORIENTED_EDGE('',*,*,#673,.T.);
#830=ORIENTED_EDGE('',*,*,#674,.T.);
#831=ORIENTED_EDGE('',*,*,#675,.T.);
#832=ORIENTED_EDGE('',*,*,#676,.T.);
#833=ORIENTED_EDGE('',*,*,#677,.T.);
#834=ORIENTED_EDGE('',*,*,#678,.T.);
#835=ORIENTED_EDGE('',*,*,#679,.T.);
#836=ORIENTED_EDGE('',*,*,#680,.T.);
#837=ORIENTED_EDGE('',*,*,#681,.F.);
#838=ORIENTED_EDGE('',*,*,#682,.F.);
#839=ORIENTED_EDGE('',*,*,#683,.F.);
#840=ORIENTED_EDGE('',*,*,#684,.T.);
#841=ORIENTED_EDGE('',*,*,#685,.F.);
#842=ORIENTED_EDGE('',*,*,#686,.F.);
#843=ORIENTED_EDGE('',*,*,#687,.T.);
#844=ORIENTED_EDGE('',*,*,#688,.T.);
#845=ORIENTED_EDGE('',*,*,#638,.F.);
#846=ORIENTED_EDGE('',*,*,#689,.F.);
#847=ORIENTED_EDGE('',*,*,#666,.F.);
#848=ORIENTED_EDGE('',*,*,#690,.T.);
#849=ORIENTED_EDGE('',*,*,#691,.F.);
#850=ORIENTED_EDGE('',*,*,#690,.F.);
#851=ORIENTED_EDGE('',*,*,#665,.F.);
#852=ORIENTED_EDGE('',*,*,#692,.T.);
#853=ORIENTED_EDGE('',*,*,#693,.F.);
#854=ORIENTED_EDGE('',*,*,#692,.F.);
#855=ORIENTED_EDGE('',*,*,#646,.F.);
#856=ORIENTED_EDGE('',*,*,#694,.F.);
#857=ORIENTED_EDGE('',*,*,#695,.T.);
#858=ORIENTED_EDGE('',*,*,#696,.T.);
#859=ORIENTED_EDGE('',*,*,#643,.T.);
#860=ORIENTED_EDGE('',*,*,#696,.F.);
#861=ORIENTED_EDGE('',*,*,#697,.T.);
#862=ORIENTED_EDGE('',*,*,#698,.T.);
#863=ORIENTED_EDGE('',*,*,#697,.F.);
#864=ORIENTED_EDGE('',*,*,#695,.F.);
#865=ORIENTED_EDGE('',*,*,#699,.F.);
#866=ORIENTED_EDGE('',*,*,#700,.F.);
#867=ORIENTED_EDGE('',*,*,#701,.T.);
#868=ORIENTED_EDGE('',*,*,#693,.T.);
#869=ORIENTED_EDGE('',*,*,#702,.T.);
#870=ORIENTED_EDGE('',*,*,#691,.T.);
#871=ORIENTED_EDGE('',*,*,#644,.T.);
#872=ORIENTED_EDGE('',*,*,#698,.F.);
#873=ORIENTED_EDGE('',*,*,#700,.T.);
#874=ORIENTED_EDGE('',*,*,#703,.F.);
#875=ORIENTED_EDGE('',*,*,#645,.T.);
#876=ORIENTED_EDGE('',*,*,#703,.T.);
#877=ORIENTED_EDGE('',*,*,#699,.T.);
#878=ORIENTED_EDGE('',*,*,#694,.T.);
#879=ORIENTED_EDGE('',*,*,#664,.T.);
#880=ORIENTED_EDGE('',*,*,#704,.T.);
#881=ORIENTED_EDGE('',*,*,#702,.F.);
#882=ORIENTED_EDGE('',*,*,#704,.F.);
#883=ORIENTED_EDGE('',*,*,#663,.T.);
#884=ORIENTED_EDGE('',*,*,#705,.T.);
#885=ORIENTED_EDGE('',*,*,#701,.F.);
#886=ORIENTED_EDGE('',*,*,#705,.F.);
#887=ORIENTED_EDGE('',*,*,#661,.T.);
#888=ORIENTED_EDGE('',*,*,#706,.T.);
#889=ORIENTED_EDGE('',*,*,#707,.T.);
#890=ORIENTED_EDGE('',*,*,#708,.T.);
#891=ORIENTED_EDGE('',*,*,#670,.T.);
#892=ORIENTED_EDGE('',*,*,#709,.T.);
#893=ORIENTED_EDGE('',*,*,#710,.F.);
#894=ORIENTED_EDGE('',*,*,#709,.F.);
#895=ORIENTED_EDGE('',*,*,#669,.F.);
#896=ORIENTED_EDGE('',*,*,#711,.T.);
#897=ORIENTED_EDGE('',*,*,#712,.F.);
#898=ORIENTED_EDGE('',*,*,#711,.F.);
#899=ORIENTED_EDGE('',*,*,#660,.F.);
#900=ORIENTED_EDGE('',*,*,#713,.F.);
#901=ORIENTED_EDGE('',*,*,#714,.T.);
#902=ORIENTED_EDGE('',*,*,#706,.F.);
#903=ORIENTED_EDGE('',*,*,#715,.F.);
#904=ORIENTED_EDGE('',*,*,#716,.F.);
#905=ORIENTED_EDGE('',*,*,#707,.F.);
#906=ORIENTED_EDGE('',*,*,#714,.F.);
#907=ORIENTED_EDGE('',*,*,#717,.T.);
#908=ORIENTED_EDGE('',*,*,#710,.T.);
#909=ORIENTED_EDGE('',*,*,#718,.T.);
#910=ORIENTED_EDGE('',*,*,#712,.T.);
#911=ORIENTED_EDGE('',*,*,#662,.T.);
#912=ORIENTED_EDGE('',*,*,#708,.F.);
#913=ORIENTED_EDGE('',*,*,#716,.T.);
#914=ORIENTED_EDGE('',*,*,#719,.T.);
#915=ORIENTED_EDGE('',*,*,#659,.T.);
#916=ORIENTED_EDGE('',*,*,#719,.F.);
#917=ORIENTED_EDGE('',*,*,#715,.T.);
#918=ORIENTED_EDGE('',*,*,#713,.T.);
#919=ORIENTED_EDGE('',*,*,#668,.T.);
#920=ORIENTED_EDGE('',*,*,#720,.T.);
#921=ORIENTED_EDGE('',*,*,#718,.F.);
#922=ORIENTED_EDGE('',*,*,#720,.F.);
#923=ORIENTED_EDGE('',*,*,#667,.T.);
#924=ORIENTED_EDGE('',*,*,#721,.T.);
#925=ORIENTED_EDGE('',*,*,#717,.F.);
#926=ORIENTED_EDGE('',*,*,#721,.F.);
#927=ORIENTED_EDGE('',*,*,#674,.F.);
#928=ORIENTED_EDGE('',*,*,#722,.T.);
#929=ORIENTED_EDGE('',*,*,#723,.F.);
#930=ORIENTED_EDGE('',*,*,#722,.F.);
#931=ORIENTED_EDGE('',*,*,#673,.F.);
#932=ORIENTED_EDGE('',*,*,#724,.T.);
#933=ORIENTED_EDGE('',*,*,#725,.F.);
#934=ORIENTED_EDGE('',*,*,#724,.F.);
#935=ORIENTED_EDGE('',*,*,#672,.F.);
#936=ORIENTED_EDGE('',*,*,#726,.T.);
#937=ORIENTED_EDGE('',*,*,#727,.F.);
#938=ORIENTED_EDGE('',*,*,#726,.F.);
#939=ORIENTED_EDGE('',*,*,#671,.F.);
#940=ORIENTED_EDGE('',*,*,#728,.T.);
#941=ORIENTED_EDGE('',*,*,#729,.F.);
#942=ORIENTED_EDGE('',*,*,#728,.F.);
#943=ORIENTED_EDGE('',*,*,#647,.T.);
#944=ORIENTED_EDGE('',*,*,#730,.F.);
#945=ORIENTED_EDGE('',*,*,#731,.T.);
#946=ORIENTED_EDGE('',*,*,#732,.T.);
#947=ORIENTED_EDGE('',*,*,#648,.T.);
#948=ORIENTED_EDGE('',*,*,#732,.F.);
#949=ORIENTED_EDGE('',*,*,#733,.T.);
#950=ORIENTED_EDGE('',*,*,#734,.F.);
#951=ORIENTED_EDGE('',*,*,#731,.F.);
#952=ORIENTED_EDGE('',*,*,#735,.F.);
#953=ORIENTED_EDGE('',*,*,#736,.F.);
#954=ORIENTED_EDGE('',*,*,#733,.F.);
#955=ORIENTED_EDGE('',*,*,#729,.T.);
#956=ORIENTED_EDGE('',*,*,#725,.T.);
#957=ORIENTED_EDGE('',*,*,#727,.T.);
#958=ORIENTED_EDGE('',*,*,#723,.T.);
#959=ORIENTED_EDGE('',*,*,#649,.T.);
#960=ORIENTED_EDGE('',*,*,#734,.T.);
#961=ORIENTED_EDGE('',*,*,#736,.T.);
#962=ORIENTED_EDGE('',*,*,#737,.F.);
#963=ORIENTED_EDGE('',*,*,#650,.T.);
#964=ORIENTED_EDGE('',*,*,#737,.T.);
#965=ORIENTED_EDGE('',*,*,#735,.T.);
#966=ORIENTED_EDGE('',*,*,#730,.T.);
#967=ORIENTED_EDGE('',*,*,#653,.T.);
#968=ORIENTED_EDGE('',*,*,#738,.T.);
#969=ORIENTED_EDGE('',*,*,#739,.T.);
#970=ORIENTED_EDGE('',*,*,#740,.F.);
#971=ORIENTED_EDGE('',*,*,#652,.T.);
#972=ORIENTED_EDGE('',*,*,#741,.F.);
#973=ORIENTED_EDGE('',*,*,#742,.T.);
#974=ORIENTED_EDGE('',*,*,#738,.F.);
#975=ORIENTED_EDGE('',*,*,#743,.F.);
#976=ORIENTED_EDGE('',*,*,#744,.F.);
#977=ORIENTED_EDGE('',*,*,#739,.F.);
#978=ORIENTED_EDGE('',*,*,#742,.F.);
#979=ORIENTED_EDGE('',*,*,#745,.T.);
#980=ORIENTED_EDGE('',*,*,#746,.T.);
#981=ORIENTED_EDGE('',*,*,#747,.T.);
#982=ORIENTED_EDGE('',*,*,#748,.T.);
#983=ORIENTED_EDGE('',*,*,#654,.T.);
#984=ORIENTED_EDGE('',*,*,#740,.T.);
#985=ORIENTED_EDGE('',*,*,#744,.T.);
#986=ORIENTED_EDGE('',*,*,#749,.T.);
#987=ORIENTED_EDGE('',*,*,#678,.F.);
#988=ORIENTED_EDGE('',*,*,#750,.T.);
#989=ORIENTED_EDGE('',*,*,#745,.F.);
#990=ORIENTED_EDGE('',*,*,#750,.F.);
#991=ORIENTED_EDGE('',*,*,#677,.F.);
#992=ORIENTED_EDGE('',*,*,#751,.T.);
#993=ORIENTED_EDGE('',*,*,#747,.F.);
#994=ORIENTED_EDGE('',*,*,#751,.F.);
#995=ORIENTED_EDGE('',*,*,#676,.F.);
#996=ORIENTED_EDGE('',*,*,#752,.T.);
#997=ORIENTED_EDGE('',*,*,#746,.F.);
#998=ORIENTED_EDGE('',*,*,#752,.F.);
#999=ORIENTED_EDGE('',*,*,#675,.F.);
#1000=ORIENTED_EDGE('',*,*,#753,.T.);
#1001=ORIENTED_EDGE('',*,*,#748,.F.);
#1002=ORIENTED_EDGE('',*,*,#753,.F.);
#1003=ORIENTED_EDGE('',*,*,#651,.T.);
#1004=ORIENTED_EDGE('',*,*,#749,.F.);
#1005=ORIENTED_EDGE('',*,*,#743,.T.);
#1006=ORIENTED_EDGE('',*,*,#741,.T.);
#1007=ORIENTED_EDGE('',*,*,#637,.F.);
#1008=ORIENTED_EDGE('',*,*,#754,.F.);
#1009=ORIENTED_EDGE('',*,*,#755,.T.);
#1010=ORIENTED_EDGE('',*,*,#689,.T.);
#1011=ORIENTED_EDGE('',*,*,#756,.T.);
#1012=ORIENTED_EDGE('',*,*,#757,.F.);
#1013=ORIENTED_EDGE('',*,*,#754,.T.);
#1014=ORIENTED_EDGE('',*,*,#636,.T.);
#1015=ORIENTED_EDGE('',*,*,#758,.T.);
#1016=ORIENTED_EDGE('',*,*,#687,.F.);
#1017=ORIENTED_EDGE('',*,*,#755,.F.);
#1018=ORIENTED_EDGE('',*,*,#757,.T.);
#1019=ORIENTED_EDGE('',*,*,#758,.F.);
#1020=ORIENTED_EDGE('',*,*,#756,.F.);
#1021=ORIENTED_EDGE('',*,*,#635,.F.);
#1022=ORIENTED_EDGE('',*,*,#688,.F.);
#1023=ORIENTED_EDGE('',*,*,#682,.T.);
#1024=ORIENTED_EDGE('',*,*,#759,.T.);
#1025=ORIENTED_EDGE('',*,*,#760,.F.);
#1026=ORIENTED_EDGE('',*,*,#759,.F.);
#1027=ORIENTED_EDGE('',*,*,#681,.T.);
#1028=ORIENTED_EDGE('',*,*,#761,.T.);
#1029=ORIENTED_EDGE('',*,*,#762,.F.);
#1030=ORIENTED_EDGE('',*,*,#761,.F.);
#1031=ORIENTED_EDGE('',*,*,#642,.T.);
#1032=ORIENTED_EDGE('',*,*,#763,.T.);
#1033=ORIENTED_EDGE('',*,*,#764,.T.);
#1034=ORIENTED_EDGE('',*,*,#765,.F.);
#1035=ORIENTED_EDGE('',*,*,#641,.T.);
#1036=ORIENTED_EDGE('',*,*,#766,.T.);
#1037=ORIENTED_EDGE('',*,*,#767,.T.);
#1038=ORIENTED_EDGE('',*,*,#763,.F.);
#1039=ORIENTED_EDGE('',*,*,#768,.F.);
#1040=ORIENTED_EDGE('',*,*,#764,.F.);
#1041=ORIENTED_EDGE('',*,*,#767,.F.);
#1042=ORIENTED_EDGE('',*,*,#769,.F.);
#1043=ORIENTED_EDGE('',*,*,#770,.T.);
#1044=ORIENTED_EDGE('',*,*,#760,.T.);
#1045=ORIENTED_EDGE('',*,*,#771,.T.);
#1046=ORIENTED_EDGE('',*,*,#762,.T.);
#1047=ORIENTED_EDGE('',*,*,#639,.T.);
#1048=ORIENTED_EDGE('',*,*,#765,.T.);
#1049=ORIENTED_EDGE('',*,*,#768,.T.);
#1050=ORIENTED_EDGE('',*,*,#772,.F.);
#1051=ORIENTED_EDGE('',*,*,#680,.F.);
#1052=ORIENTED_EDGE('',*,*,#773,.T.);
#1053=ORIENTED_EDGE('',*,*,#770,.F.);
#1054=ORIENTED_EDGE('',*,*,#773,.F.);
#1055=ORIENTED_EDGE('',*,*,#679,.F.);
#1056=ORIENTED_EDGE('',*,*,#774,.T.);
#1057=ORIENTED_EDGE('',*,*,#771,.F.);
#1058=ORIENTED_EDGE('',*,*,#774,.F.);
#1059=ORIENTED_EDGE('',*,*,#640,.T.);
#1060=ORIENTED_EDGE('',*,*,#772,.T.);
#1061=ORIENTED_EDGE('',*,*,#769,.T.);
#1062=ORIENTED_EDGE('',*,*,#766,.F.);
#1063=ORIENTED_EDGE('',*,*,#655,.T.);
#1064=ORIENTED_EDGE('',*,*,#775,.F.);
#1065=ORIENTED_EDGE('',*,*,#776,.T.);
#1066=ORIENTED_EDGE('',*,*,#777,.T.);
#1067=ORIENTED_EDGE('',*,*,#658,.T.);
#1068=ORIENTED_EDGE('',*,*,#778,.F.);
#1069=ORIENTED_EDGE('',*,*,#779,.T.);
#1070=ORIENTED_EDGE('',*,*,#775,.T.);
#1071=ORIENTED_EDGE('',*,*,#686,.T.);
#1072=ORIENTED_EDGE('',*,*,#780,.T.);
#1073=ORIENTED_EDGE('',*,*,#781,.F.);
#1074=ORIENTED_EDGE('',*,*,#780,.F.);
#1075=ORIENTED_EDGE('',*,*,#685,.T.);
#1076=ORIENTED_EDGE('',*,*,#782,.T.);
#1077=ORIENTED_EDGE('',*,*,#783,.F.);
#1078=ORIENTED_EDGE('',*,*,#782,.F.);
#1079=ORIENTED_EDGE('',*,*,#776,.F.);
#1080=ORIENTED_EDGE('',*,*,#779,.F.);
#1081=ORIENTED_EDGE('',*,*,#784,.F.);
#1082=ORIENTED_EDGE('',*,*,#785,.F.);
#1083=ORIENTED_EDGE('',*,*,#781,.T.);
#1084=ORIENTED_EDGE('',*,*,#786,.T.);
#1085=ORIENTED_EDGE('',*,*,#783,.T.);
#1086=ORIENTED_EDGE('',*,*,#787,.T.);
#1087=ORIENTED_EDGE('',*,*,#657,.T.);
#1088=ORIENTED_EDGE('',*,*,#788,.T.);
#1089=ORIENTED_EDGE('',*,*,#784,.T.);
#1090=ORIENTED_EDGE('',*,*,#778,.T.);
#1091=ORIENTED_EDGE('',*,*,#684,.F.);
#1092=ORIENTED_EDGE('',*,*,#789,.T.);
#1093=ORIENTED_EDGE('',*,*,#787,.F.);
#1094=ORIENTED_EDGE('',*,*,#789,.F.);
#1095=ORIENTED_EDGE('',*,*,#656,.F.);
#1096=ORIENTED_EDGE('',*,*,#777,.F.);
#1097=ORIENTED_EDGE('',*,*,#785,.T.);
#1098=ORIENTED_EDGE('',*,*,#788,.F.);
#1099=ORIENTED_EDGE('',*,*,#683,.T.);
#1100=ORIENTED_EDGE('',*,*,#790,.T.);
#1101=ORIENTED_EDGE('',*,*,#786,.F.);
#1102=ORIENTED_EDGE('',*,*,#790,.F.);
#1103=PLANE('',#1261);
#1104=PLANE('',#1262);
#1105=PLANE('',#1264);
#1106=PLANE('',#1266);
#1107=PLANE('',#1268);
#1108=PLANE('',#1270);
#1109=PLANE('',#1272);
#1110=PLANE('',#1274);
#1111=PLANE('',#1276);
#1112=PLANE('',#1278);
#1113=PLANE('',#1280);
#1114=PLANE('',#1282);
#1115=PLANE('',#1284);
#1116=PLANE('',#1286);
#1117=PLANE('',#1288);
#1118=PLANE('',#1290);
#1119=PLANE('',#1292);
#1120=PLANE('',#1294);
#1121=PLANE('',#1296);
#1122=PLANE('',#1298);
#1123=PLANE('',#1300);
#1124=PLANE('',#1302);
#1125=PLANE('',#1304);
#1126=PLANE('',#1306);
#1127=PLANE('',#1308);
#1128=PLANE('',#1310);
#1129=PLANE('',#1315);
#1130=PLANE('',#1316);
#1131=PLANE('',#1317);
#1132=PLANE('',#1320);
#1133=PLANE('',#1321);
#1134=PLANE('',#1324);
#1135=PLANE('',#1329);
#1136=PLANE('',#1330);
#1137=PLANE('',#1333);
#1138=PLANE('',#1334);
#1139=PLANE('',#1345);
#1140=PLANE('',#1346);
#1141=PLANE('',#1347);
#1142=PLANE('',#1348);
#1143=PLANE('',#1349);
#1144=PLANE('',#1350);
#1145=PLANE('',#1351);
#1146=PLANE('',#1352);
#1147=PLANE('',#1357);
#1148=PLANE('',#1362);
#1149=PLANE('',#1363);
#1150=PLANE('',#1364);
#1151=PLANE('',#1365);
#1152=PLANE('',#1366);
#1153=PLANE('',#1371);
#1154=PLANE('',#1372);
#1155=PLANE('',#1373);
#1156=PLANE('',#1376);
#1157=PLANE('',#1379);
#1158=PLANE('',#1380);
#1159=PLANE('',#1381);
#1160=PLANE('',#1386);
#1161=PLANE('',#1389);
#1162=PLANE('',#1391);
#1163=ADVANCED_FACE('',(#117,#87,#88,#89,#90,#91,#92),#1103,.T.);
#1164=ADVANCED_FACE('',(#118),#1104,.T.);
#1165=ADVANCED_FACE('',(#119),#1105,.T.);
#1166=ADVANCED_FACE('',(#120),#1106,.T.);
#1167=ADVANCED_FACE('',(#121),#1107,.T.);
#1168=ADVANCED_FACE('',(#122),#1108,.T.);
#1169=ADVANCED_FACE('',(#123),#1109,.T.);
#1170=ADVANCED_FACE('',(#124),#1110,.T.);
#1171=ADVANCED_FACE('',(#125),#1111,.T.);
#1172=ADVANCED_FACE('',(#126),#1112,.T.);
#1173=ADVANCED_FACE('',(#127),#1113,.T.);
#1174=ADVANCED_FACE('',(#128),#1114,.T.);
#1175=ADVANCED_FACE('',(#129),#1115,.T.);
#1176=ADVANCED_FACE('',(#130),#1116,.T.);
#1177=ADVANCED_FACE('',(#131),#1117,.T.);
#1178=ADVANCED_FACE('',(#132),#1118,.T.);
#1179=ADVANCED_FACE('',(#133),#1119,.T.);
#1180=ADVANCED_FACE('',(#134),#1120,.T.);
#1181=ADVANCED_FACE('',(#135),#1121,.T.);
#1182=ADVANCED_FACE('',(#136),#1122,.T.);
#1183=ADVANCED_FACE('',(#137),#1123,.T.);
#1184=ADVANCED_FACE('',(#138),#1124,.T.);
#1185=ADVANCED_FACE('',(#139),#1125,.T.);
#1186=ADVANCED_FACE('',(#140),#1126,.T.);
#1187=ADVANCED_FACE('',(#141),#1127,.T.);
#1188=ADVANCED_FACE('',(#142),#1128,.T.);
#1189=ADVANCED_FACE('',(#143),#15,.F.);
#1190=ADVANCED_FACE('',(#144),#16,.F.);
#1191=ADVANCED_FACE('',(#145),#1129,.T.);
#1192=ADVANCED_FACE('',(#146),#1130,.T.);
#1193=ADVANCED_FACE('',(#147,#93,#94,#95,#96),#1131,.T.);
#1194=ADVANCED_FACE('',(#148),#1132,.T.);
#1195=ADVANCED_FACE('',(#149),#1133,.T.);
#1196=ADVANCED_FACE('',(#150),#17,.F.);
#1197=ADVANCED_FACE('',(#151),#18,.F.);
#1198=ADVANCED_FACE('',(#152),#1134,.T.);
#1199=ADVANCED_FACE('',(#153),#19,.F.);
#1200=ADVANCED_FACE('',(#154),#20,.F.);
#1201=ADVANCED_FACE('',(#155),#1135,.T.);
#1202=ADVANCED_FACE('',(#156,#97,#98,#99,#100),#1136,.T.);
#1203=ADVANCED_FACE('',(#157),#1137,.T.);
#1204=ADVANCED_FACE('',(#158),#1138,.T.);
#1205=ADVANCED_FACE('',(#159),#21,.F.);
#1206=ADVANCED_FACE('',(#160),#22,.F.);
#1207=ADVANCED_FACE('',(#161),#23,.F.);
#1208=ADVANCED_FACE('',(#162),#24,.F.);
#1209=ADVANCED_FACE('',(#163),#25,.F.);
#1210=ADVANCED_FACE('',(#164),#26,.F.);
#1211=ADVANCED_FACE('',(#165),#1139,.T.);
#1212=ADVANCED_FACE('',(#166),#1140,.T.);
#1213=ADVANCED_FACE('',(#167,#101,#102,#103,#104),#1141,.T.);
#1214=ADVANCED_FACE('',(#168),#1142,.T.);
#1215=ADVANCED_FACE('',(#169),#1143,.T.);
#1216=ADVANCED_FACE('',(#170),#1144,.T.);
#1217=ADVANCED_FACE('',(#171),#1145,.T.);
#1218=ADVANCED_FACE('',(#172,#105,#106,#107,#108),#1146,.T.);
#1219=ADVANCED_FACE('',(#173),#1147,.T.);
#1220=ADVANCED_FACE('',(#174),#27,.F.);
#1221=ADVANCED_FACE('',(#175),#28,.F.);
#1222=ADVANCED_FACE('',(#176),#29,.F.);
#1223=ADVANCED_FACE('',(#177),#30,.F.);
#1224=ADVANCED_FACE('',(#178),#1148,.T.);
#1225=ADVANCED_FACE('',(#179),#1149,.T.);
#1226=ADVANCED_FACE('',(#180),#1150,.T.);
#1227=ADVANCED_FACE('',(#181),#1151,.T.);
#1228=ADVANCED_FACE('',(#182),#1152,.T.);
#1229=ADVANCED_FACE('',(#183),#31,.F.);
#1230=ADVANCED_FACE('',(#184),#32,.F.);
#1231=ADVANCED_FACE('',(#185),#1153,.T.);
#1232=ADVANCED_FACE('',(#186),#1154,.T.);
#1233=ADVANCED_FACE('',(#187,#109,#110,#111,#112),#1155,.T.);
#1234=ADVANCED_FACE('',(#188),#1156,.T.);
#1235=ADVANCED_FACE('',(#189),#33,.F.);
#1236=ADVANCED_FACE('',(#190),#34,.F.);
#1237=ADVANCED_FACE('',(#191),#1157,.T.);
#1238=ADVANCED_FACE('',(#192),#1158,.T.);
#1239=ADVANCED_FACE('',(#193),#1159,.T.);
#1240=ADVANCED_FACE('',(#194),#35,.F.);
#1241=ADVANCED_FACE('',(#195),#36,.F.);
#1242=ADVANCED_FACE('',(#196,#113,#114,#115,#116),#1160,.T.);
#1243=ADVANCED_FACE('',(#197),#1161,.T.);
#1244=ADVANCED_FACE('',(#198),#37,.F.);
#1245=ADVANCED_FACE('',(#199),#1162,.T.);
#1246=ADVANCED_FACE('',(#200),#38,.F.);
#1247=CLOSED_SHELL('',(#1163,#1164,#1165,#1166,#1167,#1168,#1169,#1170,
#1171,#1172,#1173,#1174,#1175,#1176,#1177,#1178,#1179,#1180,#1181,#1182,
#1183,#1184,#1185,#1186,#1187,#1188,#1189,#1190,#1191,#1192,#1193,#1194,
#1195,#1196,#1197,#1198,#1199,#1200,#1201,#1202,#1203,#1204,#1205,#1206,
#1207,#1208,#1209,#1210,#1211,#1212,#1213,#1214,#1215,#1216,#1217,#1218,
#1219,#1220,#1221,#1222,#1223,#1224,#1225,#1226,#1227,#1228,#1229,#1230,
#1231,#1232,#1233,#1234,#1235,#1236,#1237,#1238,#1239,#1240,#1241,#1242,
#1243,#1244,#1245,#1246));
#1248=DERIVED_UNIT_ELEMENT(#1250,1.);
#1249=DERIVED_UNIT_ELEMENT(#2117,-3.);
#1250=(
MASS_UNIT()
NAMED_UNIT(*)
SI_UNIT(.KILO.,.GRAM.)
);
#1251=DERIVED_UNIT((#1248,#1249));
#1252=MEASURE_REPRESENTATION_ITEM('density measure',
POSITIVE_RATIO_MEASURE(7850.),#1251);
#1253=PROPERTY_DEFINITION_REPRESENTATION(#1258,#1255);
#1254=PROPERTY_DEFINITION_REPRESENTATION(#1259,#1256);
#1255=REPRESENTATION('material name',(#1257),#2114);
#1256=REPRESENTATION('density',(#1252),#2114);
#1257=DESCRIPTIVE_REPRESENTATION_ITEM('Acero','Acero');
#1258=PROPERTY_DEFINITION('material property','material name',#2124);
#1259=PROPERTY_DEFINITION('material property','density of part',#2124);
#1260=AXIS2_PLACEMENT_3D('',#1767,#1393,#1394);
#1261=AXIS2_PLACEMENT_3D('',#1768,#1395,#1396);
#1262=AXIS2_PLACEMENT_3D('',#1825,#1425,#1426);
#1263=AXIS2_PLACEMENT_3D('',#1827,#1427,#1428);
#1264=AXIS2_PLACEMENT_3D('',#1828,#1429,#1430);
#1265=AXIS2_PLACEMENT_3D('',#1830,#1431,#1432);
#1266=AXIS2_PLACEMENT_3D('',#1831,#1433,#1434);
#1267=AXIS2_PLACEMENT_3D('',#1833,#1435,#1436);
#1268=AXIS2_PLACEMENT_3D('',#1834,#1437,#1438);
#1269=AXIS2_PLACEMENT_3D('',#1836,#1439,#1440);
#1270=AXIS2_PLACEMENT_3D('',#1837,#1441,#1442);
#1271=AXIS2_PLACEMENT_3D('',#1839,#1443,#1444);
#1272=AXIS2_PLACEMENT_3D('',#1840,#1445,#1446);
#1273=AXIS2_PLACEMENT_3D('',#1842,#1447,#1448);
#1274=AXIS2_PLACEMENT_3D('',#1843,#1449,#1450);
#1275=AXIS2_PLACEMENT_3D('',#1845,#1451,#1452);
#1276=AXIS2_PLACEMENT_3D('',#1846,#1453,#1454);
#1277=AXIS2_PLACEMENT_3D('',#1848,#1455,#1456);
#1278=AXIS2_PLACEMENT_3D('',#1849,#1457,#1458);
#1279=AXIS2_PLACEMENT_3D('',#1851,#1459,#1460);
#1280=AXIS2_PLACEMENT_3D('',#1852,#1461,#1462);
#1281=AXIS2_PLACEMENT_3D('',#1854,#1463,#1464);
#1282=AXIS2_PLACEMENT_3D('',#1855,#1465,#1466);
#1283=AXIS2_PLACEMENT_3D('',#1857,#1467,#1468);
#1284=AXIS2_PLACEMENT_3D('',#1858,#1469,#1470);
#1285=AXIS2_PLACEMENT_3D('',#1860,#1471,#1472);
#1286=AXIS2_PLACEMENT_3D('',#1861,#1473,#1474);
#1287=AXIS2_PLACEMENT_3D('',#1863,#1475,#1476);
#1288=AXIS2_PLACEMENT_3D('',#1864,#1477,#1478);
#1289=AXIS2_PLACEMENT_3D('',#1866,#1479,#1480);
#1290=AXIS2_PLACEMENT_3D('',#1867,#1481,#1482);
#1291=AXIS2_PLACEMENT_3D('',#1869,#1483,#1484);
#1292=AXIS2_PLACEMENT_3D('',#1870,#1485,#1486);
#1293=AXIS2_PLACEMENT_3D('',#1872,#1487,#1488);
#1294=AXIS2_PLACEMENT_3D('',#1873,#1489,#1490);
#1295=AXIS2_PLACEMENT_3D('',#1875,#1491,#1492);
#1296=AXIS2_PLACEMENT_3D('',#1876,#1493,#1494);
#1297=AXIS2_PLACEMENT_3D('',#1878,#1495,#1496);
#1298=AXIS2_PLACEMENT_3D('',#1879,#1497,#1498);
#1299=AXIS2_PLACEMENT_3D('',#1881,#1499,#1500);
#1300=AXIS2_PLACEMENT_3D('',#1882,#1501,#1502);
#1301=AXIS2_PLACEMENT_3D('',#1884,#1503,#1504);
#1302=AXIS2_PLACEMENT_3D('',#1885,#1505,#1506);
#1303=AXIS2_PLACEMENT_3D('',#1887,#1507,#1508);
#1304=AXIS2_PLACEMENT_3D('',#1888,#1509,#1510);
#1305=AXIS2_PLACEMENT_3D('',#1890,#1511,#1512);
#1306=AXIS2_PLACEMENT_3D('',#1891,#1513,#1514);
#1307=AXIS2_PLACEMENT_3D('',#1893,#1515,#1516);
#1308=AXIS2_PLACEMENT_3D('',#1894,#1517,#1518);
#1309=AXIS2_PLACEMENT_3D('',#1896,#1519,#1520);
#1310=AXIS2_PLACEMENT_3D('',#1897,#1521,#1522);
#1311=AXIS2_PLACEMENT_3D('',#1903,#1526,#1527);
#1312=AXIS2_PLACEMENT_3D('',#1906,#1529,#1530);
#1313=AXIS2_PLACEMENT_3D('',#1907,#1531,#1532);
#1314=AXIS2_PLACEMENT_3D('',#1910,#1534,#1535);
#1315=AXIS2_PLACEMENT_3D('',#1911,#1536,#1537);
#1316=AXIS2_PLACEMENT_3D('',#1917,#1541,#1542);
#1317=AXIS2_PLACEMENT_3D('',#1921,#1545,#1546);
#1318=AXIS2_PLACEMENT_3D('',#1926,#1549,#1550);
#1319=AXIS2_PLACEMENT_3D('',#1928,#1551,#1552);
#1320=AXIS2_PLACEMENT_3D('',#1929,#1553,#1554);
#1321=AXIS2_PLACEMENT_3D('',#1931,#1556,#1557);
#1322=AXIS2_PLACEMENT_3D('',#1932,#1558,#1559);
#1323=AXIS2_PLACEMENT_3D('',#1934,#1561,#1562);
#1324=AXIS2_PLACEMENT_3D('',#1936,#1564,#1565);
#1325=AXIS2_PLACEMENT_3D('',#1942,#1569,#1570);
#1326=AXIS2_PLACEMENT_3D('',#1945,#1572,#1573);
#1327=AXIS2_PLACEMENT_3D('',#1946,#1574,#1575);
#1328=AXIS2_PLACEMENT_3D('',#1949,#1577,#1578);
#1329=AXIS2_PLACEMENT_3D('',#1950,#1579,#1580);
#1330=AXIS2_PLACEMENT_3D('',#1954,#1583,#1584);
#1331=AXIS2_PLACEMENT_3D('',#1959,#1587,#1588);
#1332=AXIS2_PLACEMENT_3D('',#1961,#1589,#1590);
#1333=AXIS2_PLACEMENT_3D('',#1962,#1591,#1592);
#1334=AXIS2_PLACEMENT_3D('',#1964,#1594,#1595);
#1335=AXIS2_PLACEMENT_3D('',#1965,#1596,#1597);
#1336=AXIS2_PLACEMENT_3D('',#1967,#1599,#1600);
#1337=AXIS2_PLACEMENT_3D('',#1969,#1602,#1603);
#1338=AXIS2_PLACEMENT_3D('',#1972,#1605,#1606);
#1339=AXIS2_PLACEMENT_3D('',#1973,#1607,#1608);
#1340=AXIS2_PLACEMENT_3D('',#1976,#1610,#1611);
#1341=AXIS2_PLACEMENT_3D('',#1977,#1612,#1613);
#1342=AXIS2_PLACEMENT_3D('',#1980,#1615,#1616);
#1343=AXIS2_PLACEMENT_3D('',#1981,#1617,#1618);
#1344=AXIS2_PLACEMENT_3D('',#1984,#1620,#1621);
#1345=AXIS2_PLACEMENT_3D('',#1985,#1622,#1623);
#1346=AXIS2_PLACEMENT_3D('',#1991,#1627,#1628);
#1347=AXIS2_PLACEMENT_3D('',#1995,#1631,#1632);
#1348=AXIS2_PLACEMENT_3D('',#1999,#1635,#1636);
#1349=AXIS2_PLACEMENT_3D('',#2001,#1638,#1639);
#1350=AXIS2_PLACEMENT_3D('',#2002,#1640,#1641);
#1351=AXIS2_PLACEMENT_3D('',#2008,#1645,#1646);
#1352=AXIS2_PLACEMENT_3D('',#2012,#1649,#1650);
#1353=AXIS2_PLACEMENT_3D('',#2017,#1653,#1654);
#1354=AXIS2_PLACEMENT_3D('',#2019,#1655,#1656);
#1355=AXIS2_PLACEMENT_3D('',#2021,#1657,#1658);
#1356=AXIS2_PLACEMENT_3D('',#2023,#1659,#1660);
#1357=AXIS2_PLACEMENT_3D('',#2024,#1661,#1662);
#1358=AXIS2_PLACEMENT_3D('',#2026,#1664,#1665);
#1359=AXIS2_PLACEMENT_3D('',#2028,#1667,#1668);
#1360=AXIS2_PLACEMENT_3D('',#2030,#1670,#1671);
#1361=AXIS2_PLACEMENT_3D('',#2032,#1673,#1674);
#1362=AXIS2_PLACEMENT_3D('',#2034,#1676,#1677);
#1363=AXIS2_PLACEMENT_3D('',#2035,#1678,#1679);
#1364=AXIS2_PLACEMENT_3D('',#2039,#1682,#1683);
#1365=AXIS2_PLACEMENT_3D('',#2043,#1686,#1687);
#1366=AXIS2_PLACEMENT_3D('',#2045,#1689,#1690);
#1367=AXIS2_PLACEMENT_3D('',#2046,#1691,#1692);
#1368=AXIS2_PLACEMENT_3D('',#2049,#1694,#1695);
#1369=AXIS2_PLACEMENT_3D('',#2050,#1696,#1697);
#1370=AXIS2_PLACEMENT_3D('',#2053,#1699,#1700);
#1371=AXIS2_PLACEMENT_3D('',#2054,#1701,#1702);
#1372=AXIS2_PLACEMENT_3D('',#2060,#1706,#1707);
#1373=AXIS2_PLACEMENT_3D('',#2064,#1710,#1711);
#1374=AXIS2_PLACEMENT_3D('',#2069,#1714,#1715);
#1375=AXIS2_PLACEMENT_3D('',#2071,#1716,#1717);
#1376=AXIS2_PLACEMENT_3D('',#2072,#1718,#1719);
#1377=AXIS2_PLACEMENT_3D('',#2074,#1721,#1722);
#1378=AXIS2_PLACEMENT_3D('',#2076,#1724,#1725);
#1379=AXIS2_PLACEMENT_3D('',#2078,#1727,#1728);
#1380=AXIS2_PLACEMENT_3D('',#2079,#1729,#1730);
#1381=AXIS2_PLACEMENT_3D('',#2085,#1734,#1735);
#1382=AXIS2_PLACEMENT_3D('',#2089,#1738,#1739);
#1383=AXIS2_PLACEMENT_3D('',#2092,#1741,#1742);
#1384=AXIS2_PLACEMENT_3D('',#2093,#1743,#1744);
#1385=AXIS2_PLACEMENT_3D('',#2096,#1746,#1747);
#1386=AXIS2_PLACEMENT_3D('',#2097,#1748,#1749);
#1387=AXIS2_PLACEMENT_3D('',#2102,#1752,#1753);
#1388=AXIS2_PLACEMENT_3D('',#2104,#1754,#1755);
#1389=AXIS2_PLACEMENT_3D('',#2105,#1756,#1757);
#1390=AXIS2_PLACEMENT_3D('',#2107,#1759,#1760);
#1391=AXIS2_PLACEMENT_3D('',#2109,#1762,#1763);
#1392=AXIS2_PLACEMENT_3D('',#2110,#1764,#1765);
#1393=DIRECTION('axis',(0.,0.,1.));
#1394=DIRECTION('refdir',(1.,0.,0.));
#1395=DIRECTION('center_axis',(3.90312782094769E-18,-1.,-8.67361737993E-19));
#1396=DIRECTION('ref_axis',(1.,3.90312782094782E-18,-1.50213175231784E-13));
#1397=DIRECTION('',(-1.,0.,0.));
#1398=DIRECTION('',(1.50213175231784E-13,-8.67361737992413E-19,1.));
#1399=DIRECTION('',(1.,-1.44170414515486E-42,0.));
#1400=DIRECTION('',(0.,0.,1.));
#1401=DIRECTION('',(1.,0.,0.));
#1402=DIRECTION('',(0.,0.,-1.));
#1403=DIRECTION('',(-1.,0.,0.));
#1404=DIRECTION('',(0.,0.,1.));
#1405=DIRECTION('',(1.,0.,0.));
#1406=DIRECTION('',(0.,0.,-1.));
#1407=DIRECTION('',(-1.,0.,0.));
#1408=DIRECTION('',(-8.10431320602443E-32,8.67361737993E-19,-1.));
#1409=DIRECTION('',(1.,0.,0.));
#1410=DIRECTION('',(0.,0.,-1.));
#1411=DIRECTION('',(-1.,0.,0.));
#1412=DIRECTION('',(0.,0.,1.));
#1413=DIRECTION('',(1.,0.,0.));
#1414=DIRECTION('',(0.,0.,-1.));
#1415=DIRECTION('',(-1.,0.,0.));
#1416=DIRECTION('',(0.,0.,1.));
#1417=DIRECTION('',(1.,0.,0.));
#1418=DIRECTION('',(8.10431320602443E-32,-8.67361737993E-19,1.));
#1419=DIRECTION('',(-1.,0.,0.));
#1420=DIRECTION('',(0.,0.,1.));
#1421=DIRECTION('',(1.,0.,0.));
#1422=DIRECTION('',(8.10431320602443E-32,-8.67361737993E-19,1.));
#1423=DIRECTION('',(-1.,0.,0.));
#1424=DIRECTION('',(0.,0.,1.));
#1425=DIRECTION('center_axis',(0.,-1.,0.));
#1426=DIRECTION('ref_axis',(0.,0.,-1.));
#1427=DIRECTION('center_axis',(0.,1.,0.));
#1428=DIRECTION('ref_axis',(0.,0.,-1.));
#1429=DIRECTION('center_axis',(0.,-1.,0.));
#1430=DIRECTION('ref_axis',(0.,0.,-1.));
#1431=DIRECTION('center_axis',(0.,1.,0.));
#1432=DIRECTION('ref_axis',(0.,0.,-1.));
#1433=DIRECTION('center_axis',(0.,-1.,0.));
#1434=DIRECTION('ref_axis',(0.,0.,-1.));
#1435=DIRECTION('center_axis',(0.,-1.,-6.27276008913214E-15));
#1436=DIRECTION('ref_axis',(0.,0.,-1.));
#1437=DIRECTION('center_axis',(0.,-1.,0.));
#1438=DIRECTION('ref_axis',(0.,0.,-1.));
#1439=DIRECTION('center_axis',(0.,-1.,-6.27276008913214E-15));
#1440=DIRECTION('ref_axis',(0.,0.,-1.));
#1441=DIRECTION('center_axis',(0.,-1.,0.));
#1442=DIRECTION('ref_axis',(0.,0.,-1.));
#1443=DIRECTION('center_axis',(0.,1.,0.));
#1444=DIRECTION('ref_axis',(0.,0.,-1.));
#1445=DIRECTION('center_axis',(0.,-1.,0.));
#1446=DIRECTION('ref_axis',(0.,0.,-1.));
#1447=DIRECTION('center_axis',(0.,1.,0.));
#1448=DIRECTION('ref_axis',(0.,0.,-1.));
#1449=DIRECTION('center_axis',(0.,-1.,0.));
#1450=DIRECTION('ref_axis',(0.,0.,-1.));
#1451=DIRECTION('center_axis',(0.,-1.,-6.27276008913214E-15));
#1452=DIRECTION('ref_axis',(0.,0.,-1.));
#1453=DIRECTION('center_axis',(0.,-1.,0.));
#1454=DIRECTION('ref_axis',(0.,0.,-1.));
#1455=DIRECTION('center_axis',(0.,1.,0.));
#1456=DIRECTION('ref_axis',(0.,0.,-1.));
#1457=DIRECTION('center_axis',(0.,-1.,0.));
#1458=DIRECTION('ref_axis',(0.,0.,-1.));
#1459=DIRECTION('center_axis',(0.,-1.,-6.27276008913214E-15));
#1460=DIRECTION('ref_axis',(0.,0.,-1.));
#1461=DIRECTION('center_axis',(0.,-1.,0.));
#1462=DIRECTION('ref_axis',(0.,0.,-1.));
#1463=DIRECTION('center_axis',(0.,-1.,-6.27276008913214E-15));
#1464=DIRECTION('ref_axis',(0.,0.,-1.));
#1465=DIRECTION('center_axis',(0.,-1.,0.));
#1466=DIRECTION('ref_axis',(0.,0.,-1.));
#1467=DIRECTION('center_axis',(0.,-1.,-6.27276008913214E-15));
#1468=DIRECTION('ref_axis',(0.,0.,-1.));
#1469=DIRECTION('center_axis',(0.,-1.,0.));
#1470=DIRECTION('ref_axis',(0.,0.,-1.));
#1471=DIRECTION('center_axis',(0.,-1.,-6.27276008913214E-15));
#1472=DIRECTION('ref_axis',(0.,0.,-1.));
#1473=DIRECTION('center_axis',(0.,-1.,0.));
#1474=DIRECTION('ref_axis',(0.,0.,-1.));
#1475=DIRECTION('center_axis',(0.,-1.,-6.27276008913214E-15));
#1476=DIRECTION('ref_axis',(0.,0.,-1.));
#1477=DIRECTION('center_axis',(0.,-1.,0.));
#1478=DIRECTION('ref_axis',(0.,0.,-1.));
#1479=DIRECTION('center_axis',(0.,-1.,-6.27276008913214E-15));
#1480=DIRECTION('ref_axis',(0.,0.,-1.));
#1481=DIRECTION('center_axis',(0.,-1.,0.));
#1482=DIRECTION('ref_axis',(0.,0.,-1.));
#1483=DIRECTION('center_axis',(0.,-1.,-6.27276008913214E-15));
#1484=DIRECTION('ref_axis',(0.,0.,-1.));
#1485=DIRECTION('center_axis',(0.,-1.,0.));
#1486=DIRECTION('ref_axis',(0.,0.,-1.));
#1487=DIRECTION('center_axis',(0.,-1.,-6.27276008913214E-15));
#1488=DIRECTION('ref_axis',(0.,0.,-1.));
#1489=DIRECTION('center_axis',(0.,-1.,0.));
#1490=DIRECTION('ref_axis',(0.,0.,-1.));
#1491=DIRECTION('center_axis',(0.,-1.,-6.27276008913214E-15));
#1492=DIRECTION('ref_axis',(0.,0.,-1.));
#1493=DIRECTION('center_axis',(0.,-1.,0.));
#1494=DIRECTION('ref_axis',(0.,0.,-1.));
#1495=DIRECTION('center_axis',(0.,-1.,-6.27276008913214E-15));
#1496=DIRECTION('ref_axis',(0.,0.,-1.));
#1497=DIRECTION('center_axis',(0.,-1.,0.));
#1498=DIRECTION('ref_axis',(0.,0.,-1.));
#1499=DIRECTION('center_axis',(0.,1.,0.));
#1500=DIRECTION('ref_axis',(0.,0.,-1.));
#1501=DIRECTION('center_axis',(0.,-1.,0.));
#1502=DIRECTION('ref_axis',(0.,0.,-1.));
#1503=DIRECTION('center_axis',(0.,1.,0.));
#1504=DIRECTION('ref_axis',(0.,0.,-1.));
#1505=DIRECTION('center_axis',(0.,-1.,0.));
#1506=DIRECTION('ref_axis',(0.,0.,-1.));
#1507=DIRECTION('center_axis',(0.,1.,0.));
#1508=DIRECTION('ref_axis',(0.,0.,-1.));
#1509=DIRECTION('center_axis',(0.,-1.,0.));
#1510=DIRECTION('ref_axis',(0.,0.,-1.));
#1511=DIRECTION('center_axis',(0.,-1.,-6.27276008913214E-15));
#1512=DIRECTION('ref_axis',(0.,0.,-1.));
#1513=DIRECTION('center_axis',(0.,-1.,0.));
#1514=DIRECTION('ref_axis',(0.,0.,-1.));
#1515=DIRECTION('center_axis',(0.,1.,0.));
#1516=DIRECTION('ref_axis',(0.,0.,-1.));
#1517=DIRECTION('center_axis',(0.,-1.,0.));
#1518=DIRECTION('ref_axis',(0.,0.,-1.));
#1519=DIRECTION('center_axis',(0.,1.,0.));
#1520=DIRECTION('ref_axis',(0.,0.,-1.));
#1521=DIRECTION('center_axis',(1.,0.,0.));
#1522=DIRECTION('ref_axis',(0.,0.,1.));
#1523=DIRECTION('',(0.,0.,1.));
#1524=DIRECTION('',(0.,-1.,0.));
#1525=DIRECTION('',(0.,-1.,0.));
#1526=DIRECTION('center_axis',(9.334200079536E-14,-1.,0.));
#1527=DIRECTION('ref_axis',(0.,0.,-1.));
#1528=DIRECTION('',(9.334200079536E-14,-1.,0.));
#1529=DIRECTION('center_axis',(-9.334200079536E-14,1.,0.));
#1530=DIRECTION('ref_axis',(0.,0.,-1.));
#1531=DIRECTION('center_axis',(9.334200079536E-14,-1.,0.));
#1532=DIRECTION('ref_axis',(0.,0.,-1.));
#1533=DIRECTION('',(9.334200079536E-14,-1.,0.));
#1534=DIRECTION('center_axis',(-9.334200079536E-14,1.,0.));
#1535=DIRECTION('ref_axis',(0.,0.,-1.));
#1536=DIRECTION('center_axis',(1.,9.334200079536E-14,0.));
#1537=DIRECTION('ref_axis',(0.,0.,1.));
#1538=DIRECTION('',(0.,1.,0.));
#1539=DIRECTION('',(0.,0.,-1.));
#1540=DIRECTION('',(0.,1.,0.));
#1541=DIRECTION('center_axis',(0.,0.,-1.));
#1542=DIRECTION('ref_axis',(1.,9.334200079536E-14,0.));
#1543=DIRECTION('',(-1.,-9.334200079536E-14,0.));
#1544=DIRECTION('',(0.,1.,0.));
#1545=DIRECTION('center_axis',(9.334200079536E-14,-1.,0.));
#1546=DIRECTION('ref_axis',(0.,0.,-1.));
#1547=DIRECTION('',(1.,9.334200079536E-14,0.));
#1548=DIRECTION('',(0.,0.,1.));
#1549=DIRECTION('center_axis',(-9.334200079536E-14,1.,0.));
#1550=DIRECTION('ref_axis',(0.,0.,-1.));
#1551=DIRECTION('center_axis',(-9.334200079536E-14,1.,0.));
#1552=DIRECTION('ref_axis',(0.,0.,-1.));
#1553=DIRECTION('center_axis',(-1.,-9.334200079536E-14,0.));
#1554=DIRECTION('ref_axis',(0.,0.,-1.));
#1555=DIRECTION('',(9.334200079536E-14,-1.,0.));
#1556=DIRECTION('center_axis',(0.,0.,1.));
#1557=DIRECTION('ref_axis',(-1.,-9.334200079536E-14,0.));
#1558=DIRECTION('center_axis',(9.334200079536E-14,-1.,0.));
#1559=DIRECTION('ref_axis',(0.,0.,-1.));
#1560=DIRECTION('',(9.334200079536E-14,-1.,0.));
#1561=DIRECTION('center_axis',(9.334200079536E-14,-1.,0.));
#1562=DIRECTION('ref_axis',(0.,0.,-1.));
#1563=DIRECTION('',(9.334200079536E-14,-1.,0.));
#1564=DIRECTION('center_axis',(0.,0.,1.));
#1565=DIRECTION('ref_axis',(-1.,-9.334200079536E-14,0.));
#1566=DIRECTION('',(9.334200079536E-14,-1.,0.));
#1567=DIRECTION('',(1.,9.334200079536E-14,0.));
#1568=DIRECTION('',(0.,1.,0.));
#1569=DIRECTION('center_axis',(9.334200079536E-14,-1.,0.));
#1570=DIRECTION('ref_axis',(0.,0.,-1.));
#1571=DIRECTION('',(9.334200079536E-14,-1.,0.));
#1572=DIRECTION('center_axis',(-9.334200079536E-14,1.,0.));
#1573=DIRECTION('ref_axis',(0.,0.,-1.));
#1574=DIRECTION('center_axis',(9.334200079536E-14,-1.,0.));
#1575=DIRECTION('ref_axis',(0.,0.,-1.));
#1576=DIRECTION('',(9.334200079536E-14,-1.,0.));
#1577=DIRECTION('center_axis',(-9.334200079536E-14,1.,0.));
#1578=DIRECTION('ref_axis',(0.,0.,-1.));
#1579=DIRECTION('center_axis',(-1.,-9.334200079536E-14,0.));
#1580=DIRECTION('ref_axis',(0.,0.,-1.));
#1581=DIRECTION('',(0.,1.,0.));
#1582=DIRECTION('',(0.,0.,1.));
#1583=DIRECTION('center_axis',(9.334200079536E-14,-1.,0.));
#1584=DIRECTION('ref_axis',(0.,0.,-1.));
#1585=DIRECTION('',(-1.,-9.334200079536E-14,0.));
#1586=DIRECTION('',(0.,0.,-1.));
#1587=DIRECTION('center_axis',(-9.334200079536E-14,1.,0.));
#1588=DIRECTION('ref_axis',(0.,0.,-1.));
#1589=DIRECTION('center_axis',(-9.334200079536E-14,1.,0.));
#1590=DIRECTION('ref_axis',(0.,0.,-1.));
#1591=DIRECTION('center_axis',(1.,9.334200079536E-14,0.));
#1592=DIRECTION('ref_axis',(0.,0.,1.));
#1593=DIRECTION('',(0.,1.,0.));
#1594=DIRECTION('center_axis',(0.,0.,-1.));
#1595=DIRECTION('ref_axis',(1.,9.334200079536E-14,0.));
#1596=DIRECTION('center_axis',(9.334200079536E-14,-1.,0.));
#1597=DIRECTION('ref_axis',(0.,0.,-1.));
#1598=DIRECTION('',(9.334200079536E-14,-1.,0.));
#1599=DIRECTION('center_axis',(9.334200079536E-14,-1.,0.));
#1600=DIRECTION('ref_axis',(0.,0.,-1.));
#1601=DIRECTION('',(9.334200079536E-14,-1.,0.));
#1602=DIRECTION('center_axis',(9.334200079536E-14,-1.,0.));
#1603=DIRECTION('ref_axis',(0.,0.,-1.));
#1604=DIRECTION('',(9.334200079536E-14,-1.,0.));
#1605=DIRECTION('center_axis',(-9.334200079536E-14,1.,0.));
#1606=DIRECTION('ref_axis',(0.,0.,-1.));
#1607=DIRECTION('center_axis',(9.334200079536E-14,-1.,0.));
#1608=DIRECTION('ref_axis',(0.,0.,-1.));
#1609=DIRECTION('',(9.334200079536E-14,-1.,0.));
#1610=DIRECTION('center_axis',(-9.334200079536E-14,1.,0.));
#1611=DIRECTION('ref_axis',(0.,0.,-1.));
#1612=DIRECTION('center_axis',(9.334200079536E-14,-1.,0.));
#1613=DIRECTION('ref_axis',(0.,0.,-1.));
#1614=DIRECTION('',(9.334200079536E-14,-1.,0.));
#1615=DIRECTION('center_axis',(-9.334200079536E-14,1.,0.));
#1616=DIRECTION('ref_axis',(0.,0.,-1.));
#1617=DIRECTION('center_axis',(9.334200079536E-14,-1.,0.));
#1618=DIRECTION('ref_axis',(0.,0.,-1.));
#1619=DIRECTION('',(9.334200079536E-14,-1.,0.));
#1620=DIRECTION('center_axis',(-9.334200079536E-14,1.,0.));
#1621=DIRECTION('ref_axis',(0.,0.,-1.));
#1622=DIRECTION('center_axis',(0.,0.,-1.));
#1623=DIRECTION('ref_axis',(1.,9.334200079536E-14,0.));
#1624=DIRECTION('',(0.,1.,0.));
#1625=DIRECTION('',(-1.,-9.334200079536E-14,0.));
#1626=DIRECTION('',(0.,1.,0.));
#1627=DIRECTION('center_axis',(-1.,-9.334200079536E-14,0.));
#1628=DIRECTION('ref_axis',(0.,0.,-1.));
#1629=DIRECTION('',(0.,0.,1.));
#1630=DIRECTION('',(9.334200079536E-14,-1.,0.));
#1631=DIRECTION('center_axis',(9.334200079536E-14,-1.,0.));
#1632=DIRECTION('ref_axis',(0.,0.,-1.));
#1633=DIRECTION('',(0.,0.,-1.));
#1634=DIRECTION('',(1.,9.334200079536E-14,0.));
#1635=DIRECTION('center_axis',(0.,0.,1.));
#1636=DIRECTION('ref_axis',(-1.,-9.334200079536E-14,0.));
#1637=DIRECTION('',(9.334200079536E-14,-1.,0.));
#1638=DIRECTION('center_axis',(1.,9.334200079536E-14,0.));
#1639=DIRECTION('ref_axis',(0.,0.,1.));
#1640=DIRECTION('center_axis',(0.,0.,1.));
#1641=DIRECTION('ref_axis',(-1.,-9.334200079536E-14,0.));
#1642=DIRECTION('',(9.334200079536E-14,-1.,0.));
#1643=DIRECTION('',(1.,9.334200079536E-14,0.));
#1644=DIRECTION('',(9.334200079536E-14,-1.,0.));
#1645=DIRECTION('center_axis',(-1.,-9.334200079536E-14,0.));
#1646=DIRECTION('ref_axis',(0.,0.,-1.));
#1647=DIRECTION('',(0.,1.,0.));
#1648=DIRECTION('',(0.,0.,1.));
#1649=DIRECTION('center_axis',(9.334200079536E-14,-1.,0.));
#1650=DIRECTION('ref_axis',(0.,0.,-1.));
#1651=DIRECTION('',(-1.,-9.334200079536E-14,0.));
#1652=DIRECTION('',(0.,0.,-1.));
#1653=DIRECTION('center_axis',(-9.334200079536E-14,1.,0.));
#1654=DIRECTION('ref_axis',(0.,0.,-1.));
#1655=DIRECTION('center_axis',(-9.334200079536E-14,1.,0.));
#1656=DIRECTION('ref_axis',(0.,0.,-1.));
#1657=DIRECTION('center_axis',(-9.334200079536E-14,1.,0.));
#1658=DIRECTION('ref_axis',(0.,0.,-1.));
#1659=DIRECTION('center_axis',(-9.334200079536E-14,1.,0.));
#1660=DIRECTION('ref_axis',(0.,0.,-1.));
#1661=DIRECTION('center_axis',(1.,9.334200079536E-14,0.));
#1662=DIRECTION('ref_axis',(0.,0.,1.));
#1663=DIRECTION('',(0.,1.,0.));
#1664=DIRECTION('center_axis',(9.334200079536E-14,-1.,0.));
#1665=DIRECTION('ref_axis',(0.,0.,-1.));
#1666=DIRECTION('',(9.334200079536E-14,-1.,0.));
#1667=DIRECTION('center_axis',(9.334200079536E-14,-1.,0.));
#1668=DIRECTION('ref_axis',(0.,0.,-1.));
#1669=DIRECTION('',(9.334200079536E-14,-1.,0.));
#1670=DIRECTION('center_axis',(9.334200079536E-14,-1.,0.));
#1671=DIRECTION('ref_axis',(0.,0.,-1.));
#1672=DIRECTION('',(9.334200079536E-14,-1.,0.));
#1673=DIRECTION('center_axis',(9.334200079536E-14,-1.,0.));
#1674=DIRECTION('ref_axis',(0.,0.,-1.));
#1675=DIRECTION('',(9.334200079536E-14,-1.,0.));
#1676=DIRECTION('center_axis',(0.,0.,-1.));
#1677=DIRECTION('ref_axis',(1.,9.334200079536E-14,0.));
#1678=DIRECTION('center_axis',(-1.42867863864873E-28,-3.76950907846212E-13,
-1.));
#1679=DIRECTION('ref_axis',(-2.94902990916088E-17,1.,-3.76950907846212E-13));
#1680=DIRECTION('',(3.90312782094769E-18,-1.,-8.67361737992999E-19));
#1681=DIRECTION('',(1.,3.90312782094782E-18,-1.50213175231784E-13));
#1682=DIRECTION('center_axis',(-1.,-3.90312782094782E-18,1.50213175231784E-13));
#1683=DIRECTION('ref_axis',(3.90312782094769E-18,-1.,-8.67361737993E-19));
#1684=DIRECTION('',(-3.90312782094769E-18,1.,8.67361737992999E-19));
#1685=DIRECTION('',(1.50213175231784E-13,-8.67361737992413E-19,1.));
#1686=DIRECTION('center_axis',(-3.90312782094769E-18,1.,8.67361737993E-19));
#1687=DIRECTION('ref_axis',(-1.,-3.90312782094782E-18,1.50213175231784E-13));
#1688=DIRECTION('',(1.,3.90312782094782E-18,-1.50213175231784E-13));
#1689=DIRECTION('center_axis',(1.50213175231784E-13,-8.67361737992414E-19,
1.));
#1690=DIRECTION('ref_axis',(1.,3.90312782094782E-18,-1.50213175231784E-13));
#1691=DIRECTION('center_axis',(9.334200079536E-14,-1.,0.));
#1692=DIRECTION('ref_axis',(0.,0.,-1.));
#1693=DIRECTION('',(9.334200079536E-14,-1.,0.));
#1694=DIRECTION('center_axis',(-9.334200079536E-14,1.,0.));
#1695=DIRECTION('ref_axis',(0.,0.,-1.));
#1696=DIRECTION('center_axis',(9.334200079536E-14,-1.,0.));
#1697=DIRECTION('ref_axis',(0.,0.,-1.));
#1698=DIRECTION('',(9.334200079536E-14,-1.,0.));
#1699=DIRECTION('center_axis',(-9.334200079536E-14,1.,0.));
#1700=DIRECTION('ref_axis',(0.,0.,-1.));
#1701=DIRECTION('center_axis',(1.,9.334200079536E-14,0.));
#1702=DIRECTION('ref_axis',(0.,0.,1.));
#1703=DIRECTION('',(9.334200079536E-14,-1.,0.));
#1704=DIRECTION('',(0.,0.,-1.));
#1705=DIRECTION('',(9.334200079536E-14,-1.,0.));
#1706=DIRECTION('center_axis',(0.,0.,1.));
#1707=DIRECTION('ref_axis',(-1.,-9.334200079536E-14,0.));
#1708=DIRECTION('',(9.334200079536E-14,-1.,0.));
#1709=DIRECTION('',(1.,9.334200079536E-14,0.));
#1710=DIRECTION('center_axis',(9.334200079536E-14,-1.,0.));
#1711=DIRECTION('ref_axis',(0.,0.,-1.));
#1712=DIRECTION('',(-1.,-9.334200079536E-14,0.));
#1713=DIRECTION('',(0.,0.,1.));
#1714=DIRECTION('center_axis',(-9.334200079536E-14,1.,0.));
#1715=DIRECTION('ref_axis',(0.,0.,-1.));
#1716=DIRECTION('center_axis',(-9.334200079536E-14,1.,0.));
#1717=DIRECTION('ref_axis',(0.,0.,-1.));
#1718=DIRECTION('center_axis',(0.,0.,-1.));
#1719=DIRECTION('ref_axis',(1.,9.334200079536E-14,0.));
#1720=DIRECTION('',(9.334200079536E-14,-1.,0.));
#1721=DIRECTION('center_axis',(9.334200079536E-14,-1.,0.));
#1722=DIRECTION('ref_axis',(0.,0.,-1.));
#1723=DIRECTION('',(9.334200079536E-14,-1.,0.));
#1724=DIRECTION('center_axis',(9.334200079536E-14,-1.,0.));
#1725=DIRECTION('ref_axis',(0.,0.,-1.));
#1726=DIRECTION('',(9.334200079536E-14,-1.,0.));
#1727=DIRECTION('center_axis',(-1.,-9.334200079536E-14,0.));
#1728=DIRECTION('ref_axis',(0.,0.,-1.));
#1729=DIRECTION('center_axis',(0.,0.,-1.));
#1730=DIRECTION('ref_axis',(1.,9.334200079536E-14,0.));
#1731=DIRECTION('',(0.,1.,0.));
#1732=DIRECTION('',(-1.,-9.334200079536E-14,0.));
#1733=DIRECTION('',(0.,1.,0.));
#1734=DIRECTION('center_axis',(1.,9.334200079536E-14,0.));
#1735=DIRECTION('ref_axis',(0.,0.,1.));
#1736=DIRECTION('',(0.,1.,0.));
#1737=DIRECTION('',(0.,0.,-1.));
#1738=DIRECTION('center_axis',(9.334200079536E-14,-1.,0.));
#1739=DIRECTION('ref_axis',(0.,0.,-1.));
#1740=DIRECTION('',(9.334200079536E-14,-1.,0.));
#1741=DIRECTION('center_axis',(-9.334200079536E-14,1.,0.));
#1742=DIRECTION('ref_axis',(0.,0.,-1.));
#1743=DIRECTION('center_axis',(9.334200079536E-14,-1.,0.));
#1744=DIRECTION('ref_axis',(0.,0.,-1.));
#1745=DIRECTION('',(9.334200079536E-14,-1.,0.));
#1746=DIRECTION('center_axis',(-9.334200079536E-14,1.,0.));
#1747=DIRECTION('ref_axis',(0.,0.,-1.));
#1748=DIRECTION('center_axis',(9.334200079536E-14,-1.,0.));
#1749=DIRECTION('ref_axis',(0.,0.,-1.));
#1750=DIRECTION('',(1.,9.334200079536E-14,0.));
#1751=DIRECTION('',(0.,0.,1.));
#1752=DIRECTION('center_axis',(-9.334200079536E-14,1.,0.));
#1753=DIRECTION('ref_axis',(0.,0.,-1.));
#1754=DIRECTION('center_axis',(-9.334200079536E-14,1.,0.));
#1755=DIRECTION('ref_axis',(0.,0.,-1.));
#1756=DIRECTION('center_axis',(0.,0.,1.));
#1757=DIRECTION('ref_axis',(-1.,-9.334200079536E-14,0.));
#1758=DIRECTION('',(9.334200079536E-14,-1.,0.));
#1759=DIRECTION('center_axis',(9.334200079536E-14,-1.,0.));
#1760=DIRECTION('ref_axis',(0.,0.,-1.));
#1761=DIRECTION('',(9.334200079536E-14,-1.,0.));
#1762=DIRECTION('center_axis',(-1.,-9.334200079536E-14,0.));
#1763=DIRECTION('ref_axis',(0.,0.,-1.));
#1764=DIRECTION('center_axis',(9.334200079536E-14,-1.,0.));
#1765=DIRECTION('ref_axis',(0.,0.,-1.));
#1766=DIRECTION('',(9.334200079536E-14,-1.,0.));
#1767=CARTESIAN_POINT('',(0.,0.,0.));
#1768=CARTESIAN_POINT('Origin',(-324.500000000014,20.4118853798429,-3360.40890853307));
#1769=CARTESIAN_POINT('',(2329.99999999999,20.4118853798429,-2160.40890853307));
#1770=CARTESIAN_POINT('',(-329.999999999833,20.4118853798429,-2160.40890853307));
#1771=CARTESIAN_POINT('',(2329.99999999999,20.4118853798429,-2160.40890853307));
#1772=CARTESIAN_POINT('',(-330.000000000014,20.4118853798429,-3360.40890853307));
#1773=CARTESIAN_POINT('',(-330.000000000014,20.4118853798429,-3360.40890853307));
#1774=CARTESIAN_POINT('',(2329.99999999999,20.4118853798429,-3360.40890853307));
#1775=CARTESIAN_POINT('',(-330.000000000014,20.4118853798429,-3360.40890853307));
#1776=CARTESIAN_POINT('',(2329.99999999999,20.4118853798429,-3360.40890853307));
#1777=CARTESIAN_POINT('',(960.,20.4118853798429,-2500.));
#1778=CARTESIAN_POINT('',(1040.,20.4118853798429,-2500.));
#1779=CARTESIAN_POINT('',(1018.99999999999,20.4118853798429,-2500.));
#1780=CARTESIAN_POINT('',(960.,20.4118853798429,-2420.));
#1781=CARTESIAN_POINT('',(960.,20.4118853798429,-2593.95445426653));
#1782=CARTESIAN_POINT('',(1040.,20.4118853798429,-2420.));
#1783=CARTESIAN_POINT('',(986.499999999993,20.4118853798429,-2420.));
#1784=CARTESIAN_POINT('',(1040.,20.4118853798429,-2593.95445426653));
#1785=CARTESIAN_POINT('',(960.000000000001,20.4118853798429,-3140.));
#1786=CARTESIAN_POINT('',(1040.,20.4118853798429,-3140.));
#1787=CARTESIAN_POINT('',(986.499999999994,20.4118853798429,-3140.));
#1788=CARTESIAN_POINT('',(960.000000000001,20.4118853798429,-3060.));
#1789=CARTESIAN_POINT('',(960.000000000001,20.4118853798429,-2930.20445426653));
#1790=CARTESIAN_POINT('',(1040.,20.4118853798429,-3060.));
#1791=CARTESIAN_POINT('',(986.499999999994,20.4118853798429,-3060.));
#1792=CARTESIAN_POINT('',(1040.,20.4118853798429,-3240.20445426653));
#1793=CARTESIAN_POINT('',(-79.9999999999996,20.4118853798429,-3180.));
#1794=CARTESIAN_POINT('',(3.61400616865463E-13,20.4118853798429,-3180.));
#1795=CARTESIAN_POINT('',(466.499999999993,20.4118853798429,-3180.));
#1796=CARTESIAN_POINT('',(-79.9999999999996,20.4118853798429,-3100.));
#1797=CARTESIAN_POINT('',(-79.9999999999996,20.4118853798429,-2933.95445426653));
#1798=CARTESIAN_POINT('',(3.61400616865888E-13,20.4118853798429,-3100.));
#1799=CARTESIAN_POINT('',(466.499999999993,20.4118853798429,-3100.));
#1800=CARTESIAN_POINT('',(3.5527136788005E-13,20.4118853798429,-2933.95445426653));
#1801=CARTESIAN_POINT('',(2040.,20.4118853798429,-3180.));
#1802=CARTESIAN_POINT('',(2120.,20.4118853798429,-3180.));
#1803=CARTESIAN_POINT('',(1526.49999999999,20.4118853798429,-3180.));
#1804=CARTESIAN_POINT('',(2040.,20.4118853798429,-3100.));
#1805=CARTESIAN_POINT('',(2040.,20.4118853798429,-2966.45445426653));
#1806=CARTESIAN_POINT('',(2120.,20.4118853798429,-3100.));
#1807=CARTESIAN_POINT('',(1526.49999999999,20.4118853798429,-3100.));
#1808=CARTESIAN_POINT('',(2120.,20.4118853798429,-2966.45445426653));
#1809=CARTESIAN_POINT('',(-79.9999999999996,20.4118853798429,-2460.));
#1810=CARTESIAN_POINT('',(3.61400616865884E-13,20.4118853798429,-2460.));
#1811=CARTESIAN_POINT('',(498.999999999993,20.4118853798429,-2460.));
#1812=CARTESIAN_POINT('',(-79.9999999999996,20.4118853798429,-2380.));
#1813=CARTESIAN_POINT('',(-79.9999999999996,20.4118853798429,-2880.20445426653));
#1814=CARTESIAN_POINT('',(3.61400616865931E-13,20.4118853798429,-2380.));
#1815=CARTESIAN_POINT('',(498.999999999993,20.4118853798429,-2380.));
#1816=CARTESIAN_POINT('',(3.5527136788005E-13,20.4118853798429,-2590.20445426653));
#1817=CARTESIAN_POINT('',(2040.,20.4118853798429,-2460.));
#1818=CARTESIAN_POINT('',(2120.,20.4118853798429,-2460.));
#1819=CARTESIAN_POINT('',(1558.99999999999,20.4118853798429,-2460.));
#1820=CARTESIAN_POINT('',(2040.,20.4118853798429,-2380.));
#1821=CARTESIAN_POINT('',(2040.,20.4118853798429,-2880.20445426653));
#1822=CARTESIAN_POINT('',(2120.,20.4118853798429,-2380.));
#1823=CARTESIAN_POINT('',(1558.99999999999,20.4118853798429,-2380.));
#1824=CARTESIAN_POINT('',(2120.,20.4118853798429,-2573.95445426653));
#1825=CARTESIAN_POINT('Origin',(1005.49999999999,20.4118853798429,-2760.40890853307));
#1826=CARTESIAN_POINT('',(1020.,20.4118853798447,-3075.));
#1827=CARTESIAN_POINT('Origin',(1020.,20.4118853798443,-3080.));
#1828=CARTESIAN_POINT('Origin',(1005.49999999999,20.4118853798429,-2760.40890853307));
#1829=CARTESIAN_POINT('',(980.000000000001,20.4118853798411,-3075.));
#1830=CARTESIAN_POINT('Origin',(980.000000000001,20.4118853798406,-3080.));
#1831=CARTESIAN_POINT('Origin',(1005.49999999999,20.4118853798429,-2760.40890853307));
#1832=CARTESIAN_POINT('',(1020.,20.4118853799665,-3115.));
#1833=CARTESIAN_POINT('Origin',(1020.,20.411885379966,-3120.));
#1834=CARTESIAN_POINT('Origin',(1005.49999999999,20.4118853798429,-2760.40890853307));
#1835=CARTESIAN_POINT('',(980.000000000001,20.4118853799628,-3115.));
#1836=CARTESIAN_POINT('Origin',(980.000000000001,20.4118853799623,-3120.));
#1837=CARTESIAN_POINT('Origin',(1005.49999999999,20.4118853798429,-2760.40890853307));
#1838=CARTESIAN_POINT('',(2100.,20.4118853799456,-2395.));
#1839=CARTESIAN_POINT('Origin',(2100.,20.4118853799451,-2400.));
#1840=CARTESIAN_POINT('Origin',(1005.49999999999,20.4118853798429,-2760.40890853307));
#1841=CARTESIAN_POINT('',(2060.,20.4118853799418,-2395.));
#1842=CARTESIAN_POINT('Origin',(2060.,20.4118853799413,-2400.));
#1843=CARTESIAN_POINT('Origin',(1005.49999999999,20.4118853798429,-2760.40890853307));
#1844=CARTESIAN_POINT('',(2060.,20.4118853800635,-2435.));
#1845=CARTESIAN_POINT('Origin',(2060.,20.411885380063,-2440.));
#1846=CARTESIAN_POINT('Origin',(1005.49999999999,20.4118853798429,-2760.40890853307));
#1847=CARTESIAN_POINT('',(2100.,20.4118853799456,-2435.));
#1848=CARTESIAN_POINT('Origin',(2100.,20.4118853799451,-2440.));
#1849=CARTESIAN_POINT('Origin',(1005.49999999999,20.4118853798429,-2760.40890853307));
#1850=CARTESIAN_POINT('',(-19.9999999999996,20.4118853798694,-3115.));
#1851=CARTESIAN_POINT('Origin',(-19.9999999999996,20.4118853798689,-3120.));
#1852=CARTESIAN_POINT('Origin',(1005.49999999999,20.4118853798429,-2760.40890853307));
#1853=CARTESIAN_POINT('',(-59.9999999999996,20.4118853798656,-3115.));
#1854=CARTESIAN_POINT('Origin',(-59.9999999999996,20.4118853798651,-3120.));
#1855=CARTESIAN_POINT('Origin',(1005.49999999999,20.4118853798429,-2760.40890853307));
#1856=CARTESIAN_POINT('',(-19.9999999999996,20.4118853798689,-3155.));
#1857=CARTESIAN_POINT('Origin',(-19.9999999999996,20.4118853798689,-3160.));
#1858=CARTESIAN_POINT('Origin',(1005.49999999999,20.4118853798429,-2760.40890853307));
#1859=CARTESIAN_POINT('',(-59.9999999999996,20.4118853798651,-3155.));
#1860=CARTESIAN_POINT('Origin',(-59.9999999999996,20.4118853798651,-3160.));
#1861=CARTESIAN_POINT('Origin',(1005.49999999999,20.4118853798429,-2760.40890853307));
#1862=CARTESIAN_POINT('',(2060.,20.411885380063,-3155.));
#1863=CARTESIAN_POINT('Origin',(2060.,20.411885380063,-3160.));
#1864=CARTESIAN_POINT('Origin',(1005.49999999999,20.4118853798429,-2760.40890853307));
#1865=CARTESIAN_POINT('',(2100.,20.4118853800668,-3155.));
#1866=CARTESIAN_POINT('Origin',(2100.,20.4118853800668,-3160.));
#1867=CARTESIAN_POINT('Origin',(1005.49999999999,20.4118853798429,-2760.40890853307));
#1868=CARTESIAN_POINT('',(2060.,20.4118853800635,-3115.));
#1869=CARTESIAN_POINT('Origin',(2060.,20.411885380063,-3120.));
#1870=CARTESIAN_POINT('Origin',(1005.49999999999,20.4118853798429,-2760.40890853307));
#1871=CARTESIAN_POINT('',(2100.,20.4118853800673,-3115.));
#1872=CARTESIAN_POINT('Origin',(2100.,20.4118853800668,-3120.));
#1873=CARTESIAN_POINT('Origin',(1005.49999999999,20.4118853798429,-2760.40890853307));
#1874=CARTESIAN_POINT('',(980.,20.4118853799628,-2435.));
#1875=CARTESIAN_POINT('Origin',(980.,20.4118853799623,-2440.));
#1876=CARTESIAN_POINT('Origin',(1005.49999999999,20.4118853798429,-2760.40890853307));
#1877=CARTESIAN_POINT('',(1020.,20.4118853799665,-2435.));
#1878=CARTESIAN_POINT('Origin',(1020.,20.411885379966,-2440.));
#1879=CARTESIAN_POINT('Origin',(1005.49999999999,20.4118853798429,-2760.40890853307));
#1880=CARTESIAN_POINT('',(980.,20.4118853798411,-2475.));
#1881=CARTESIAN_POINT('Origin',(980.,20.4118853798406,-2480.));
#1882=CARTESIAN_POINT('Origin',(1005.49999999999,20.4118853798429,-2760.40890853307));
#1883=CARTESIAN_POINT('',(1020.,20.4118853798447,-2475.));
#1884=CARTESIAN_POINT('Origin',(1020.,20.4118853798443,-2480.));
#1885=CARTESIAN_POINT('Origin',(1005.49999999999,20.4118853798429,-2760.40890853307));
#1886=CARTESIAN_POINT('',(-19.9999999999996,20.4118853797477,-2435.));
#1887=CARTESIAN_POINT('Origin',(-19.9999999999996,20.4118853797472,-2440.));
#1888=CARTESIAN_POINT('Origin',(1005.49999999999,20.4118853798429,-2760.40890853307));
#1889=CARTESIAN_POINT('',(-59.9999999999996,20.4118853798656,-2435.));
#1890=CARTESIAN_POINT('Origin',(-59.9999999999996,20.4118853798651,-2440.));
#1891=CARTESIAN_POINT('Origin',(1005.49999999999,20.4118853798429,-2760.40890853307));
#1892=CARTESIAN_POINT('',(-59.9999999999996,20.4118853797439,-2395.));
#1893=CARTESIAN_POINT('Origin',(-59.9999999999996,20.4118853797434,-2400.));
#1894=CARTESIAN_POINT('Origin',(1005.49999999999,20.4118853798429,-2760.40890853307));
#1895=CARTESIAN_POINT('',(-19.9999999999996,20.4118853797477,-2395.));
#1896=CARTESIAN_POINT('Origin',(-19.9999999999996,20.4118853797472,-2400.));
#1897=CARTESIAN_POINT('Origin',(2329.99999999999,50.4118853798429,-3360.40890853307));
#1898=CARTESIAN_POINT('',(2329.99999999999,50.4118853798429,-3360.40890853307));
#1899=CARTESIAN_POINT('',(2329.99999999999,50.4118853798429,-2160.40890853307));
#1900=CARTESIAN_POINT('',(2329.99999999999,50.4118853798429,-3360.40890853307));
#1901=CARTESIAN_POINT('',(2329.99999999999,50.4118853798429,-2160.40890853307));
#1902=CARTESIAN_POINT('',(2329.99999999999,50.4118853798429,-3360.40890853307));
#1903=CARTESIAN_POINT('Origin',(980.000000000037,-362.999999999912,-3120.));
#1904=CARTESIAN_POINT('',(980.000000000073,-747.999999999912,-3115.));
#1905=CARTESIAN_POINT('',(980.000000000037,-362.999999999912,-3115.));
#1906=CARTESIAN_POINT('Origin',(980.000000000073,-747.999999999912,-3120.));
#1907=CARTESIAN_POINT('Origin',(1020.00000000004,-362.999999999908,-3120.));
#1908=CARTESIAN_POINT('',(1020.00000000007,-747.999999999908,-3115.));
#1909=CARTESIAN_POINT('',(1020.00000000004,-362.999999999908,-3115.));
#1910=CARTESIAN_POINT('Origin',(1020.00000000007,-747.999999999908,-3120.));
#1911=CARTESIAN_POINT('Origin',(1040.,22.0000000000936,-3132.5));
#1912=CARTESIAN_POINT('',(1040.00000000007,-747.999999999906,-3060.));
#1913=CARTESIAN_POINT('',(1040.,20.4118853798467,-3060.));
#1914=CARTESIAN_POINT('',(1040.00000000007,-747.999999999906,-3140.));
#1915=CARTESIAN_POINT('',(1040.00000000007,-747.999999999906,-3075.));
#1916=CARTESIAN_POINT('',(1040.,20.4118853798472,-3140.));
#1917=CARTESIAN_POINT('Origin',(967.500000000001,22.0000000000869,-3140.));
#1918=CARTESIAN_POINT('',(960.000000000073,-747.999999999914,-3140.));
#1919=CARTESIAN_POINT('',(1025.00000000007,-747.999999999908,-3140.));
#1920=CARTESIAN_POINT('',(960.000000000001,20.4118853798472,-3140.));
#1921=CARTESIAN_POINT('Origin',(1000.00000000007,-747.99999999991,-3100.));
#1922=CARTESIAN_POINT('',(960.000000000073,-747.999999999914,-3060.));
#1923=CARTESIAN_POINT('',(975.000000000073,-747.999999999913,-3060.));
#1924=CARTESIAN_POINT('',(960.000000000073,-747.999999999914,-3125.));
#1925=CARTESIAN_POINT('',(1020.00000000007,-747.999999999908,-3075.));
#1926=CARTESIAN_POINT('Origin',(1020.00000000007,-747.999999999908,-3080.));
#1927=CARTESIAN_POINT('',(980.000000000073,-747.999999999912,-3075.));
#1928=CARTESIAN_POINT('Origin',(980.000000000073,-747.999999999912,-3080.));
#1929=CARTESIAN_POINT('Origin',(960.000000000001,22.0000000000862,-3067.5));
#1930=CARTESIAN_POINT('',(960.000000000001,22.0000000000862,-3060.));
#1931=CARTESIAN_POINT('Origin',(1032.5,22.0000000000929,-3060.));
#1932=CARTESIAN_POINT('Origin',(980.000000000037,-362.999999999912,-3080.));
#1933=CARTESIAN_POINT('',(980.000000000037,-362.999999999912,-3075.));
#1934=CARTESIAN_POINT('Origin',(1020.00000000004,-362.999999999908,-3080.));
#1935=CARTESIAN_POINT('',(1020.00000000004,-362.999999999908,-3075.));
#1936=CARTESIAN_POINT('Origin',(2080.,22.0000000001945,-2380.));
#1937=CARTESIAN_POINT('',(2040.00000000007,-747.999999999809,-2380.));
#1938=CARTESIAN_POINT('',(2040.,22.0000000001907,-2380.));
#1939=CARTESIAN_POINT('',(2120.00000000007,-747.999999999802,-2380.));
#1940=CARTESIAN_POINT('',(2055.00000000007,-747.999999999808,-2380.));
#1941=CARTESIAN_POINT('',(2120.,20.4118853798424,-2380.));
#1942=CARTESIAN_POINT('Origin',(2100.00000000004,-362.999999999804,-2440.));
#1943=CARTESIAN_POINT('',(2100.00000000007,-747.999999999804,-2435.));
#1944=CARTESIAN_POINT('',(2100.00000000004,-362.999999999804,-2435.));
#1945=CARTESIAN_POINT('Origin',(2100.00000000007,-747.999999999804,-2440.));
#1946=CARTESIAN_POINT('Origin',(2060.00000000004,-362.999999999807,-2440.));
#1947=CARTESIAN_POINT('',(2060.00000000007,-747.999999999808,-2435.));
#1948=CARTESIAN_POINT('',(2060.00000000004,-362.999999999807,-2435.));
#1949=CARTESIAN_POINT('Origin',(2060.00000000007,-747.999999999808,-2440.));
#1950=CARTESIAN_POINT('Origin',(2040.,22.0000000001907,-2387.5));
#1951=CARTESIAN_POINT('',(2040.00000000007,-747.999999999809,-2460.));
#1952=CARTESIAN_POINT('',(2040.,20.4118853798429,-2460.));
#1953=CARTESIAN_POINT('',(2040.00000000007,-747.999999999809,-2445.));
#1954=CARTESIAN_POINT('Origin',(2080.00000000007,-747.999999999806,-2420.));
#1955=CARTESIAN_POINT('',(2120.00000000007,-747.999999999802,-2460.));
#1956=CARTESIAN_POINT('',(2105.00000000007,-747.999999999803,-2460.));
#1957=CARTESIAN_POINT('',(2120.00000000007,-747.999999999802,-2395.));
#1958=CARTESIAN_POINT('',(2100.00000000007,-747.999999999804,-2395.));
#1959=CARTESIAN_POINT('Origin',(2100.00000000007,-747.999999999804,-2400.));
#1960=CARTESIAN_POINT('',(2060.00000000007,-747.999999999808,-2395.));
#1961=CARTESIAN_POINT('Origin',(2060.00000000007,-747.999999999808,-2400.));
#1962=CARTESIAN_POINT('Origin',(2120.,22.0000000001982,-2452.5));
#1963=CARTESIAN_POINT('',(2120.,20.4118853798429,-2460.));
#1964=CARTESIAN_POINT('Origin',(2047.5,22.0000000001914,-2460.));
#1965=CARTESIAN_POINT('Origin',(2060.00000000004,-362.999999999807,-2400.));
#1966=CARTESIAN_POINT('',(2060.00000000004,-362.999999999807,-2395.));
#1967=CARTESIAN_POINT('Origin',(2100.00000000004,-362.999999999804,-2400.));
#1968=CARTESIAN_POINT('',(2100.00000000004,-362.999999999804,-2395.));
#1969=CARTESIAN_POINT('Origin',(-59.9999999999638,-363.000000000005,-3160.));
#1970=CARTESIAN_POINT('',(-59.9999999999279,-748.000000000005,-3155.));
#1971=CARTESIAN_POINT('',(-59.9999999999638,-363.000000000005,-3155.));
#1972=CARTESIAN_POINT('Origin',(-59.9999999999279,-748.000000000005,-3160.));
#1973=CARTESIAN_POINT('Origin',(-19.9999999999638,-363.000000000001,-3160.));
#1974=CARTESIAN_POINT('',(-19.9999999999279,-748.000000000002,-3155.));
#1975=CARTESIAN_POINT('',(-19.9999999999638,-363.000000000001,-3155.));
#1976=CARTESIAN_POINT('Origin',(-19.9999999999279,-748.000000000002,-3160.));
#1977=CARTESIAN_POINT('Origin',(-59.9999999999638,-363.000000000005,-3120.));
#1978=CARTESIAN_POINT('',(-59.9999999999279,-748.000000000005,-3115.));
#1979=CARTESIAN_POINT('',(-59.9999999999638,-363.000000000005,-3115.));
#1980=CARTESIAN_POINT('Origin',(-59.9999999999279,-748.000000000005,-3120.));
#1981=CARTESIAN_POINT('Origin',(-19.9999999999638,-363.000000000001,-3120.));
#1982=CARTESIAN_POINT('',(-19.9999999999279,-748.000000000002,-3115.));
#1983=CARTESIAN_POINT('',(-19.9999999999638,-363.000000000001,-3115.));
#1984=CARTESIAN_POINT('Origin',(-19.9999999999279,-748.000000000002,-3120.));
#1985=CARTESIAN_POINT('Origin',(-72.4999999999998,21.9999999999936,-3180.));
#1986=CARTESIAN_POINT('',(7.21200876796502E-11,-748.,-3180.));
#1987=CARTESIAN_POINT('',(3.61400616865463E-13,20.4118853798474,-3180.));
#1988=CARTESIAN_POINT('',(-79.9999999999279,-748.000000000007,-3180.));
#1989=CARTESIAN_POINT('',(-14.9999999999279,-748.000000000001,-3180.));
#1990=CARTESIAN_POINT('',(-79.9999999999996,20.4118853798474,-3180.));
#1991=CARTESIAN_POINT('Origin',(-79.9999999999998,21.9999999999929,-3107.5));
#1992=CARTESIAN_POINT('',(-79.9999999999279,-748.000000000007,-3100.));
#1993=CARTESIAN_POINT('',(-79.9999999999279,-748.000000000007,-3165.));
#1994=CARTESIAN_POINT('',(-79.9999999999998,21.9999999999929,-3100.));
#1995=CARTESIAN_POINT('Origin',(-39.9999999999279,-748.000000000003,-3140.));
#1996=CARTESIAN_POINT('',(7.21200876796502E-11,-748.,-3100.));
#1997=CARTESIAN_POINT('',(7.21200876796502E-11,-748.,-3115.));
#1998=CARTESIAN_POINT('',(-64.9999999999279,-748.000000000006,-3100.));
#1999=CARTESIAN_POINT('Origin',(-7.49999999999979,21.9999999999996,-3100.));
#2000=CARTESIAN_POINT('',(2.1316282072803E-13,22.0000000000003,-3100.));
#2001=CARTESIAN_POINT('Origin',(2.1316282072803E-13,22.0000000000003,-3172.5));
#2002=CARTESIAN_POINT('Origin',(2112.5,22.0000000001975,-3100.));
#2003=CARTESIAN_POINT('',(2040.00000000007,-747.999999999809,-3100.));
#2004=CARTESIAN_POINT('',(2040.,22.0000000001907,-3100.));
#2005=CARTESIAN_POINT('',(2120.00000000007,-747.999999999802,-3100.));
#2006=CARTESIAN_POINT('',(2055.00000000007,-747.999999999808,-3100.));
#2007=CARTESIAN_POINT('',(2120.,22.0000000001982,-3100.));
#2008=CARTESIAN_POINT('Origin',(2040.,22.0000000001907,-3107.5));
#2009=CARTESIAN_POINT('',(2040.00000000007,-747.999999999809,-3180.));
#2010=CARTESIAN_POINT('',(2040.,20.4118853798474,-3180.));
#2011=CARTESIAN_POINT('',(2040.00000000007,-747.999999999809,-3165.));
#2012=CARTESIAN_POINT('Origin',(2080.00000000007,-747.999999999806,-3140.));
#2013=CARTESIAN_POINT('',(2120.00000000007,-747.999999999802,-3180.));
#2014=CARTESIAN_POINT('',(2105.00000000007,-747.999999999803,-3180.));
#2015=CARTESIAN_POINT('',(2120.00000000007,-747.999999999802,-3115.));
#2016=CARTESIAN_POINT('',(2100.00000000007,-747.999999999804,-3115.));
#2017=CARTESIAN_POINT('Origin',(2100.00000000007,-747.999999999804,-3120.));
#2018=CARTESIAN_POINT('',(2100.00000000007,-747.999999999804,-3155.));
#2019=CARTESIAN_POINT('Origin',(2100.00000000007,-747.999999999804,-3160.));
#2020=CARTESIAN_POINT('',(2060.00000000007,-747.999999999808,-3115.));
#2021=CARTESIAN_POINT('Origin',(2060.00000000007,-747.999999999808,-3120.));
#2022=CARTESIAN_POINT('',(2060.00000000007,-747.999999999808,-3155.));
#2023=CARTESIAN_POINT('Origin',(2060.00000000007,-747.999999999808,-3160.));
#2024=CARTESIAN_POINT('Origin',(2120.,22.0000000001982,-3172.5));
#2025=CARTESIAN_POINT('',(2120.,20.4118853798474,-3180.));
#2026=CARTESIAN_POINT('Origin',(2100.00000000004,-362.999999999804,-3120.));
#2027=CARTESIAN_POINT('',(2100.00000000004,-362.999999999804,-3115.));
#2028=CARTESIAN_POINT('Origin',(2060.00000000004,-362.999999999807,-3120.));
#2029=CARTESIAN_POINT('',(2060.00000000004,-362.999999999807,-3115.));
#2030=CARTESIAN_POINT('Origin',(2100.00000000004,-362.999999999804,-3160.));
#2031=CARTESIAN_POINT('',(2100.00000000004,-362.999999999804,-3155.));
#2032=CARTESIAN_POINT('Origin',(2060.00000000004,-362.999999999807,-3160.));
#2033=CARTESIAN_POINT('',(2060.00000000004,-362.999999999807,-3155.));
#2034=CARTESIAN_POINT('Origin',(2047.5,22.0000000001914,-3180.));
#2035=CARTESIAN_POINT('Origin',(-300.,43.9368853801847,-3360.40890853347));
#2036=CARTESIAN_POINT('',(-330.000000000014,50.4118853798429,-3360.40890853307));
#2037=CARTESIAN_POINT('',(-330.000000000014,31.4118853798429,-3360.40890853307));
#2038=CARTESIAN_POINT('',(-330.000000000014,50.4118853798429,-3360.40890853307));
#2039=CARTESIAN_POINT('Origin',(-330.000000000014,44.9118853798429,-3360.40890853307));
#2040=CARTESIAN_POINT('',(-329.999999999833,50.4118853798429,-2160.40890853307));
#2041=CARTESIAN_POINT('',(-329.999999999833,20.4118853798429,-2160.40890853307));
#2042=CARTESIAN_POINT('',(-330.000000000014,50.4118853798429,-3360.40890853307));
#2043=CARTESIAN_POINT('Origin',(-324.500000000014,50.4118853798429,-3360.40890853307));
#2044=CARTESIAN_POINT('',(-329.999999999833,50.4118853798429,-2160.40890853307));
#2045=CARTESIAN_POINT('Origin',(2315.00000000017,35.4118853798429,-2160.40890853347));
#2046=CARTESIAN_POINT('Origin',(1020.00000000004,-363.000000000002,-2480.));
#2047=CARTESIAN_POINT('',(1020.00000000007,-748.000000000002,-2475.));
#2048=CARTESIAN_POINT('',(1020.00000000004,-363.000000000002,-2475.));
#2049=CARTESIAN_POINT('Origin',(1020.00000000007,-748.000000000002,-2480.));
#2050=CARTESIAN_POINT('Origin',(980.000000000036,-363.000000000005,-2480.));
#2051=CARTESIAN_POINT('',(980.000000000072,-748.000000000006,-2475.));
#2052=CARTESIAN_POINT('',(980.000000000036,-363.000000000005,-2475.));
#2053=CARTESIAN_POINT('Origin',(980.000000000072,-748.000000000006,-2480.));
#2054=CARTESIAN_POINT('Origin',(1040.,22.,-2492.5));
#2055=CARTESIAN_POINT('',(1040.00000000007,-748.,-2420.));
#2056=CARTESIAN_POINT('',(1040.,22.,-2420.));
#2057=CARTESIAN_POINT('',(1040.00000000007,-748.,-2500.));
#2058=CARTESIAN_POINT('',(1040.00000000007,-748.,-2435.));
#2059=CARTESIAN_POINT('',(1040.,22.,-2500.));
#2060=CARTESIAN_POINT('Origin',(1032.5,21.9999999999993,-2420.));
#2061=CARTESIAN_POINT('',(960.000000000072,-748.000000000007,-2420.));
#2062=CARTESIAN_POINT('',(960.,21.9999999999926,-2420.));
#2063=CARTESIAN_POINT('',(975.000000000072,-748.000000000006,-2420.));
#2064=CARTESIAN_POINT('Origin',(1000.00000000007,-748.000000000004,-2460.));
#2065=CARTESIAN_POINT('',(960.000000000072,-748.000000000007,-2500.));
#2066=CARTESIAN_POINT('',(1025.00000000007,-748.000000000001,-2500.));
#2067=CARTESIAN_POINT('',(960.000000000072,-748.000000000007,-2485.));
#2068=CARTESIAN_POINT('',(1020.00000000007,-748.000000000002,-2435.));
#2069=CARTESIAN_POINT('Origin',(1020.00000000007,-748.000000000002,-2440.));
#2070=CARTESIAN_POINT('',(980.000000000072,-748.000000000006,-2435.));
#2071=CARTESIAN_POINT('Origin',(980.000000000072,-748.000000000006,-2440.));
#2072=CARTESIAN_POINT('Origin',(967.5,21.9999999999933,-2500.));
#2073=CARTESIAN_POINT('',(960.,21.9999999999926,-2500.));
#2074=CARTESIAN_POINT('Origin',(1020.00000000004,-363.000000000002,-2440.));
#2075=CARTESIAN_POINT('',(1020.00000000004,-363.000000000002,-2435.));
#2076=CARTESIAN_POINT('Origin',(980.000000000036,-363.000000000005,-2440.));
#2077=CARTESIAN_POINT('',(980.000000000036,-363.000000000005,-2435.));
#2078=CARTESIAN_POINT('Origin',(960.,21.9999999999926,-2427.5));
#2079=CARTESIAN_POINT('Origin',(-72.4999999999998,21.9999999999936,-2460.));
#2080=CARTESIAN_POINT('',(7.21200876796502E-11,-748.,-2460.));
#2081=CARTESIAN_POINT('',(3.61400616865884E-13,20.4118853798429,-2460.));
#2082=CARTESIAN_POINT('',(-79.9999999999279,-748.000000000007,-2460.));
#2083=CARTESIAN_POINT('',(-14.9999999999279,-748.000000000001,-2460.));
#2084=CARTESIAN_POINT('',(-79.9999999999996,20.4118853798429,-2460.));
#2085=CARTESIAN_POINT('Origin',(2.1316282072803E-13,22.0000000000003,-2452.5));
#2086=CARTESIAN_POINT('',(7.21200876796502E-11,-748.,-2380.));
#2087=CARTESIAN_POINT('',(3.61400616865931E-13,20.4118853798424,-2380.));
#2088=CARTESIAN_POINT('',(7.21200876796502E-11,-748.,-2395.));
#2089=CARTESIAN_POINT('Origin',(-19.9999999999638,-363.000000000001,-2400.));
#2090=CARTESIAN_POINT('',(-19.9999999999279,-748.000000000002,-2395.));
#2091=CARTESIAN_POINT('',(-19.9999999999638,-363.000000000001,-2395.));
#2092=CARTESIAN_POINT('Origin',(-19.9999999999279,-748.000000000002,-2400.));
#2093=CARTESIAN_POINT('Origin',(-59.9999999999638,-363.000000000005,-2400.));
#2094=CARTESIAN_POINT('',(-59.9999999999279,-748.000000000005,-2395.));
#2095=CARTESIAN_POINT('',(-59.9999999999638,-363.000000000005,-2395.));
#2096=CARTESIAN_POINT('Origin',(-59.9999999999279,-748.000000000005,-2400.));
#2097=CARTESIAN_POINT('Origin',(-39.9999999999279,-748.000000000003,-2420.));
#2098=CARTESIAN_POINT('',(-79.9999999999279,-748.000000000007,-2380.));
#2099=CARTESIAN_POINT('',(-64.9999999999279,-748.000000000006,-2380.));
#2100=CARTESIAN_POINT('',(-79.9999999999279,-748.000000000007,-2445.));
#2101=CARTESIAN_POINT('',(-19.9999999999279,-748.000000000002,-2435.));
#2102=CARTESIAN_POINT('Origin',(-19.9999999999279,-748.000000000002,-2440.));
#2103=CARTESIAN_POINT('',(-59.9999999999279,-748.000000000005,-2435.));
#2104=CARTESIAN_POINT('Origin',(-59.9999999999279,-748.000000000005,-2440.));
#2105=CARTESIAN_POINT('Origin',(-7.49999999999979,21.9999999999996,-2380.));
#2106=CARTESIAN_POINT('',(-79.9999999999998,21.9999999999929,-2380.));
#2107=CARTESIAN_POINT('Origin',(-59.9999999999638,-363.000000000005,-2440.));
#2108=CARTESIAN_POINT('',(-59.9999999999638,-363.000000000005,-2435.));
#2109=CARTESIAN_POINT('Origin',(-79.9999999999998,21.9999999999929,-2387.5));
#2110=CARTESIAN_POINT('Origin',(-19.9999999999638,-363.000000000001,-2440.));
#2111=CARTESIAN_POINT('',(-19.9999999999638,-363.000000000001,-2435.));
#2112=UNCERTAINTY_MEASURE_WITH_UNIT(LENGTH_MEASURE(0.01),#2116,
'DISTANCE_ACCURACY_VALUE',
'Maximum model space distance between geometric entities at asserted c
onnectivities');
#2113=UNCERTAINTY_MEASURE_WITH_UNIT(LENGTH_MEASURE(0.01),#2116,
'DISTANCE_ACCURACY_VALUE',
'Maximum model space distance between geometric entities at asserted c
onnectivities');
#2114=(
GEOMETRIC_REPRESENTATION_CONTEXT(3)
GLOBAL_UNCERTAINTY_ASSIGNED_CONTEXT((#2112))
GLOBAL_UNIT_ASSIGNED_CONTEXT((#2116,#2118,#2119))
REPRESENTATION_CONTEXT('','3D')
);
#2115=(
GEOMETRIC_REPRESENTATION_CONTEXT(3)
GLOBAL_UNCERTAINTY_ASSIGNED_CONTEXT((#2113))
GLOBAL_UNIT_ASSIGNED_CONTEXT((#2116,#2118,#2119))
REPRESENTATION_CONTEXT('','3D')
);
#2116=(
LENGTH_UNIT()
NAMED_UNIT(*)
SI_UNIT(.MILLI.,.METRE.)
);
#2117=(
LENGTH_UNIT()
NAMED_UNIT(*)
SI_UNIT($,.METRE.)
);
#2118=(
NAMED_UNIT(*)
PLANE_ANGLE_UNIT()
SI_UNIT($,.RADIAN.)
);
#2119=(
NAMED_UNIT(*)
SI_UNIT($,.STERADIAN.)
SOLID_ANGLE_UNIT()
);
#2120=SHAPE_DEFINITION_REPRESENTATION(#2121,#2122);
#2121=PRODUCT_DEFINITION_SHAPE('',$,#2124);
#2122=SHAPE_REPRESENTATION('',(#1260),#2114);
#2123=PRODUCT_DEFINITION_CONTEXT('part definition',#2128,'design');
#2124=PRODUCT_DEFINITION('MesaRobotSimple','MesaRobotSimple v4',#2125,#2123);
#2125=PRODUCT_DEFINITION_FORMATION('',$,#2130);
#2126=PRODUCT_RELATED_PRODUCT_CATEGORY('MesaRobotSimple v4',
'MesaRobotSimple v4',(#2130));
#2127=APPLICATION_PROTOCOL_DEFINITION('international standard',
'automotive_design',2009,#2128);
#2128=APPLICATION_CONTEXT(
'Core Data for Automotive Mechanical Design Process');
#2129=PRODUCT_CONTEXT('part definition',#2128,'mechanical');
#2130=PRODUCT('MesaRobotSimple','MesaRobotSimple v4',$,(#2129));
#2131=PRESENTATION_STYLE_ASSIGNMENT((#2132));
#2132=SURFACE_STYLE_USAGE(.BOTH.,#2133);
#2133=SURFACE_SIDE_STYLE('',(#2134));
#2134=SURFACE_STYLE_FILL_AREA(#2135);
#2135=FILL_AREA_STYLE('Acero - Satinado',(#2136));
#2136=FILL_AREA_STYLE_COLOUR('Acero - Satinado',#2137);
#2137=COLOUR_RGB('Acero - Satinado',0.627450980392157,0.627450980392157,
0.627450980392157);
ENDSEC;
END-ISO-10303-21;
